STARTFONT 2.1
COMMENT
COMMENT Converted from OpenType font "ibmplex.ttf" by "otf2bdf 3.0".
COMMENT
FONT -FreeType-IBM Plex Sans Thin-Medium-R-Normal--44-320-100-100-P-195-ISO10646-1
SIZE 32 100 100
FONTBOUNDINGBOX 59 57 -7 -9
STARTPROPERTIES 19
FOUNDRY "FreeType"
FAMILY_NAME "IBM Plex Sans Thin"
WEIGHT_NAME "Medium"
SLANT "R"
SETWIDTH_NAME "Normal"
ADD_STYLE_NAME ""
PIXEL_SIZE 44
POINT_SIZE 320
RESOLUTION_X 100
RESOLUTION_Y 100
SPACING "P"
AVERAGE_WIDTH 195
CHARSET_REGISTRY "ISO10646"
CHARSET_ENCODING "1"
FONT_ASCENT 45
FONT_DESCENT 12
COPYRIGHT "Copyright 2018 IBM Corp. All rights reserved."
_OTF_FONTFILE "ibmplex.ttf"
_OTF_PSNAME "IBMPlexSans-Thin"
ENDPROPERTIES
CHARS 826
STARTCHAR 0000
ENCODING 0
SWIDTH 0 0
DWIDTH 0 0
BBX 0 0 0 0
BITMAP
ENDCHAR
STARTCHAR 000D
ENCODING 13
SWIDTH 225 0
DWIDTH 10 0
BBX 0 0 0 0
BITMAP
ENDCHAR
STARTCHAR 0020
ENCODING 32
SWIDTH 225 0
DWIDTH 10 0
BBX 0 0 0 0
BITMAP
ENDCHAR
STARTCHAR 0021
ENCODING 33
SWIDTH 247 0
DWIDTH 11 0
BBX 3 31 4 0
BITMAP
40
40
40
40
40
40
40
40
40
40
40
40
40
40
40
40
40
40
40
40
40
40
40
00
00
00
00
00
00
E0
E0
ENDCHAR
STARTCHAR 0022
ENCODING 34
SWIDTH 360 0
DWIDTH 16 0
BBX 8 11 4 22
BITMAP
81
81
81
81
81
81
81
81
81
81
81
ENDCHAR
STARTCHAR 0023
ENCODING 35
SWIDTH 697 0
DWIDTH 31 0
BBX 26 31 3 0
BITMAP
00201000
00201000
00201000
00201000
00201000
00401000
00402000
00402000
00402000
00402000
3FFFFFC0
00802000
00804000
00804000
00804000
00804000
00804000
01004000
01008000
01008000
FFFFFF00
01008000
02008000
02008000
02010000
02010000
02010000
02010000
04010000
04020000
04020000
ENDCHAR
STARTCHAR 0024
ENCODING 36
SWIDTH 540 0
DWIDTH 24 0
BBX 20 39 2 -4
BITMAP
002000
002000
002000
002000
03FC00
0C2300
3020C0
202060
402020
402000
402000
402000
402000
402000
402000
202000
302000
0C2000
03E000
003E00
002180
0020C0
002060
002020
002020
002010
002010
002010
002010
802020
C02020
602040
3020C0
0C2300
03FC00
002000
002000
002000
002000
ENDCHAR
STARTCHAR 0025
ENCODING 37
SWIDTH 877 0
DWIDTH 39 0
BBX 33 33 3 -1
BITMAP
0200000000
1DC0002000
2020002000
4010004000
4010008000
4008008000
8008010000
8008020000
8008020000
8008040000
8008080000
8008080000
4008100000
4010200000
4010400000
2020402000
18C081DC00
0501020200
0001040100
0002040100
0004040100
0004080080
0008080080
0010080080
0030080080
0020080080
0040080080
0080040100
0080040100
0100040100
0200020200
0200018C00
0000007000
ENDCHAR
STARTCHAR 0026
ENCODING 38
SWIDTH 675 0
DWIDTH 30 0
BBX 25 32 3 -1
BITMAP
00200000
03CE0000
06010000
08008000
08008000
10004000
10004000
10004000
10004000
08008000
08018000
0C010000
04060000
02080000
01300000
00C00000
03400F80
0C200800
10100800
20080800
40040800
40020800
80010800
80009000
80005000
80003000
80003000
40002800
40004400
20008200
10030100
0F3C0080
ENDCHAR
STARTCHAR 0027
ENCODING 39
SWIDTH 202 0
DWIDTH 9 0
BBX 1 11 4 22
BITMAP
80
80
80
80
80
80
80
80
80
80
80
ENDCHAR
STARTCHAR 0028
ENCODING 40
SWIDTH 315 0
DWIDTH 14 0
BBX 9 40 5 -6
BITMAP
0080
0100
0200
0400
0800
0800
1000
2000
2000
2000
4000
4000
4000
8000
8000
8000
8000
8000
8000
8000
8000
8000
8000
8000
8000
8000
8000
8000
4000
4000
4000
2000
2000
1000
1000
0800
0400
0400
0200
0100
ENDCHAR
STARTCHAR 0029
ENCODING 41
SWIDTH 315 0
DWIDTH 14 0
BBX 9 40 1 -6
BITMAP
8000
4000
2000
1000
1000
0800
0400
0400
0200
0200
0200
0100
0100
0100
0080
0080
0080
0080
0080
0080
0080
0080
0080
0080
0080
0080
0100
0100
0100
0100
0200
0200
0400
0400
0800
0800
1000
2000
6000
C000
ENDCHAR
STARTCHAR 002A
ENCODING 42
SWIDTH 360 0
DWIDTH 16 0
BBX 14 13 1 19
BITMAP
0200
0200
0200
0200
0200
E21C
1EE0
0300
0300
0480
0840
1020
1020
ENDCHAR
STARTCHAR 002B
ENCODING 43
SWIDTH 585 0
DWIDTH 26 0
BBX 21 21 3 3
BITMAP
002000
002000
002000
002000
002000
002000
002000
002000
002000
002000
FFFFF8
002000
002000
002000
002000
002000
002000
002000
002000
002000
002000
ENDCHAR
STARTCHAR 002C
ENCODING 44
SWIDTH 225 0
DWIDTH 10 0
BBX 5 9 2 -7
BITMAP
30
38
10
10
10
20
20
40
80
ENDCHAR
STARTCHAR 002D
ENCODING 45
SWIDTH 382 0
DWIDTH 17 0
BBX 10 1 4 13
BITMAP
FFC0
ENDCHAR
STARTCHAR 002E
ENCODING 46
SWIDTH 225 0
DWIDTH 10 0
BBX 3 2 4 0
BITMAP
E0
C0
ENDCHAR
STARTCHAR 002F
ENCODING 47
SWIDTH 292 0
DWIDTH 13 0
BBX 11 40 1 -7
BITMAP
0020
0020
0040
0040
0040
0040
0080
0080
0080
0080
0100
0100
0100
0200
0200
0200
0200
0400
0400
0400
0400
0800
0800
0800
0800
1000
1000
1000
2000
2000
2000
2000
4000
4000
4000
4000
8000
8000
8000
8000
ENDCHAR
STARTCHAR 0030
ENCODING 48
SWIDTH 585 0
DWIDTH 26 0
BBX 21 33 3 -1
BITMAP
006000
039E00
0C0100
180080
100040
200020
200020
400020
400010
400010
400010
800010
800010
800010
800010
800010
800018
800010
800010
800010
800010
800010
400010
400010
400010
400020
200020
200020
100040
180080
0C0100
038E00
003000
ENDCHAR
STARTCHAR 0031
ENCODING 49
SWIDTH 585 0
DWIDTH 26 0
BBX 20 31 4 0
BITMAP
006000
01A000
032000
042000
082000
102000
602000
C02000
002000
002000
002000
002000
002000
002000
002000
002000
002000
002000
002000
002000
002000
002000
002000
002000
002000
002000
002000
002000
002000
002000
FFFFF0
ENDCHAR
STARTCHAR 0032
ENCODING 50
SWIDTH 585 0
DWIDTH 26 0
BBX 19 32 4 0
BITMAP
004000
0F3C00
100200
200100
400080
400080
800080
000080
000040
000040
0000C0
000080
000080
000080
000100
000100
000200
000400
000C00
001800
003000
006000
00C000
018000
030000
060000
0C0000
180000
300000
600000
C00000
FFFFE0
ENDCHAR
STARTCHAR 0033
ENCODING 51
SWIDTH 585 0
DWIDTH 26 0
BBX 18 33 4 -1
BITMAP
008000
0F3800
300600
600300
400100
800080
000080
000080
000080
000080
000080
000100
000100
000200
000C00
0FF000
001C00
000200
000100
000080
000080
000040
000040
000040
000040
000040
000080
000080
800180
C00100
200600
1E3800
00C000
ENDCHAR
STARTCHAR 0034
ENCODING 52
SWIDTH 585 0
DWIDTH 26 0
BBX 22 31 2 0
BITMAP
000080
000180
000280
000280
000480
000880
000880
001080
002080
004080
004080
008080
010080
010080
020080
040080
040080
080080
100080
300080
200080
400080
800080
FFFFFC
000080
000080
000080
000080
000080
000080
000080
ENDCHAR
STARTCHAR 0035
ENCODING 53
SWIDTH 585 0
DWIDTH 26 0
BBX 18 32 4 -1
BITMAP
3FFF80
200000
200000
200000
200000
200000
200000
200000
400000
400000
400000
400000
400000
47FC00
580200
600100
400080
000040
000040
000040
000040
000040
000040
000040
000040
000040
800040
800080
400100
300200
0F1C00
006000
ENDCHAR
STARTCHAR 0036
ENCODING 54
SWIDTH 585 0
DWIDTH 26 0
BBX 19 32 4 -1
BITMAP
001800
002000
00C000
018000
030000
060000
040000
080000
100000
100000
200000
200000
404000
47BC00
580300
A00180
C00080
C00040
800040
800040
800020
800020
800020
800020
800040
800040
400040
400080
200100
180300
071C00
006000
ENDCHAR
STARTCHAR 0037
ENCODING 55
SWIDTH 585 0
DWIDTH 26 0
BBX 20 31 3 0
BITMAP
FFFFF0
800020
800020
800020
800040
800040
800080
800080
000100
000100
000200
000200
000200
000400
000400
000800
000800
001000
001000
002000
002000
002000
004000
004000
008000
008000
010000
010000
020000
020000
020000
ENDCHAR
STARTCHAR 0038
ENCODING 56
SWIDTH 585 0
DWIDTH 26 0
BBX 20 33 3 -1
BITMAP
007000
079E00
080180
100040
200060
200020
400020
400020
400020
400020
200020
200020
200040
1000C0
0C0100
01FE00
070700
1800C0
200060
400020
400010
C00010
800010
800010
800010
800010
400010
400010
600020
300040
180080
070F00
00B000
ENDCHAR
STARTCHAR 0039
ENCODING 57
SWIDTH 585 0
DWIDTH 26 0
BBX 19 32 4 0
BITMAP
00E000
071C00
180300
200180
200080
400040
400040
800020
800020
800020
800020
800020
800020
400060
400060
6000A0
3001C0
180340
071C40
00E0C0
000080
000080
000100
000300
000200
000400
000800
001000
002000
004000
008000
030000
ENDCHAR
STARTCHAR 003A
ENCODING 58
SWIDTH 247 0
DWIDTH 11 0
BBX 2 23 5 0
BITMAP
80
C0
C0
00
00
00
00
00
00
00
00
00
00
00
00
00
00
00
00
00
00
C0
C0
ENDCHAR
STARTCHAR 003B
ENCODING 59
SWIDTH 247 0
DWIDTH 11 0
BBX 4 30 3 -7
BITMAP
20
30
30
00
00
00
00
00
00
00
00
00
00
00
00
00
00
00
00
00
00
30
30
10
10
20
20
40
C0
80
ENDCHAR
STARTCHAR 003C
ENCODING 60
SWIDTH 585 0
DWIDTH 26 0
BBX 19 23 4 2
BITMAP
000060
000080
000300
000C00
001000
006000
018000
020000
0C0000
300000
400000
800000
600000
100000
0C0000
030000
008000
006000
001800
000400
000300
0000C0
000020
ENDCHAR
STARTCHAR 003D
ENCODING 61
SWIDTH 585 0
DWIDTH 26 0
BBX 21 9 3 9
BITMAP
FFFFF8
000000
000000
000000
000000
000000
000000
000000
FFFFF8
ENDCHAR
STARTCHAR 003E
ENCODING 62
SWIDTH 585 0
DWIDTH 26 0
BBX 19 23 4 2
BITMAP
800000
600000
180000
040000
030000
00C000
002000
001800
000600
000100
0000C0
000020
0000C0
000300
000400
001800
006000
008000
030000
0C0000
100000
600000
800000
ENDCHAR
STARTCHAR 003F
ENCODING 63
SWIDTH 450 0
DWIDTH 20 0
BBX 17 32 2 0
BITMAP
01C000
0E3800
300400
600200
400100
800100
800080
000080
000080
000080
000080
000100
000100
000200
000600
000800
01F000
010000
010000
010000
010000
010000
010000
010000
000000
000000
000000
000000
000000
000000
030000
030000
ENDCHAR
STARTCHAR 0040
ENCODING 64
SWIDTH 877 0
DWIDTH 39 0
BBX 33 37 3 -5
BITMAP
0000800000
001F3E0000
0060018000
0180006000
0200001000
0400000800
0800000400
1000000400
2000000200
2000800200
400E320100
40100A0100
4020060100
8020020080
8040020080
8040020080
8040020080
8040020080
8040020080
8040020080
8040020080
8040020080
8040020080
8040020100
4020020100
4020060100
4010050200
2008198400
2007E07800
1000000000
1000000000
0800000000
0400000000
0200000000
0180000000
0060000000
001FFFE000
ENDCHAR
STARTCHAR 0041
ENCODING 65
SWIDTH 585 0
DWIDTH 26 0
BBX 23 31 2 0
BITMAP
003000
002800
002800
004800
004400
004400
008400
008200
008200
010200
010100
030100
020080
020080
040080
040040
040040
080040
080020
080020
1FFFE0
100010
300010
200010
200008
400008
400004
400004
800004
800002
800002
ENDCHAR
STARTCHAR 0042
ENCODING 66
SWIDTH 607 0
DWIDTH 27 0
BBX 19 31 5 0
BITMAP
FFFC00
800300
800180
800080
800040
800040
800040
800040
800040
800040
800040
800080
800180
800300
FFFC00
800300
800080
800040
800020
800020
800020
800020
800020
800020
800020
800020
800020
800040
8000C0
800180
FFFE00
ENDCHAR
STARTCHAR 0043
ENCODING 67
SWIDTH 607 0
DWIDTH 27 0
BBX 21 33 3 -1
BITMAP
001000
01E700
0600C0
080020
100010
300018
200008
400000
400000
400000
400000
800000
800000
800000
800000
800000
800000
800000
800000
800000
800000
800000
400000
400000
400000
400000
200008
200008
100010
080020
0600C0
01C700
003000
ENDCHAR
STARTCHAR 0044
ENCODING 68
SWIDTH 652 0
DWIDTH 29 0
BBX 21 31 5 0
BITMAP
FFF800
800600
800180
8000C0
800060
800020
800010
800010
800010
800008
800008
800008
800008
800008
800008
800008
800008
800008
800008
800008
800008
800008
800010
800010
800010
800020
800060
8000C0
800180
800600
FFF800
ENDCHAR
STARTCHAR 0045
ENCODING 69
SWIDTH 540 0
DWIDTH 24 0
BBX 17 31 5 0
BITMAP
FFFF80
800000
800000
800000
800000
800000
800000
800000
800000
800000
800000
800000
800000
800000
800000
FFFF00
800000
800000
800000
800000
800000
800000
800000
800000
800000
800000
800000
800000
800000
800000
FFFF80
ENDCHAR
STARTCHAR 0046
ENCODING 70
SWIDTH 517 0
DWIDTH 23 0
BBX 16 31 5 0
BITMAP
FFFF
8000
8000
8000
8000
8000
8000
8000
8000
8000
8000
8000
8000
8000
8000
FFFF
8000
8000
8000
8000
8000
8000
8000
8000
8000
8000
8000
8000
8000
8000
8000
ENDCHAR
STARTCHAR 0047
ENCODING 71
SWIDTH 652 0
DWIDTH 29 0
BBX 23 32 3 0
BITMAP
01E780
060060
080010
100008
30000C
200004
600000
400000
400000
400000
800000
800000
800000
800000
800000
800000
8003FE
800002
800002
800002
800002
400002
400002
400002
600002
200006
300006
10000A
0C0012
060062
01E382
000400
ENDCHAR
STARTCHAR 0048
ENCODING 72
SWIDTH 675 0
DWIDTH 30 0
BBX 21 31 5 0
BITMAP
800008
800008
800008
800008
800008
800008
800008
800008
800008
800008
800008
800008
800008
800008
800008
FFFFF8
800008
800008
800008
800008
800008
800008
800008
800008
800008
800008
800008
800008
800008
800008
800008
ENDCHAR
STARTCHAR 0049
ENCODING 73
SWIDTH 360 0
DWIDTH 16 0
BBX 11 31 3 0
BITMAP
FFE0
0400
0400
0400
0400
0400
0400
0400
0400
0400
0400
0400
0400
0400
0400
0400
0400
0400
0400
0400
0400
0400
0400
0400
0400
0400
0400
0400
0400
0400
FFE0
ENDCHAR
STARTCHAR 004A
ENCODING 74
SWIDTH 450 0
DWIDTH 20 0
BBX 15 32 1 -1
BITMAP
1FFE
0002
0002
0002
0002
0002
0002
0002
0002
0002
0002
0002
0002
0002
0002
0002
0002
0002
0002
0002
0002
0002
0002
0002
0002
0002
8002
4004
4004
3008
1E70
0180
ENDCHAR
STARTCHAR 004B
ENCODING 75
SWIDTH 562 0
DWIDTH 25 0
BBX 19 31 5 0
BITMAP
800020
800040
800080
800100
800200
800400
800800
801800
803000
806000
804000
808000
810000
830000
850000
888000
904000
A04000
E02000
C01000
801000
800800
800400
800400
800200
800100
800180
800080
800040
800060
800020
ENDCHAR
STARTCHAR 004C
ENCODING 76
SWIDTH 472 0
DWIDTH 21 0
BBX 15 31 5 0
BITMAP
8000
8000
8000
8000
8000
8000
8000
8000
8000
8000
8000
8000
8000
8000
8000
8000
8000
8000
8000
8000
8000
8000
8000
8000
8000
8000
8000
8000
8000
8000
FFFE
ENDCHAR
STARTCHAR 004D
ENCODING 77
SWIDTH 787 0
DWIDTH 35 0
BBX 26 31 5 0
BITMAP
C00000C0
C0000140
A0000140
A0000240
90000440
88000440
88000840
84000840
84001040
82002040
81002040
81004040
8080C040
80C08040
80410040
80210040
80220040
80160040
801C0040
80080040
80000040
80000040
80000040
80000040
80000040
80000040
80000040
80000040
80000040
80000040
80000040
ENDCHAR
STARTCHAR 004E
ENCODING 78
SWIDTH 675 0
DWIDTH 30 0
BBX 21 31 5 0
BITMAP
C00008
C00008
A00008
A00008
900008
880008
880008
840008
860008
820008
810008
810008
808008
804008
804008
802008
803008
801008
800808
800808
800408
800208
800208
800108
800188
800088
800048
800048
800028
800018
800018
ENDCHAR
STARTCHAR 004F
ENCODING 79
SWIDTH 675 0
DWIDTH 30 0
BBX 24 33 3 -1
BITMAP
000C00
01E380
060060
080010
100008
300004
200004
600002
400002
400002
400001
800001
800001
800001
800001
800001
800001
800001
800001
800001
800001
800001
400001
400002
400002
600002
200004
300004
100008
0C0010
060060
01E380
000400
ENDCHAR
STARTCHAR 0050
ENCODING 80
SWIDTH 585 0
DWIDTH 26 0
BBX 19 31 5 0
BITMAP
FFFE00
800180
8000C0
800040
800020
800020
800020
800020
800020
800020
800020
800020
800020
800040
800080
800300
FFFC00
800000
800000
800000
800000
800000
800000
800000
800000
800000
800000
800000
800000
800000
800000
ENDCHAR
STARTCHAR 0051
ENCODING 81
SWIDTH 675 0
DWIDTH 30 0
BBX 24 38 3 -6
BITMAP
000C00
01E380
060060
080010
100008
300004
200004
600002
400002
400002
400001
800001
800001
800001
800001
800001
800001
800001
800001
800001
800001
800001
400001
400002
400002
600002
200004
300004
100008
0C0010
060060
01E380
001C00
000800
000800
000800
000800
000F80
ENDCHAR
STARTCHAR 0052
ENCODING 82
SWIDTH 630 0
DWIDTH 28 0
BBX 20 31 5 0
BITMAP
FFFE00
800180
8000C0
800040
800020
800020
800020
800020
800020
800020
800020
800020
800020
800040
800080
800300
FFFC00
801000
800800
800800
800400
800600
800200
800100
800100
800080
800080
800040
800020
800020
800010
ENDCHAR
STARTCHAR 0053
ENCODING 83
SWIDTH 540 0
DWIDTH 24 0
BBX 20 33 2 -1
BITMAP
002000
079E00
180180
200040
600020
400000
400000
400000
400000
400000
400000
400000
200000
300000
0C0000
03C000
003C00
000300
0000C0
000040
000020
000020
000010
000010
000010
000010
000020
800020
400020
200040
180180
079E00
002000
ENDCHAR
STARTCHAR 0054
ENCODING 84
SWIDTH 540 0
DWIDTH 24 0
BBX 23 31 1 0
BITMAP
FFFFFE
001000
001000
001000
001000
001000
001000
001000
001000
001000
001000
001000
001000
001000
001000
001000
001000
001000
001000
001000
001000
001000
001000
001000
001000
001000
001000
001000
001000
001000
001000
ENDCHAR
STARTCHAR 0055
ENCODING 85
SWIDTH 630 0
DWIDTH 28 0
BBX 21 32 4 -1
BITMAP
800008
800008
800008
800008
800008
800008
800008
800008
800008
800008
800008
800008
800008
800008
800008
800008
800008
800008
800008
800008
800008
800010
400010
400010
400010
400010
400030
200020
300040
1800C0
070700
00A800
ENDCHAR
STARTCHAR 0056
ENCODING 86
SWIDTH 562 0
DWIDTH 25 0
BBX 22 31 2 0
BITMAP
800004
800008
800008
400008
400010
400010
200010
200020
200020
100020
100040
100040
080040
080080
080080
040080
040100
040100
020100
020200
020200
010200
010400
010400
008400
008800
008800
004800
005000
005000
003000
ENDCHAR
STARTCHAR 0057
ENCODING 87
SWIDTH 855 0
DWIDTH 38 0
BBX 36 31 1 0
BITMAP
C000600010
4000600010
4000500010
4000500020
2000900020
2000880020
2000880020
2000880040
1001080040
1001040040
1001040040
1002040080
0802020080
0802020080
0802020080
0C04020100
0404010100
0404010100
0408010200
0208008200
0208008200
0208008200
0210008400
0110004400
0110004400
0120004400
0120002800
00A0002800
00A0002800
00C0002800
00C0001000
ENDCHAR
STARTCHAR 0058
ENCODING 88
SWIDTH 540 0
DWIDTH 24 0
BBX 21 31 2 0
BITMAP
800008
400010
400020
200020
100040
100080
080080
040100
060200
020200
010400
018800
008800
005000
006000
002000
005000
009800
008800
010400
020600
020200
040100
080180
080080
100040
200060
200020
400010
800018
800008
ENDCHAR
STARTCHAR 0059
ENCODING 89
SWIDTH 540 0
DWIDTH 24 0
BBX 22 31 1 0
BITMAP
800004
400008
600008
200010
100010
100020
080040
0C0040
040080
020080
020100
010200
018200
008400
004400
004800
003000
003000
001000
001000
001000
001000
001000
001000
001000
001000
001000
001000
001000
001000
001000
ENDCHAR
STARTCHAR 005A
ENCODING 90
SWIDTH 540 0
DWIDTH 24 0
BBX 21 31 2 0
BITMAP
7FFFF0
000010
000020
000020
000040
000080
000080
000100
000200
000200
000400
000800
000800
001000
002000
002000
004000
008000
018000
010000
020000
060000
040000
080000
180000
100000
200000
600000
400000
800000
FFFFF8
ENDCHAR
STARTCHAR 005B
ENCODING 91
SWIDTH 292 0
DWIDTH 13 0
BBX 5 40 5 -6
BITMAP
F8
80
80
80
80
80
80
80
80
80
80
80
80
80
80
80
80
80
80
80
80
80
80
80
80
80
80
80
80
80
80
80
80
80
80
80
80
80
80
F8
ENDCHAR
STARTCHAR 005C
ENCODING 92
SWIDTH 292 0
DWIDTH 13 0
BBX 11 40 2 -7
BITMAP
8000
8000
8000
4000
4000
4000
4000
2000
2000
2000
2000
1000
1000
1000
1000
0800
0800
0800
0400
0400
0400
0400
0200
0200
0200
0200
0100
0100
0100
0100
0080
0080
0080
0080
0040
0040
0040
0040
0020
0020
ENDCHAR
STARTCHAR 005D
ENCODING 93
SWIDTH 292 0
DWIDTH 13 0
BBX 6 40 3 -6
BITMAP
FC
04
04
04
04
04
04
04
04
04
04
04
04
04
04
04
04
04
04
04
04
04
04
04
04
04
04
04
04
04
04
04
04
04
04
04
04
04
04
FC
ENDCHAR
STARTCHAR 005E
ENCODING 94
SWIDTH 585 0
DWIDTH 26 0
BBX 20 17 3 14
BITMAP
002000
005000
009000
008800
010400
030400
020200
040200
040100
080080
180080
100040
200040
200020
400010
C00010
800000
ENDCHAR
STARTCHAR 005F
ENCODING 95
SWIDTH 562 0
DWIDTH 25 0
BBX 23 1 1 -6
BITMAP
FFFFFE
ENDCHAR
STARTCHAR 0060
ENCODING 96
SWIDTH 585 0
DWIDTH 26 0
BBX 6 7 9 26
BITMAP
80
40
20
10
10
08
04
ENDCHAR
STARTCHAR 0061
ENCODING 97
SWIDTH 517 0
DWIDTH 23 0
BBX 19 24 3 -1
BITMAP
07E000
181800
200400
400200
400200
000200
000200
000200
000200
000200
000200
1FFE00
200200
400200
800200
800200
800200
800200
800200
800200
800600
600A00
38F1E0
040000
ENDCHAR
STARTCHAR 0062
ENCODING 98
SWIDTH 562 0
DWIDTH 25 0
BBX 17 34 5 -1
BITMAP
800000
800000
800000
800000
800000
800000
800000
800000
800000
800000
87E000
981800
A00600
C00200
800100
800100
800080
800080
800080
800080
800080
800080
800080
800080
800080
800080
800080
800080
800100
800100
C00200
B00400
8E3800
004000
ENDCHAR
STARTCHAR 0063
ENCODING 99
SWIDTH 472 0
DWIDTH 21 0
BBX 17 24 3 -1
BITMAP
03F000
0C0C00
300200
200100
400100
400000
800000
800000
800000
800000
800000
800000
800000
800000
800000
800000
800000
800000
400000
400080
200100
100200
0E1C00
012000
ENDCHAR
STARTCHAR 0064
ENCODING 100
SWIDTH 562 0
DWIDTH 25 0
BBX 17 33 3 0
BITMAP
000080
000080
000080
000080
000080
000080
000080
000080
000080
03F080
0C0C80
100280
200180
400080
400080
800080
800080
800080
800080
800080
800080
800080
800080
800080
800080
800080
800080
400080
400080
200180
180280
0E3C80
010000
ENDCHAR
STARTCHAR 0065
ENCODING 101
SWIDTH 517 0
DWIDTH 23 0
BBX 18 24 3 -1
BITMAP
03F000
0C0C00
100200
200100
400100
400080
800080
800040
800040
800040
800040
FFFFC0
800000
800000
800000
800000
800000
800040
400080
400080
200100
180200
0E1C00
012000
ENDCHAR
STARTCHAR 0066
ENCODING 102
SWIDTH 270 0
DWIDTH 12 0
BBX 10 33 2 0
BITMAP
0FC0
1000
1000
1000
1000
1000
1000
1000
1000
1000
1000
FF80
1000
1000
1000
1000
1000
1000
1000
1000
1000
1000
1000
1000
1000
1000
1000
1000
1000
1000
1000
1000
1000
ENDCHAR
STARTCHAR 0067
ENCODING 103
SWIDTH 517 0
DWIDTH 23 0
BBX 20 34 2 -9
BITMAP
0001F0
000200
03FA00
040600
080100
100100
200080
200080
200080
200080
200080
200080
200080
100100
080100
040600
03F800
0C0000
100000
200000
200000
100000
1C0000
0FFFC0
300020
400010
400010
800010
800010
800010
400010
400020
3000C0
0FFF00
ENDCHAR
STARTCHAR 0068
ENCODING 104
SWIDTH 540 0
DWIDTH 24 0
BBX 15 33 5 0
BITMAP
8000
8000
8000
8000
8000
8000
8000
8000
8000
8000
8FE0
9018
A004
C004
8002
8002
8002
8002
8002
8002
8002
8002
8002
8002
8002
8002
8002
8002
8002
8002
8002
8002
8002
ENDCHAR
STARTCHAR 0069
ENCODING 105
SWIDTH 225 0
DWIDTH 10 0
BBX 2 32 4 0
BITMAP
C0
C0
00
00
00
00
00
00
00
00
40
40
40
40
40
40
40
40
40
40
40
40
40
40
40
40
40
40
40
40
40
40
ENDCHAR
STARTCHAR 006A
ENCODING 106
SWIDTH 225 0
DWIDTH 10 0
BBX 5 41 1 -9
BITMAP
18
18
00
00
00
00
00
00
00
00
08
08
08
08
08
08
08
08
08
08
08
08
08
08
08
08
08
08
08
08
08
08
08
08
08
08
08
08
08
08
F0
ENDCHAR
STARTCHAR 006B
ENCODING 107
SWIDTH 472 0
DWIDTH 21 0
BBX 16 33 5 0
BITMAP
8000
8000
8000
8000
8000
8000
8000
8000
8000
8000
8000
800C
8018
8030
8060
80C0
8180
8300
8600
8C00
9C00
B400
E200
C100
8080
8040
8060
8020
8010
8008
8004
8002
8003
ENDCHAR
STARTCHAR 006C
ENCODING 108
SWIDTH 247 0
DWIDTH 11 0
BBX 4 33 5 0
BITMAP
80
80
80
80
80
80
80
80
80
80
80
80
80
80
80
80
80
80
80
80
80
80
80
80
80
80
80
80
80
80
80
80
F0
ENDCHAR
STARTCHAR 006D
ENCODING 109
SWIDTH 877 0
DWIDTH 39 0
BBX 30 23 5 0
BITMAP
0FE01F80
B0106060
C0088010
C0050008
80050008
80020004
80020004
80020004
80020004
80020004
80020004
80020004
80020004
80020004
80020004
80020004
80020004
80020004
80020004
80020004
80020004
80020004
80020004
ENDCHAR
STARTCHAR 006E
ENCODING 110
SWIDTH 540 0
DWIDTH 24 0
BBX 15 23 5 0
BITMAP
0FE0
9018
A004
C004
8002
8002
8002
8002
8002
8002
8002
8002
8002
8002
8002
8002
8002
8002
8002
8002
8002
8002
8002
ENDCHAR
STARTCHAR 006F
ENCODING 111
SWIDTH 540 0
DWIDTH 24 0
BBX 18 24 3 -1
BITMAP
03F000
0C0C00
300200
200100
400080
400080
800040
800040
800040
800040
800040
800040
800040
800040
800040
800040
800040
800040
400080
400080
200100
100200
0E1C00
012000
ENDCHAR
STARTCHAR 0070
ENCODING 112
SWIDTH 562 0
DWIDTH 25 0
BBX 17 32 5 -9
BITMAP
07E000
981800
A00600
C00200
800100
800100
800080
800080
800080
800080
800080
800080
800080
800080
800080
800080
800080
800080
800100
800100
C00200
B00400
8E3800
804000
800000
800000
800000
800000
800000
800000
800000
800000
ENDCHAR
STARTCHAR 0071
ENCODING 113
SWIDTH 562 0
DWIDTH 25 0
BBX 17 31 3 -9
BITMAP
03F000
0C0C80
100280
200180
400080
400080
800080
800080
800080
800080
800080
800080
800080
800080
800080
800080
800080
800080
400080
400080
200180
180280
0E3C80
010080
000080
000080
000080
000080
000080
000080
000080
ENDCHAR
STARTCHAR 0072
ENCODING 114
SWIDTH 337 0
DWIDTH 15 0
BBX 9 22 5 0
BITMAP
9F80
A000
C000
8000
8000
8000
8000
8000
8000
8000
8000
8000
8000
8000
8000
8000
8000
8000
8000
8000
8000
8000
ENDCHAR
STARTCHAR 0073
ENCODING 115
SWIDTH 450 0
DWIDTH 20 0
BBX 16 24 2 -1
BITMAP
07E0
101C
2006
4002
4000
4000
4000
4000
6000
3000
1C00
03E0
0018
0006
0002
0001
0001
0001
0001
8001
4002
3004
0E38
00C0
ENDCHAR
STARTCHAR 0074
ENCODING 116
SWIDTH 292 0
DWIDTH 13 0
BBX 10 28 2 1
BITMAP
1000
1000
1000
1000
1000
1000
FF80
1000
1000
1000
1000
1000
1000
1000
1000
1000
1000
1000
1000
1000
1000
1000
1000
1000
1000
1000
1000
0FC0
ENDCHAR
STARTCHAR 0075
ENCODING 117
SWIDTH 540 0
DWIDTH 24 0
BBX 16 22 4 -1
BITMAP
8001
8001
8001
8001
8001
8001
8001
8001
8001
8001
8001
8001
8001
8001
8001
8001
8001
4001
4003
2005
3005
0E79
ENDCHAR
STARTCHAR 0076
ENCODING 118
SWIDTH 450 0
DWIDTH 20 0
BBX 18 22 1 0
BITMAP
800040
400080
400080
200080
200100
200100
100200
100200
100200
080400
080400
040400
040800
040800
021000
021000
021000
012000
012000
012000
00C000
00C000
ENDCHAR
STARTCHAR 0077
ENCODING 119
SWIDTH 720 0
DWIDTH 32 0
BBX 28 22 2 0
BITMAP
80060010
80060010
80050010
40090020
40090020
40090020
20108020
20108040
20108040
10204040
10204080
10204080
10202080
08402100
08402100
08401100
04801100
04801200
04801200
03000A00
03000C00
03000C00
ENDCHAR
STARTCHAR 0078
ENCODING 120
SWIDTH 450 0
DWIDTH 20 0
BBX 17 22 2 0
BITMAP
C00180
400100
200200
100400
100C00
080800
041000
022000
022000
014000
008000
014000
014000
022000
041000
080800
080800
100400
200200
400300
400100
800080
ENDCHAR
STARTCHAR 0079
ENCODING 121
SWIDTH 450 0
DWIDTH 20 0
BBX 18 31 1 -9
BITMAP
800040
400080
400080
200080
200100
200100
100200
100200
100200
080400
080400
040400
040800
040800
021000
021000
021000
012000
012000
012000
00C000
00C000
008000
008000
008000
010000
010000
010000
020000
020000
3C0000
ENDCHAR
STARTCHAR 007A
ENCODING 122
SWIDTH 405 0
DWIDTH 18 0
BBX 17 22 1 0
BITMAP
7FFF00
000200
000200
000400
000800
001800
001000
002000
004000
004000
008000
010000
020000
020000
040000
080000
180000
100000
200000
400000
400000
FFFF80
ENDCHAR
STARTCHAR 007B
ENCODING 123
SWIDTH 315 0
DWIDTH 14 0
BBX 10 40 1 -6
BITMAP
07C0
0800
0800
0800
0800
0800
0800
0800
0800
0800
0800
0800
0800
0800
0800
0800
0800
0800
1000
E000
8000
7000
0800
0800
0800
0800
0800
0800
0800
0800
0800
0800
0800
0800
0800
0800
0800
0800
0800
0FC0
ENDCHAR
STARTCHAR 007C
ENCODING 124
SWIDTH 225 0
DWIDTH 10 0
BBX 1 40 5 -6
BITMAP
80
80
80
80
80
80
80
80
80
80
80
80
80
80
80
80
80
80
80
80
80
80
80
80
80
80
80
80
80
80
80
80
80
80
80
80
80
80
80
80
ENDCHAR
STARTCHAR 007D
ENCODING 125
SWIDTH 315 0
DWIDTH 14 0
BBX 10 40 3 -6
BITMAP
F800
0400
0400
0400
0400
0400
0400
0400
0400
0400
0400
0400
0400
0400
0400
0400
0400
0400
0200
01C0
0040
0380
0400
0400
0400
0400
0400
0400
0400
0400
0400
0400
0400
0400
0400
0400
0400
0400
0400
F800
ENDCHAR
STARTCHAR 007E
ENCODING 126
SWIDTH 585 0
DWIDTH 26 0
BBX 21 5 3 11
BITMAP
1C0000
638000
807018
001C70
000380
ENDCHAR
STARTCHAR 00A0
ENCODING 160
SWIDTH 225 0
DWIDTH 10 0
BBX 0 0 0 0
BITMAP
ENDCHAR
STARTCHAR 00A1
ENCODING 161
SWIDTH 247 0
DWIDTH 11 0
BBX 3 32 4 -9
BITMAP
40
E0
60
00
00
00
00
00
40
40
40
40
40
40
40
40
40
40
40
40
40
40
40
40
40
40
40
40
40
40
40
40
ENDCHAR
STARTCHAR 00A2
ENCODING 162
SWIDTH 495 0
DWIDTH 22 0
BBX 17 33 3 -5
BITMAP
008000
008000
008000
008000
008000
03F000
0C8C00
308200
208100
408100
408000
808000
808000
808000
808000
808000
808000
808000
808000
808000
808000
808000
808000
408000
408080
208100
108600
0E9C00
01A000
008000
008000
008000
008000
ENDCHAR
STARTCHAR 00A3
ENCODING 163
SWIDTH 562 0
DWIDTH 25 0
BBX 20 32 3 0
BITMAP
001000
03CF00
060080
080040
100020
100010
200000
200000
200000
200000
200000
200000
200000
100000
100000
100000
080000
FFFE00
080000
040000
040000
040000
040000
040000
040000
080000
080000
080000
100000
200000
400000
7FFFF0
ENDCHAR
STARTCHAR 00A4
ENCODING 164
SWIDTH 585 0
DWIDTH 26 0
BBX 24 23 1 4
BITMAP
C00003
600006
30FF0C
1B00D8
0E0070
040020
080010
080010
080010
080010
100008
100008
100008
100010
080010
080010
080010
040020
0E0070
1B00D8
30FF0C
600006
C00003
ENDCHAR
STARTCHAR 00A5
ENCODING 165
SWIDTH 562 0
DWIDTH 25 0
BBX 21 31 2 0
BITMAP
C00008
400008
200010
200020
100020
080040
080040
040080
040100
020100
010200
010600
008400
00C800
004800
003000
3FFFF0
002000
002000
002000
002000
002000
002000
3FFFF0
002000
002000
002000
002000
002000
002000
002000
ENDCHAR
STARTCHAR 00A6
ENCODING 166
SWIDTH 225 0
DWIDTH 10 0
BBX 1 40 5 -6
BITMAP
80
80
80
80
80
80
80
80
80
80
80
80
80
80
80
80
00
00
00
00
00
00
00
00
80
80
80
80
80
80
80
80
80
80
80
80
80
80
80
80
ENDCHAR
STARTCHAR 00A7
ENCODING 167
SWIDTH 562 0
DWIDTH 25 0
BBX 17 39 4 -7
BITMAP
004000
0F3C00
100200
200000
200000
400000
400000
400000
200000
200000
100000
0C0000
0B0000
30E000
401C00
400600
800100
800080
800080
800080
800080
800080
400080
200080
180100
070200
00EC00
001800
000400
000200
000200
000100
000100
000100
000200
000200
600400
181800
07E000
ENDCHAR
STARTCHAR 00A8
ENCODING 168
SWIDTH 585 0
DWIDTH 26 0
BBX 10 2 8 29
BITMAP
4040
C0C0
ENDCHAR
STARTCHAR 00A9
ENCODING 169
SWIDTH 697 0
DWIDTH 31 0
BBX 29 33 1 -1
BITMAP
00020000
007CF000
01800C00
02000300
04000180
080000C0
10000040
10000020
200FC020
20302010
40401010
40401010
40800008
40800008
80800008
80800008
80800008
80800008
80800008
40800008
40800008
40400010
40401010
20202010
201CC020
10030020
10000040
080000C0
04000180
02000300
01800C00
00707000
000E8000
ENDCHAR
STARTCHAR 00AA
ENCODING 170
SWIDTH 337 0
DWIDTH 15 0
BBX 13 15 2 16
BITMAP
3F80
4040
8040
0040
0020
0020
0020
3FE0
4020
8020
8020
8020
8060
40A0
3F38
ENDCHAR
STARTCHAR 00AB
ENCODING 171
SWIDTH 450 0
DWIDTH 20 0
BBX 17 16 2 5
BITMAP
010100
020200
040400
080800
101000
202000
404000
808000
808000
404000
202000
101000
080800
040400
030300
018180
ENDCHAR
STARTCHAR 00AC
ENCODING 172
SWIDTH 585 0
DWIDTH 26 0
BBX 20 9 3 5
BITMAP
FFFFF0
000010
000010
000010
000010
000010
000010
000010
000010
ENDCHAR
STARTCHAR 00AD
ENCODING 173
SWIDTH 382 0
DWIDTH 17 0
BBX 10 1 4 13
BITMAP
FFC0
ENDCHAR
STARTCHAR 00AE
ENCODING 174
SWIDTH 450 0
DWIDTH 20 0
BBX 17 19 2 13
BITMAP
018000
0E7800
100400
200200
400100
87E100
841080
841080
841080
842080
87C080
844080
842080
841100
400100
400200
300400
081800
07C000
ENDCHAR
STARTCHAR 00AF
ENCODING 175
SWIDTH 585 0
DWIDTH 26 0
BBX 11 1 8 29
BITMAP
FFE0
ENDCHAR
STARTCHAR 00B0
ENCODING 176
SWIDTH 450 0
DWIDTH 20 0
BBX 15 15 3 17
BITMAP
0100
0EE0
3010
6008
4004
8004
8004
8002
8002
8004
4004
4004
2008
3010
0FE0
ENDCHAR
STARTCHAR 00B1
ENCODING 177
SWIDTH 585 0
DWIDTH 26 0
BBX 21 27 3 0
BITMAP
002000
002000
002000
002000
002000
002000
002000
002000
002000
002000
002000
FFFFF0
002000
002000
002000
002000
002000
002000
002000
002000
002000
002000
000000
000000
000000
000000
FFFFF8
ENDCHAR
STARTCHAR 00B2
ENCODING 178
SWIDTH 337 0
DWIDTH 15 0
BBX 11 16 2 15
BITMAP
3F80
4040
8040
8020
0020
0020
0040
0040
0080
0100
0200
0400
0800
3000
4000
FFE0
ENDCHAR
STARTCHAR 00B3
ENCODING 179
SWIDTH 337 0
DWIDTH 15 0
BBX 11 17 2 14
BITMAP
3F80
4040
0040
0040
0040
0040
0040
1F80
0080
0040
0020
0020
0020
0020
8040
6080
1D00
ENDCHAR
STARTCHAR 00B4
ENCODING 180
SWIDTH 585 0
DWIDTH 26 0
BBX 5 7 12 26
BITMAP
08
18
10
20
40
40
80
ENDCHAR
STARTCHAR 00B5
ENCODING 181
SWIDTH 562 0
DWIDTH 25 0
BBX 15 31 5 -9
BITMAP
8002
8002
8002
8002
8002
8002
8002
8002
8002
8002
8002
8002
8002
8002
8002
8002
8002
8002
8002
C006
A00A
9C72
8180
8000
8000
8000
8000
8000
8000
8000
8000
ENDCHAR
STARTCHAR 00B6
ENCODING 182
SWIDTH 585 0
DWIDTH 26 0
BBX 20 38 2 -7
BITMAP
03FFF0
0FC080
3FC080
3FC080
7FC080
7FC080
FFC080
FFC080
FFC080
FFC080
7FC080
7FC080
7FC080
3FC080
1FC080
07C080
004080
004080
004080
004080
004080
004080
004080
004080
004080
004080
004080
004080
004080
004080
004080
004080
004080
004080
004080
004080
004080
004080
ENDCHAR
STARTCHAR 00B7
ENCODING 183
SWIDTH 292 0
DWIDTH 13 0
BBX 3 3 5 12
BITMAP
60
E0
40
ENDCHAR
STARTCHAR 00B8
ENCODING 184
SWIDTH 585 0
DWIDTH 26 0
BBX 7 9 10 -9
BITMAP
10
20
20
3C
02
02
02
82
7C
ENDCHAR
STARTCHAR 00B9
ENCODING 185
SWIDTH 360 0
DWIDTH 16 0
BBX 12 16 2 15
BITMAP
0600
0A00
1200
2200
C200
0200
0200
0200
0200
0200
0200
0200
0200
0200
0200
7FF0
ENDCHAR
STARTCHAR 00BA
ENCODING 186
SWIDTH 360 0
DWIDTH 16 0
BBX 12 15 2 16
BITMAP
1F80
2040
4020
4010
8010
8010
8010
8010
8010
8010
8010
4020
4020
2040
1F80
ENDCHAR
STARTCHAR 00BB
ENCODING 187
SWIDTH 450 0
DWIDTH 20 0
BBX 17 16 2 5
BITMAP
404000
202000
101000
080800
040400
020200
010100
008080
008080
010100
020200
040400
080800
101000
606000
C0C000
ENDCHAR
STARTCHAR 00BC
ENCODING 188
SWIDTH 832 0
DWIDTH 37 0
BBX 35 31 2 0
BITMAP
0600000800
0A00001000
1200002000
2200002000
C200004000
0200008000
0200008000
0200010000
0200010000
0200020000
0200040000
0200040000
0200080000
0200100000
0200100000
0200200300
7DF0400500
0000400900
0000801100
0001001100
0001002100
0002004100
0002008100
0004010100
0008010100
0008020100
001007FFE0
0020000100
0020000100
0040000100
0080000100
ENDCHAR
STARTCHAR 00BD
ENCODING 189
SWIDTH 877 0
DWIDTH 39 0
BBX 35 31 2 0
BITMAP
0600000800
0A00001000
1200002000
2200002000
C200004000
0200008000
0200008000
0200010000
0200010000
0200020000
0200040000
0200040000
0200080000
0200100000
0200100E00
0200203180
7DF0404040
0000408020
0000808020
0001000020
0001000020
0002000040
0002000040
0004000080
0008000100
0008000200
0010000C00
0020001000
0020002000
0040004000
008000FFE0
ENDCHAR
STARTCHAR 00BE
ENCODING 190
SWIDTH 810 0
DWIDTH 36 0
BBX 33 31 2 0
BITMAP
3F80002000
4040004000
0040004000
0040008000
0040018000
0040010000
0040020000
1F80020000
0080040000
0040080000
0020080000
0020100000
0020200000
0020200000
8040400000
6080800C00
1D00801400
0001002400
0001002400
0002004400
0004008400
0004010400
0008010400
0010020400
0010040400
0020080400
00400FFF80
0040000400
0080000400
0100000400
0100000400
ENDCHAR
STARTCHAR 00BF
ENCODING 191
SWIDTH 450 0
DWIDTH 20 0
BBX 17 32 2 -9
BITMAP
00C000
00C000
00C000
000000
000000
000000
000000
000000
008000
008000
008000
008000
008000
008000
008000
038000
0C0000
300000
600000
400000
800000
800000
800000
800000
800000
800080
800100
800100
400200
600400
300800
0FF000
ENDCHAR
STARTCHAR 00C0
ENCODING 192
SWIDTH 585 0
DWIDTH 26 0
BBX 23 41 2 0
BITMAP
010000
008000
004000
002000
002000
001000
000800
000000
000000
000000
003000
002800
002800
004800
004400
004400
008400
008200
008200
010200
010100
030100
020080
020080
040080
040040
040040
080040
080020
080020
1FFFE0
100010
300010
200010
200008
400008
400004
400004
800004
800002
800002
ENDCHAR
STARTCHAR 00C1
ENCODING 193
SWIDTH 585 0
DWIDTH 26 0
BBX 23 41 2 0
BITMAP
000200
000600
000400
000800
001000
001000
002000
000000
000000
000000
003000
002800
002800
004800
004400
004400
008400
008200
008200
010200
010100
030100
020080
020080
040080
040040
040040
080040
080020
080020
1FFFE0
100010
300010
200010
200008
400008
400004
400004
800004
800002
800002
ENDCHAR
STARTCHAR 00C2
ENCODING 194
SWIDTH 585 0
DWIDTH 26 0
BBX 23 41 2 0
BITMAP
003000
006800
00C400
018200
030100
060080
000000
000000
000000
000000
003000
002800
002800
004800
004400
004400
008400
008200
008200
010200
010100
030100
020080
020080
040080
040040
040040
080040
080020
080020
1FFFE0
100010
300010
200010
200008
400008
400004
400004
800004
800002
800002
ENDCHAR
STARTCHAR 00C3
ENCODING 195
SWIDTH 585 0
DWIDTH 26 0
BBX 23 39 2 0
BITMAP
03E000
041040
000F80
000000
000000
000000
000000
000000
003000
002800
002800
004800
004400
004400
008400
008200
008200
010200
010100
030100
020080
020080
040080
040040
040040
080040
080020
080020
1FFFE0
100010
300010
200010
200008
400008
400004
400004
800004
800002
800002
ENDCHAR
STARTCHAR 00C4
ENCODING 196
SWIDTH 585 0
DWIDTH 26 0
BBX 23 39 2 0
BITMAP
000100
030300
010100
000000
000000
000000
000000
000000
003000
002800
002800
004800
004400
004400
008400
008200
008200
010200
010100
030100
020080
020080
040080
040040
040040
080040
080020
080020
1FFFE0
100010
300010
200010
200008
400008
400004
400004
800004
800002
800002
ENDCHAR
STARTCHAR 00C5
ENCODING 197
SWIDTH 585 0
DWIDTH 26 0
BBX 23 42 2 0
BITMAP
007C00
008200
010200
010200
010200
008200
008400
007800
000000
000000
000000
003000
002800
002800
004800
004400
004400
008400
008200
008200
010200
010100
030100
020080
020080
040080
040040
040040
080040
080020
080020
1FFFE0
100010
300010
200010
200008
400008
400004
400004
800004
800002
800002
ENDCHAR
STARTCHAR 00C6
ENCODING 198
SWIDTH 855 0
DWIDTH 38 0
BBX 35 31 0 0
BITMAP
00007FFFE0
0000A00000
0000A00000
0001200000
0001200000
0002200000
0002200000
0004200000
0008200000
0008200000
0010200000
0010200000
0020200000
0020200000
0040200000
00403FFFE0
0080200000
0180200000
0100200000
0200200000
03FFE00000
0400200000
0400200000
0800200000
0800200000
1000200000
1000200000
2000200000
6000200000
4000200000
80003FFFE0
ENDCHAR
STARTCHAR 00C7
ENCODING 199
SWIDTH 607 0
DWIDTH 27 0
BBX 21 41 3 -9
BITMAP
001000
01E700
0600C0
080020
100010
300018
200008
400000
400000
400000
400000
800000
800000
800000
800000
800000
800000
800000
800000
800000
800000
800000
400000
400000
400000
400000
200008
200008
100010
080020
0600C0
01C700
001000
001000
001000
001C00
000200
000100
000100
004200
003C00
ENDCHAR
STARTCHAR 00C8
ENCODING 200
SWIDTH 540 0
DWIDTH 24 0
BBX 17 41 5 0
BITMAP
080000
040000
020000
010000
010000
008000
004000
000000
000000
000000
FFFF80
800000
800000
800000
800000
800000
800000
800000
800000
800000
800000
800000
800000
800000
800000
FFFF00
800000
800000
800000
800000
800000
800000
800000
800000
800000
800000
800000
800000
800000
800000
FFFF80
ENDCHAR
STARTCHAR 00C9
ENCODING 201
SWIDTH 540 0
DWIDTH 24 0
BBX 17 41 5 0
BITMAP
001000
003000
002000
004000
008000
008000
010000
000000
000000
000000
FFFF80
800000
800000
800000
800000
800000
800000
800000
800000
800000
800000
800000
800000
800000
800000
FFFF00
800000
800000
800000
800000
800000
800000
800000
800000
800000
800000
800000
800000
800000
800000
FFFF80
ENDCHAR
STARTCHAR 00CA
ENCODING 202
SWIDTH 540 0
DWIDTH 24 0
BBX 17 41 5 0
BITMAP
018000
034000
062000
0C1000
180800
300400
000000
000000
000000
000000
FFFF80
800000
800000
800000
800000
800000
800000
800000
800000
800000
800000
800000
800000
800000
800000
FFFF00
800000
800000
800000
800000
800000
800000
800000
800000
800000
800000
800000
800000
800000
800000
FFFF80
ENDCHAR
STARTCHAR 00CB
ENCODING 203
SWIDTH 540 0
DWIDTH 24 0
BBX 17 39 5 0
BITMAP
000800
181800
080800
000000
000000
000000
000000
000000
FFFF80
800000
800000
800000
800000
800000
800000
800000
800000
800000
800000
800000
800000
800000
800000
FFFF00
800000
800000
800000
800000
800000
800000
800000
800000
800000
800000
800000
800000
800000
800000
FFFF80
ENDCHAR
STARTCHAR 00CC
ENCODING 204
SWIDTH 360 0
DWIDTH 16 0
BBX 11 41 3 0
BITMAP
4000
2000
1000
1800
0800
0400
0200
0000
0000
0000
FFE0
0400
0400
0400
0400
0400
0400
0400
0400
0400
0400
0400
0400
0400
0400
0400
0400
0400
0400
0400
0400
0400
0400
0400
0400
0400
0400
0400
0400
0400
FFE0
ENDCHAR
STARTCHAR 00CD
ENCODING 205
SWIDTH 360 0
DWIDTH 16 0
BBX 11 41 3 0
BITMAP
0080
0180
0100
0200
0400
0C00
0800
0000
0000
0000
FFE0
0400
0400
0400
0400
0400
0400
0400
0400
0400
0400
0400
0400
0400
0400
0400
0400
0400
0400
0400
0400
0400
0400
0400
0400
0400
0400
0400
0400
0400
FFE0
ENDCHAR
STARTCHAR 00CE
ENCODING 206
SWIDTH 360 0
DWIDTH 16 0
BBX 12 41 2 0
BITMAP
0600
0D00
1880
3040
6020
C010
0000
0000
0000
0000
7FF0
0200
0200
0200
0200
0200
0200
0200
0200
0200
0200
0200
0200
0200
0200
0200
0200
0200
0200
0200
0200
0200
0200
0200
0200
0200
0200
0200
0200
0200
7FF0
ENDCHAR
STARTCHAR 00CF
ENCODING 207
SWIDTH 360 0
DWIDTH 16 0
BBX 11 39 3 0
BITMAP
0040
C0C0
4040
0000
0000
0000
0000
0000
FFE0
0400
0400
0400
0400
0400
0400
0400
0400
0400
0400
0400
0400
0400
0400
0400
0400
0400
0400
0400
0400
0400
0400
0400
0400
0400
0400
0400
0400
0400
FFE0
ENDCHAR
STARTCHAR 00D0
ENCODING 208
SWIDTH 652 0
DWIDTH 29 0
BBX 25 31 1 0
BITMAP
0FFF8000
08007000
08001800
08000400
08000600
08000200
08000100
08000100
08000100
08000080
08000080
08000080
08000080
08000080
FFF80080
08000080
08000080
08000080
08000080
08000080
08000080
08000080
08000100
08000100
08000100
08000200
08000600
08000400
08001800
08006000
0FFF8000
ENDCHAR
STARTCHAR 00D1
ENCODING 209
SWIDTH 675 0
DWIDTH 30 0
BBX 21 39 5 0
BITMAP
07C000
082080
001F00
000000
000000
000000
000000
000000
C00008
C00008
A00008
A00008
900008
880008
880008
840008
860008
820008
810008
810008
808008
804008
804008
802008
803008
801008
800808
800808
800408
800208
800208
800108
800188
800088
800048
800048
800028
800018
800018
ENDCHAR
STARTCHAR 00D2
ENCODING 210
SWIDTH 675 0
DWIDTH 30 0
BBX 24 42 3 -1
BITMAP
008000
004000
002000
002000
001000
000800
000000
000000
000000
000C00
01E380
060060
080010
100008
300004
200004
600002
400002
400002
400001
800001
800001
800001
800001
800001
800001
800001
800001
800001
800001
800001
400001
400002
400002
600002
200004
300004
100008
0C0010
060060
01E380
000400
ENDCHAR
STARTCHAR 00D3
ENCODING 211
SWIDTH 675 0
DWIDTH 30 0
BBX 24 42 3 -1
BITMAP
000100
000200
000600
000400
000800
001000
001000
000000
000000
000C00
01E380
060060
080010
100008
300004
200004
600002
400002
400002
400001
800001
800001
800001
800001
800001
800001
800001
800001
800001
800001
800001
400001
400002
400002
600002
200004
300004
100008
0C0010
060060
01E380
000400
ENDCHAR
STARTCHAR 00D4
ENCODING 212
SWIDTH 675 0
DWIDTH 30 0
BBX 24 42 3 -1
BITMAP
001800
002400
004200
008100
010080
020040
000000
000000
000000
000C00
01E380
060060
080010
100008
300004
200004
600002
400002
400002
400001
800001
800001
800001
800001
800001
800001
800001
800001
800001
800001
800001
400001
400002
400002
600002
200004
300004
100008
0C0010
060060
01E380
000400
ENDCHAR
STARTCHAR 00D5
ENCODING 213
SWIDTH 675 0
DWIDTH 30 0
BBX 24 40 3 -1
BITMAP
01E000
021860
000780
000000
000000
000000
000000
000C00
01E380
060060
080010
100008
300004
200004
600002
400002
400002
400001
800001
800001
800001
800001
800001
800001
800001
800001
800001
800001
800001
400001
400002
400002
600002
200004
300004
100008
0C0010
060060
01E380
000400
ENDCHAR
STARTCHAR 00D6
ENCODING 214
SWIDTH 675 0
DWIDTH 30 0
BBX 24 39 3 0
BITMAP
018180
010000
000000
000000
000000
000000
000C00
01E380
060060
080010
100008
300004
200004
600002
400002
400002
400001
800001
800001
800001
800001
800001
800001
800001
800001
800001
800001
800001
400001
400002
400002
600002
200004
300004
100008
0C0010
060060
01E380
000400
ENDCHAR
STARTCHAR 00D7
ENCODING 215
SWIDTH 585 0
DWIDTH 26 0
BBX 17 17 5 5
BITMAP
800080
400100
200200
100400
080800
041000
022000
014000
008000
014000
022000
041000
080800
100400
200200
400100
800080
ENDCHAR
STARTCHAR 00D8
ENCODING 216
SWIDTH 675 0
DWIDTH 30 0
BBX 24 33 3 -1
BITMAP
000801
01E782
060064
080014
100008
300014
200034
600022
400042
4000C2
400081
800101
800201
800201
800401
800801
800801
801001
802001
806001
804001
808001
410001
410002
420002
240002
240004
180004
100008
3C0010
260060
41C380
C02400
ENDCHAR
STARTCHAR 00D9
ENCODING 217
SWIDTH 630 0
DWIDTH 28 0
BBX 21 42 4 -1
BITMAP
030000
010000
008000
004000
004000
002000
001000
000000
000000
000000
800008
800008
800008
800008
800008
800008
800008
800008
800008
800008
800008
800008
800008
800008
800008
800008
800008
800008
800008
800008
800008
800010
400010
400010
400010
400010
400030
200020
300040
1800C0
070700
00A800
ENDCHAR
STARTCHAR 00DA
ENCODING 218
SWIDTH 630 0
DWIDTH 28 0
BBX 21 42 4 -1
BITMAP
000400
000400
000800
001000
002000
002000
004000
000000
000000
000000
800008
800008
800008
800008
800008
800008
800008
800008
800008
800008
800008
800008
800008
800008
800008
800008
800008
800008
800008
800008
800008
800010
400010
400010
400010
400010
400030
200020
300040
1800C0
070700
00A800
ENDCHAR
STARTCHAR 00DB
ENCODING 219
SWIDTH 630 0
DWIDTH 28 0
BBX 21 42 4 -1
BITMAP
006000
00D000
018800
010400
020200
040100
000000
000000
000000
000000
800008
800008
800008
800008
800008
800008
800008
800008
800008
800008
800008
800008
800008
800008
800008
800008
800008
800008
800008
800008
800008
800010
400010
400010
400010
400010
400030
200020
300040
1800C0
070700
00A800
ENDCHAR
STARTCHAR 00DC
ENCODING 220
SWIDTH 630 0
DWIDTH 28 0
BBX 21 40 4 -1
BITMAP
020200
060700
020200
000000
000000
000000
000000
000000
800008
800008
800008
800008
800008
800008
800008
800008
800008
800008
800008
800008
800008
800008
800008
800008
800008
800008
800008
800008
800008
800010
400010
400010
400010
400010
400030
200020
300040
1800C0
070700
00A800
ENDCHAR
STARTCHAR 00DD
ENCODING 221
SWIDTH 540 0
DWIDTH 24 0
BBX 22 41 1 0
BITMAP
000200
000400
000400
000800
001000
002000
002000
000000
000000
000000
800004
400008
600008
200010
100010
100020
080040
0C0040
040080
020080
020100
010200
018200
008400
004400
004800
003000
003000
001000
001000
001000
001000
001000
001000
001000
001000
001000
001000
001000
001000
001000
ENDCHAR
STARTCHAR 00DE
ENCODING 222
SWIDTH 585 0
DWIDTH 26 0
BBX 19 31 5 0
BITMAP
800000
800000
800000
800000
800000
800000
800000
FFFE00
800180
8000C0
800040
800020
800020
800020
800020
800020
800020
800020
800020
800020
800040
800080
800300
FFFC00
800000
800000
800000
800000
800000
800000
800000
ENDCHAR
STARTCHAR 00DF
ENCODING 223
SWIDTH 630 0
DWIDTH 28 0
BBX 24 34 2 -1
BITMAP
007F80
018040
020020
040010
040010
080008
080008
080008
080008
080008
080008
F801F0
080600
080800
080800
081000
081000
081000
080800
080C00
080700
0800E0
08001C
080002
080001
080001
080001
080001
080001
084001
082001
081002
080E1C
000160
ENDCHAR
STARTCHAR 00E0
ENCODING 224
SWIDTH 517 0
DWIDTH 23 0
BBX 19 34 3 -1
BITMAP
080000
040000
020000
020000
010000
008000
000000
000000
000000
000000
07E000
181800
200400
400200
400200
000200
000200
000200
000200
000200
000200
1FFE00
200200
400200
800200
800200
800200
800200
800200
800200
800600
600A00
38F1E0
040000
ENDCHAR
STARTCHAR 00E1
ENCODING 225
SWIDTH 517 0
DWIDTH 23 0
BBX 19 34 3 -1
BITMAP
001000
002000
006000
004000
008000
010000
010000
000000
000000
000000
07E000
181800
200400
400200
400200
000200
000200
000200
000200
000200
000200
1FFE00
200200
400200
800200
800200
800200
800200
800200
800200
800600
600A00
38F1E0
040000
ENDCHAR
STARTCHAR 00E2
ENCODING 226
SWIDTH 517 0
DWIDTH 23 0
BBX 19 34 3 -1
BITMAP
018000
024000
042000
081000
100800
200400
000000
000000
000000
000000
07E000
181800
200400
400200
400200
000200
000200
000200
000200
000200
000200
1FFE00
200200
400200
800200
800200
800200
800200
800200
800200
800600
600A00
38F1E0
040000
ENDCHAR
STARTCHAR 00E3
ENCODING 227
SWIDTH 517 0
DWIDTH 23 0
BBX 19 32 3 -1
BITMAP
1E0000
218600
007800
000000
000000
000000
000000
000000
07E000
181800
200400
400200
400200
000200
000200
000200
000200
000200
000200
1FFE00
200200
400200
800200
800200
800200
800200
800200
800200
800600
600A00
38F1E0
040000
ENDCHAR
STARTCHAR 00E4
ENCODING 228
SWIDTH 517 0
DWIDTH 23 0
BBX 19 32 3 -1
BITMAP
081800
181800
000000
000000
000000
000000
000000
000000
07E000
181800
200400
400200
400200
000200
000200
000200
000200
000200
000200
1FFE00
200200
400200
800200
800200
800200
800200
800200
800200
800600
600A00
38F1E0
040000
ENDCHAR
STARTCHAR 00E5
ENCODING 229
SWIDTH 517 0
DWIDTH 23 0
BBX 19 35 3 -1
BITMAP
03E000
043000
081000
081000
081000
081000
042000
03C000
000000
000000
000000
07E000
181800
200400
400200
400200
000200
000200
000200
000200
000200
000200
1FFE00
200200
400200
800200
800200
800200
800200
800200
800200
800600
600A00
38F1E0
040000
ENDCHAR
STARTCHAR 00E6
ENCODING 230
SWIDTH 855 0
DWIDTH 38 0
BBX 34 24 2 -1
BITMAP
07F007F000
080C180800
1002200600
2002400200
4001400100
0001800080
0001800080
0001800080
0001000080
0001000040
0001000040
0FFFFFFFC0
3001000000
6001000000
4001000000
4001000000
C001800000
8001800080
4001800080
4002400100
4002200300
200C100600
1C700E3800
030001C000
ENDCHAR
STARTCHAR 00E7
ENCODING 231
SWIDTH 472 0
DWIDTH 21 0
BBX 17 32 3 -9
BITMAP
03F000
0C0C00
300200
200100
400100
400000
800000
800000
800000
800000
800000
800000
800000
800000
800000
800000
800000
800000
400000
400080
200100
100200
0E1C00
01E000
008000
008000
00F000
000800
000800
000800
021800
01F000
ENDCHAR
STARTCHAR 00E8
ENCODING 232
SWIDTH 517 0
DWIDTH 23 0
BBX 18 34 3 -1
BITMAP
040000
020000
030000
010000
008000
004000
004000
000000
000000
000000
03F000
0C0C00
100200
200100
400100
400080
800080
800040
800040
800040
800040
FFFFC0
800000
800000
800000
800000
800000
800040
400080
400080
200100
180200
0E1C00
012000
ENDCHAR
STARTCHAR 00E9
ENCODING 233
SWIDTH 517 0
DWIDTH 23 0
BBX 18 34 3 -1
BITMAP
000800
001000
003000
002000
004000
008000
000000
000000
000000
000000
03F000
0C0C00
100200
200100
400100
400080
800080
800040
800040
800040
800040
FFFFC0
800000
800000
800000
800000
800000
800040
400080
400080
200100
180200
0E1C00
012000
ENDCHAR
STARTCHAR 00EA
ENCODING 234
SWIDTH 517 0
DWIDTH 23 0
BBX 18 34 3 -1
BITMAP
00C000
012000
021000
040800
080400
100200
000000
000000
000000
000000
03F000
0C0C00
100200
200100
400100
400080
800080
800040
800040
800040
800040
FFFFC0
800000
800000
800000
800000
800000
800040
400080
400080
200100
180200
0E1C00
012000
ENDCHAR
STARTCHAR 00EB
ENCODING 235
SWIDTH 517 0
DWIDTH 23 0
BBX 18 32 3 -1
BITMAP
080C00
0C0C00
000000
000000
000000
000000
000000
000000
03F000
0C0C00
100200
200100
400100
400080
800080
800040
800040
800040
800040
FFFFC0
800000
800000
800000
800000
800000
800040
400080
400080
200100
180200
0E1C00
012000
ENDCHAR
STARTCHAR 00EC
ENCODING 236
SWIDTH 225 0
DWIDTH 10 0
BBX 6 33 1 0
BITMAP
80
40
20
20
10
08
04
00
00
00
00
08
08
08
08
08
08
08
08
08
08
08
08
08
08
08
08
08
08
08
08
08
08
ENDCHAR
STARTCHAR 00ED
ENCODING 237
SWIDTH 225 0
DWIDTH 10 0
BBX 5 33 4 0
BITMAP
08
10
10
20
40
80
80
00
00
00
00
40
40
40
40
40
40
40
40
40
40
40
40
40
40
40
40
40
40
40
40
40
40
ENDCHAR
STARTCHAR 00EE
ENCODING 238
SWIDTH 225 0
DWIDTH 10 0
BBX 12 33 -1 0
BITMAP
0600
0900
1080
2040
4020
8010
0000
0000
0000
0000
0000
0200
0200
0200
0200
0200
0200
0200
0200
0200
0200
0200
0200
0200
0200
0200
0200
0200
0200
0200
0200
0200
0200
ENDCHAR
STARTCHAR 00EF
ENCODING 239
SWIDTH 225 0
DWIDTH 10 0
BBX 10 31 0 0
BITMAP
4040
C0C0
0000
0000
0000
0000
0000
0000
0000
0400
0400
0400
0400
0400
0400
0400
0400
0400
0400
0400
0400
0400
0400
0400
0400
0400
0400
0400
0400
0400
0400
ENDCHAR
STARTCHAR 00F0
ENCODING 240
SWIDTH 540 0
DWIDTH 24 0
BBX 18 34 3 -1
BITMAP
040600
030800
00B000
004000
00A000
031000
040800
000800
000400
000200
000200
07F900
080500
300280
200180
400080
4000C0
800040
800040
800040
800040
800040
800040
800040
800040
800040
800040
800080
400080
400100
200100
180600
061800
012000
ENDCHAR
STARTCHAR 00F1
ENCODING 241
SWIDTH 540 0
DWIDTH 24 0
BBX 15 31 5 0
BITMAP
3E00
4184
0078
0000
0000
0000
0000
0000
0FE0
9018
A004
C004
8002
8002
8002
8002
8002
8002
8002
8002
8002
8002
8002
8002
8002
8002
8002
8002
8002
8002
8002
ENDCHAR
STARTCHAR 00F2
ENCODING 242
SWIDTH 540 0
DWIDTH 24 0
BBX 18 34 3 -1
BITMAP
040000
020000
030000
010000
008000
004000
004000
000000
000000
000000
03F000
0C0C00
300200
200100
400080
400080
800040
800040
800040
800040
800040
800040
800040
800040
800040
800040
800040
800040
400080
400080
200100
100200
0E1C00
012000
ENDCHAR
STARTCHAR 00F3
ENCODING 243
SWIDTH 540 0
DWIDTH 24 0
BBX 18 34 3 -1
BITMAP
000800
001000
003000
002000
004000
008000
008000
000000
000000
000000
03F000
0C0C00
300200
200100
400080
400080
800040
800040
800040
800040
800040
800040
800040
800040
800040
800040
800040
800040
400080
400080
200100
100200
0E1C00
012000
ENDCHAR
STARTCHAR 00F4
ENCODING 244
SWIDTH 540 0
DWIDTH 24 0
BBX 18 34 3 -1
BITMAP
00C000
012000
021000
040800
080400
100200
000000
000000
000000
000000
03F000
0C0C00
300200
200100
400080
400080
800040
800040
800040
800040
800040
800040
800040
800040
800040
800040
800040
800040
400080
400080
200100
100200
0E1C00
012000
ENDCHAR
STARTCHAR 00F5
ENCODING 245
SWIDTH 540 0
DWIDTH 24 0
BBX 18 32 3 -1
BITMAP
0F0000
30C300
003C00
000000
000000
000000
000000
000000
03F000
0C0C00
300200
200100
400080
400080
800040
800040
800040
800040
800040
800040
800040
800040
800040
800040
800040
800040
400080
400080
200100
100200
0E1C00
012000
ENDCHAR
STARTCHAR 00F6
ENCODING 246
SWIDTH 540 0
DWIDTH 24 0
BBX 18 32 3 -1
BITMAP
0C0400
0C0C00
000000
000000
000000
000000
000000
000000
03F000
0C0C00
300200
200100
400080
400080
800040
800040
800040
800040
800040
800040
800040
800040
800040
800040
800040
800040
400080
400080
200100
100200
0E1C00
012000
ENDCHAR
STARTCHAR 00F7
ENCODING 247
SWIDTH 585 0
DWIDTH 26 0
BBX 21 20 3 4
BITMAP
002000
007000
007000
000000
000000
000000
000000
000000
000000
000000
FFFFF8
000000
000000
000000
000000
000000
000000
000000
007000
007000
ENDCHAR
STARTCHAR 00F8
ENCODING 248
SWIDTH 540 0
DWIDTH 24 0
BBX 20 25 2 -1
BITMAP
000010
01F810
060620
0801C0
100080
200140
200340
400220
400420
400820
401020
402020
402020
404020
408020
410020
420020
420020
240020
280040
100040
300080
2C0100
430E00
809000
ENDCHAR
STARTCHAR 00F9
ENCODING 249
SWIDTH 540 0
DWIDTH 24 0
BBX 16 33 4 -1
BITMAP
0800
0400
0200
0200
0100
0080
0040
0000
0000
0000
0000
8001
8001
8001
8001
8001
8001
8001
8001
8001
8001
8001
8001
8001
8001
8001
8001
8001
4001
4003
2005
3005
0E79
ENDCHAR
STARTCHAR 00FA
ENCODING 250
SWIDTH 540 0
DWIDTH 24 0
BBX 16 33 4 -1
BITMAP
0010
0020
0020
0040
0080
0100
0100
0000
0000
0000
0000
8001
8001
8001
8001
8001
8001
8001
8001
8001
8001
8001
8001
8001
8001
8001
8001
8001
4001
4003
2005
3005
0E79
ENDCHAR
STARTCHAR 00FB
ENCODING 251
SWIDTH 540 0
DWIDTH 24 0
BBX 16 33 4 -1
BITMAP
0180
0240
0420
0810
1008
2004
0000
0000
0000
0000
0000
8001
8001
8001
8001
8001
8001
8001
8001
8001
8001
8001
8001
8001
8001
8001
8001
8001
4001
4003
2005
3005
0E79
ENDCHAR
STARTCHAR 00FC
ENCODING 252
SWIDTH 540 0
DWIDTH 24 0
BBX 16 31 4 -1
BITMAP
0808
1818
0000
0000
0000
0000
0000
0000
0000
8001
8001
8001
8001
8001
8001
8001
8001
8001
8001
8001
8001
8001
8001
8001
8001
8001
4001
4003
2005
3005
0E79
ENDCHAR
STARTCHAR 00FD
ENCODING 253
SWIDTH 450 0
DWIDTH 20 0
BBX 18 42 1 -9
BITMAP
000800
001000
001000
002000
004000
008000
008000
000000
000000
000000
000000
800040
400080
400080
200080
200100
200100
100200
100200
100200
080400
080400
040400
040800
040800
021000
021000
021000
012000
012000
012000
00C000
00C000
008000
008000
008000
010000
010000
010000
020000
020000
3C0000
ENDCHAR
STARTCHAR 00FE
ENCODING 254
SWIDTH 562 0
DWIDTH 25 0
BBX 17 42 5 -9
BITMAP
800000
800000
800000
800000
800000
800000
800000
800000
800000
800000
87E000
981800
A00600
C00200
800100
800100
800080
800080
800080
800080
800080
800080
800080
800080
800080
800080
800080
800080
800100
800100
C00200
B00400
8E3800
804000
800000
800000
800000
800000
800000
800000
800000
800000
ENDCHAR
STARTCHAR 00FF
ENCODING 255
SWIDTH 450 0
DWIDTH 20 0
BBX 18 40 1 -9
BITMAP
040400
0C0C00
000000
000000
000000
000000
000000
000000
000000
800040
400080
400080
200080
200100
200100
100200
100200
100200
080400
080400
040400
040800
040800
021000
021000
021000
012000
012000
012000
00C000
00C000
008000
008000
008000
010000
010000
010000
020000
020000
3C0000
ENDCHAR
STARTCHAR 0100
ENCODING 256
SWIDTH 585 0
DWIDTH 26 0
BBX 23 38 2 0
BITMAP
03FF80
000000
000000
000000
000000
000000
000000
003000
002800
002800
004800
004400
004400
008400
008200
008200
010200
010100
030100
020080
020080
040080
040040
040040
080040
080020
080020
1FFFE0
100010
300010
200010
200008
400008
400004
400004
800004
800002
800002
ENDCHAR
STARTCHAR 0101
ENCODING 257
SWIDTH 517 0
DWIDTH 23 0
BBX 19 31 3 -1
BITMAP
3FFC00
000000
000000
000000
000000
000000
000000
07E000
181800
200400
400200
400200
000200
000200
000200
000200
000200
000200
1FFE00
200200
400200
800200
800200
800200
800200
800200
800200
800600
600A00
38F1E0
040000
ENDCHAR
STARTCHAR 0102
ENCODING 258
SWIDTH 585 0
DWIDTH 26 0
BBX 23 40 2 0
BITMAP
020080
020100
010100
008200
007C00
000000
000000
000000
000000
003000
002800
002800
004800
004400
004400
008400
008200
008200
010200
010100
030100
020080
020080
040080
040040
040040
080040
080020
080020
1FFFE0
100010
300010
200010
200008
400008
400004
400004
800004
800002
800002
ENDCHAR
STARTCHAR 0103
ENCODING 259
SWIDTH 517 0
DWIDTH 23 0
BBX 19 33 3 -1
BITMAP
200400
100800
081800
0C1000
03C000
000000
000000
000000
000000
07E000
181800
200400
400200
400200
000200
000200
000200
000200
000200
000200
1FFE00
200200
400200
800200
800200
800200
800200
800200
800200
800600
600A00
38F1E0
040000
ENDCHAR
STARTCHAR 0104
ENCODING 260
SWIDTH 585 0
DWIDTH 26 0
BBX 24 40 2 -9
BITMAP
003000
002800
002800
004800
004400
004400
008400
008200
008200
010200
010100
030100
020080
020080
040080
040040
040040
080040
080020
080020
1FFFE0
100010
300010
200008
200008
400008
400004
400004
800004
800002
800002
000004
000008
000010
000020
000020
000040
000040
000021
00001E
ENDCHAR
STARTCHAR 0105
ENCODING 261
SWIDTH 517 0
DWIDTH 23 0
BBX 20 32 3 -9
BITMAP
07E000
181800
200400
400200
400200
000200
000200
000200
000200
000200
000200
1FFE00
200200
400200
800200
800200
800200
800200
800200
800200
800600
600A00
38F1E0
040040
000080
000100
000200
000400
000400
000400
000410
0003E0
ENDCHAR
STARTCHAR 0106
ENCODING 262
SWIDTH 607 0
DWIDTH 27 0
BBX 21 42 3 -1
BITMAP
000300
000200
000400
000800
000800
001000
002000
000000
000000
001000
01E700
0600C0
080020
100010
300018
200008
400000
400000
400000
400000
800000
800000
800000
800000
800000
800000
800000
800000
800000
800000
800000
400000
400000
400000
400000
200008
200008
100010
080020
0600C0
01C700
003000
ENDCHAR
STARTCHAR 0107
ENCODING 263
SWIDTH 472 0
DWIDTH 21 0
BBX 17 34 3 -1
BITMAP
000800
001000
003000
002000
004000
008000
008000
000000
000000
000000
03F000
0C0C00
300200
200100
400100
400000
800000
800000
800000
800000
800000
800000
800000
800000
800000
800000
800000
800000
400000
400080
200100
100200
0E1C00
012000
ENDCHAR
STARTCHAR 0108
ENCODING 264
SWIDTH 607 0
DWIDTH 27 0
BBX 21 42 3 -1
BITMAP
001800
002C00
004600
008300
010180
020080
000000
000000
000000
001000
01E700
0600C0
080020
100010
300018
200008
400000
400000
400000
400000
800000
800000
800000
800000
800000
800000
800000
800000
800000
800000
800000
400000
400000
400000
400000
200008
200008
100010
080020
0600C0
01C700
003000
ENDCHAR
STARTCHAR 0109
ENCODING 265
SWIDTH 472 0
DWIDTH 21 0
BBX 17 34 3 -1
BITMAP
00C000
012000
021000
040800
080400
100200
000000
000000
000000
000000
03F000
0C0C00
300200
200100
400100
400000
800000
800000
800000
800000
800000
800000
800000
800000
800000
800000
800000
800000
400000
400080
200100
100200
0E1C00
012000
ENDCHAR
STARTCHAR 010A
ENCODING 266
SWIDTH 607 0
DWIDTH 27 0
BBX 21 40 3 -1
BITMAP
001000
001800
000000
000000
000000
000000
000000
001000
01E700
0600C0
080020
100010
300018
200008
400000
400000
400000
400000
800000
800000
800000
800000
800000
800000
800000
800000
800000
800000
800000
400000
400000
400000
400000
200008
200008
100010
080020
0600C0
01C700
003000
ENDCHAR
STARTCHAR 010B
ENCODING 267
SWIDTH 472 0
DWIDTH 21 0
BBX 17 32 3 -1
BITMAP
00C000
00C000
000000
000000
000000
000000
000000
000000
03F000
0C0C00
300200
200100
400100
400000
800000
800000
800000
800000
800000
800000
800000
800000
800000
800000
800000
800000
400000
400080
200100
100200
0E1C00
012000
ENDCHAR
STARTCHAR 010C
ENCODING 268
SWIDTH 607 0
DWIDTH 27 0
BBX 21 42 3 -1
BITMAP
020040
010080
018100
00C200
006400
003800
000000
000000
000000
001000
01E700
0600C0
080020
100010
300018
200008
400000
400000
400000
400000
800000
800000
800000
800000
800000
800000
800000
800000
800000
800000
800000
400000
400000
400000
400000
200008
200008
100010
080020
0600C0
01C700
003000
ENDCHAR
STARTCHAR 010D
ENCODING 269
SWIDTH 472 0
DWIDTH 21 0
BBX 17 34 3 -1
BITMAP
100200
080400
040800
021000
012000
00C000
000000
000000
000000
000000
03F000
0C0C00
300200
200100
400100
400000
800000
800000
800000
800000
800000
800000
800000
800000
800000
800000
800000
800000
400000
400080
200100
100200
0E1C00
012000
ENDCHAR
STARTCHAR 010E
ENCODING 270
SWIDTH 652 0
DWIDTH 29 0
BBX 21 41 5 0
BITMAP
200400
100800
081000
042000
026000
01C000
000000
000000
000000
000000
FFF800
800600
800180
8000C0
800060
800020
800010
800010
800010
800008
800008
800008
800008
800008
800008
800008
800008
800008
800008
800008
800008
800008
800010
800010
800010
800020
800060
8000C0
800180
800600
FFF800
ENDCHAR
STARTCHAR 010F
ENCODING 271
SWIDTH 562 0
DWIDTH 25 0
BBX 23 34 3 -1
BITMAP
000002
000082
000082
000082
000082
000084
000084
000084
000080
000080
03F080
0C0C80
100280
200180
400080
400080
800080
800080
800080
800080
800080
800080
800080
800080
800080
800080
800080
800080
400080
400080
200180
180280
0E3C80
010000
ENDCHAR
STARTCHAR 0110
ENCODING 272
SWIDTH 652 0
DWIDTH 29 0
BBX 25 31 1 0
BITMAP
0FFF8000
08007000
08001800
08000400
08000600
08000200
08000100
08000100
08000100
08000080
08000080
08000080
08000080
08000080
FFF80080
08000080
08000080
08000080
08000080
08000080
08000080
08000080
08000100
08000100
08000100
08000200
08000600
08000400
08001800
08006000
0FFF8000
ENDCHAR
STARTCHAR 0111
ENCODING 273
SWIDTH 562 0
DWIDTH 25 0
BBX 20 33 3 0
BITMAP
000080
000080
000080
007FF0
000080
000080
000080
000080
000080
03F080
0C0C80
100280
200180
400080
400080
800080
800080
800080
800080
800080
800080
800080
800080
800080
800080
800080
800080
400080
400080
200180
180280
0E3C80
010000
ENDCHAR
STARTCHAR 0112
ENCODING 274
SWIDTH 540 0
DWIDTH 24 0
BBX 17 38 5 0
BITMAP
1FFC00
000000
000000
000000
000000
000000
000000
FFFF80
800000
800000
800000
800000
800000
800000
800000
800000
800000
800000
800000
800000
800000
800000
FFFF00
800000
800000
800000
800000
800000
800000
800000
800000
800000
800000
800000
800000
800000
800000
FFFF80
ENDCHAR
STARTCHAR 0113
ENCODING 275
SWIDTH 517 0
DWIDTH 23 0
BBX 18 31 3 -1
BITMAP
1FFE00
000000
000000
000000
000000
000000
000000
03F000
0C0C00
100200
200100
400100
400080
800080
800040
800040
800040
800040
FFFFC0
800000
800000
800000
800000
800000
800040
400080
400080
200100
180200
0E1C00
012000
ENDCHAR
STARTCHAR 0114
ENCODING 276
SWIDTH 540 0
DWIDTH 24 0
BBX 17 40 5 0
BITMAP
100400
100800
080800
041000
03E000
000000
000000
000000
000000
FFFF80
800000
800000
800000
800000
800000
800000
800000
800000
800000
800000
800000
800000
800000
800000
FFFF00
800000
800000
800000
800000
800000
800000
800000
800000
800000
800000
800000
800000
800000
800000
FFFF80
ENDCHAR
STARTCHAR 0115
ENCODING 277
SWIDTH 517 0
DWIDTH 23 0
BBX 18 33 3 -1
BITMAP
100200
080400
040800
061800
01E000
000000
000000
000000
000000
03F000
0C0C00
100200
200100
400100
400080
800080
800040
800040
800040
800040
FFFFC0
800000
800000
800000
800000
800000
800040
400080
400080
200100
180200
0E1C00
012000
ENDCHAR
STARTCHAR 0116
ENCODING 278
SWIDTH 540 0
DWIDTH 24 0
BBX 17 39 5 0
BITMAP
008000
018000
000000
000000
000000
000000
000000
000000
FFFF80
800000
800000
800000
800000
800000
800000
800000
800000
800000
800000
800000
800000
800000
800000
FFFF00
800000
800000
800000
800000
800000
800000
800000
800000
800000
800000
800000
800000
800000
800000
FFFF80
ENDCHAR
STARTCHAR 0117
ENCODING 279
SWIDTH 517 0
DWIDTH 23 0
BBX 18 32 3 -1
BITMAP
008000
00C000
000000
000000
000000
000000
000000
000000
03F000
0C0C00
100200
200100
400100
400080
800080
800040
800040
800040
800040
FFFFC0
800000
800000
800000
800000
800000
800040
400080
400080
200100
180200
0E1C00
012000
ENDCHAR
STARTCHAR 0118
ENCODING 280
SWIDTH 540 0
DWIDTH 24 0
BBX 17 40 5 -9
BITMAP
FFFF80
800000
800000
800000
800000
800000
800000
800000
800000
800000
800000
800000
800000
800000
800000
FFFF00
800000
800000
800000
800000
800000
800000
800000
800000
800000
800000
800000
800000
800000
800000
FFFF80
000100
000600
000800
001000
001000
002000
002000
001080
000F00
ENDCHAR
STARTCHAR 0119
ENCODING 281
SWIDTH 517 0
DWIDTH 23 0
BBX 18 32 3 -9
BITMAP
03F000
0C0C00
100200
200100
400100
400080
800080
800040
800040
800040
800040
FFFFC0
800000
800000
800000
800000
800000
800040
400080
400080
200100
180200
0E1C00
013000
002000
004000
008000
008000
010000
010000
008400
007800
ENDCHAR
STARTCHAR 011A
ENCODING 282
SWIDTH 540 0
DWIDTH 24 0
BBX 17 41 5 0
BITMAP
200400
100800
081000
042000
026000
01C000
000000
000000
000000
000000
FFFF80
800000
800000
800000
800000
800000
800000
800000
800000
800000
800000
800000
800000
800000
800000
FFFF00
800000
800000
800000
800000
800000
800000
800000
800000
800000
800000
800000
800000
800000
800000
FFFF80
ENDCHAR
STARTCHAR 011B
ENCODING 283
SWIDTH 517 0
DWIDTH 23 0
BBX 18 34 3 -1
BITMAP
100200
080400
040800
021000
012000
00C000
000000
000000
000000
000000
03F000
0C0C00
100200
200100
400100
400080
800080
800040
800040
800040
800040
FFFFC0
800000
800000
800000
800000
800000
800040
400080
400080
200100
180200
0E1C00
012000
ENDCHAR
STARTCHAR 011C
ENCODING 284
SWIDTH 652 0
DWIDTH 29 0
BBX 23 42 3 -1
BITMAP
001800
002400
004200
008100
010080
020040
000000
000000
000000
000000
01E780
060060
080010
100008
30000C
200004
600000
400000
400000
400000
800000
800000
800000
800000
800000
800000
8003FE
800002
800002
800002
800002
400002
400002
400002
600002
200006
300006
10000A
0C0012
060062
01E382
000400
ENDCHAR
STARTCHAR 011D
ENCODING 285
SWIDTH 517 0
DWIDTH 23 0
BBX 20 42 2 -9
BITMAP
006000
009000
010800
020C00
040600
080300
000000
000000
000000
000000
03F800
0407F0
080100
100100
200080
200080
200080
200080
200080
200080
200080
100100
080100
040600
03F800
0C0000
100000
200000
200000
100000
1C0000
0FFFC0
300020
400010
400010
800010
800010
800010
400010
400020
3000C0
0FFF00
ENDCHAR
STARTCHAR 011E
ENCODING 286
SWIDTH 652 0
DWIDTH 29 0
BBX 23 41 3 -1
BITMAP
020040
010080
008180
00C100
003C00
000000
000000
000000
000000
01E780
060060
080010
100008
30000C
200004
600000
400000
400000
400000
800000
800000
800000
800000
800000
800000
8003FE
800002
800002
800002
800002
400002
400002
400002
600002
200006
300006
10000A
0C0012
060062
01E382
000400
ENDCHAR
STARTCHAR 011F
ENCODING 287
SWIDTH 517 0
DWIDTH 23 0
BBX 20 41 2 -9
BITMAP
080200
040200
040400
020800
01F000
000000
000000
000000
000000
03F800
0407F0
080100
100100
200080
200080
200080
200080
200080
200080
200080
100100
080100
040600
03F800
0C0000
100000
200000
200000
100000
1C0000
0FFFC0
300020
400010
400010
800010
800010
800010
400010
400020
3000C0
0FFF00
ENDCHAR
STARTCHAR 0120
ENCODING 288
SWIDTH 652 0
DWIDTH 29 0
BBX 23 40 3 -1
BITMAP
000800
001800
000000
000000
000000
000000
000000
000000
01E780
060060
080010
100008
30000C
200004
600000
400000
400000
400000
800000
800000
800000
800000
800000
800000
8003FE
800002
800002
800002
800002
400002
400002
400002
600002
200006
300006
10000A
0C0012
060062
01E382
000400
ENDCHAR
STARTCHAR 0121
ENCODING 289
SWIDTH 517 0
DWIDTH 23 0
BBX 20 40 2 -9
BITMAP
004000
006000
000000
000000
000000
000000
000000
000000
03F800
0407F0
080100
100100
200080
200080
200080
200080
200080
200080
200080
100100
080100
040600
03F800
0C0000
100000
200000
200000
100000
1C0000
0FFFC0
300020
400010
400010
800010
800010
800010
400010
400020
3000C0
0FFF00
ENDCHAR
STARTCHAR 0122
ENCODING 290
SWIDTH 652 0
DWIDTH 29 0
BBX 23 40 3 -8
BITMAP
01E780
060060
080010
100008
30000C
200004
600000
400000
400000
400000
800000
800000
800000
800000
800000
800000
8003FE
800002
800002
800002
800002
400002
400002
400002
600002
200006
300006
10000A
0C0012
060062
01E382
000400
000000
000000
001800
001800
000800
000800
001000
001000
ENDCHAR
STARTCHAR 0123
ENCODING 291
SWIDTH 517 0
DWIDTH 23 0
BBX 20 42 2 -9
BITMAP
002000
004000
004000
004000
006000
006000
000000
000000
000000
000000
03F800
0407F0
080100
100100
200080
200080
200080
200080
200080
200080
200080
100100
080100
040600
03F800
0C0000
100000
200000
200000
100000
1C0000
0FFFC0
300020
400010
400010
800010
800010
800010
400010
400020
3000C0
0FFF00
ENDCHAR
STARTCHAR 0124
ENCODING 292
SWIDTH 675 0
DWIDTH 30 0
BBX 21 41 5 0
BITMAP
006000
00D000
018800
030400
060200
040100
000000
000000
000000
000000
800008
800008
800008
800008
800008
800008
800008
800008
800008
800008
800008
800008
800008
800008
800008
FFFFF8
800008
800008
800008
800008
800008
800008
800008
800008
800008
800008
800008
800008
800008
800008
800008
ENDCHAR
STARTCHAR 0125
ENCODING 293
SWIDTH 540 0
DWIDTH 24 0
BBX 21 40 -1 0
BITMAP
060000
090000
108000
204000
402000
801000
000000
020000
020000
020000
020000
020000
020000
020000
020000
020000
020000
023F80
024060
028010
030010
020008
020008
020008
020008
020008
020008
020008
020008
020008
020008
020008
020008
020008
020008
020008
020008
020008
020008
020008
ENDCHAR
STARTCHAR 0126
ENCODING 294
SWIDTH 697 0
DWIDTH 31 0
BBX 29 31 1 0
BITMAP
08000080
08000080
08000080
08000080
08000080
08000080
FFFFFFF8
08000080
08000080
08000080
08000080
08000080
08000080
08000080
08000080
0FFFFF80
08000080
08000080
08000080
08000080
08000080
08000080
08000080
08000080
08000080
08000080
08000080
08000080
08000080
08000080
08000080
ENDCHAR
STARTCHAR 0127
ENCODING 295
SWIDTH 540 0
DWIDTH 24 0
BBX 19 33 2 0
BITMAP
100000
100000
100000
100000
FFE000
100000
100000
100000
100000
100000
10FC00
130300
140080
1800C0
100040
100040
100040
100020
100020
100020
100020
100020
100020
100020
100020
100020
100020
100020
100020
100020
100020
100020
100020
ENDCHAR
STARTCHAR 0128
ENCODING 296
SWIDTH 360 0
DWIDTH 16 0
BBX 13 39 2 0
BITMAP
7800
8608
01F0
0000
0000
0000
0000
0000
7FF0
0200
0200
0200
0200
0200
0200
0200
0200
0200
0200
0200
0200
0200
0200
0200
0200
0200
0200
0200
0200
0200
0200
0200
0200
0200
0200
0200
0200
0200
7FF0
ENDCHAR
STARTCHAR 0129
ENCODING 297
SWIDTH 225 0
DWIDTH 10 0
BBX 13 31 -1 0
BITMAP
7800
8618
01E0
0000
0000
0000
0000
0000
0000
0200
0200
0200
0200
0200
0200
0200
0200
0200
0200
0200
0200
0200
0200
0200
0200
0200
0200
0200
0200
0200
0200
ENDCHAR
STARTCHAR 012A
ENCODING 298
SWIDTH 360 0
DWIDTH 16 0
BBX 11 38 3 0
BITMAP
FFE0
0000
0000
0000
0000
0000
0000
FFE0
0400
0400
0400
0400
0400
0400
0400
0400
0400
0400
0400
0400
0400
0400
0400
0400
0400
0400
0400
0400
0400
0400
0400
0400
0400
0400
0400
0400
0400
FFE0
ENDCHAR
STARTCHAR 012B
ENCODING 299
SWIDTH 225 0
DWIDTH 10 0
BBX 12 30 -1 0
BITMAP
FFF0
0000
0000
0000
0000
0000
0000
0000
0200
0200
0200
0200
0200
0200
0200
0200
0200
0200
0200
0200
0200
0200
0200
0200
0200
0200
0200
0200
0200
0200
ENDCHAR
STARTCHAR 012C
ENCODING 300
SWIDTH 360 0
DWIDTH 16 0
BBX 11 40 3 0
BITMAP
8020
8040
4040
2080
1F00
0000
0000
0000
0000
FFE0
0400
0400
0400
0400
0400
0400
0400
0400
0400
0400
0400
0400
0400
0400
0400
0400
0400
0400
0400
0400
0400
0400
0400
0400
0400
0400
0400
0400
0400
FFE0
ENDCHAR
STARTCHAR 012D
ENCODING 301
SWIDTH 225 0
DWIDTH 10 0
BBX 11 32 0 0
BITMAP
8020
8040
4040
6080
1F00
0000
0000
0000
0000
0000
0400
0400
0400
0400
0400
0400
0400
0400
0400
0400
0400
0400
0400
0400
0400
0400
0400
0400
0400
0400
0400
0400
ENDCHAR
STARTCHAR 012E
ENCODING 302
SWIDTH 360 0
DWIDTH 16 0
BBX 11 40 3 -9
BITMAP
FFE0
0400
0400
0400
0400
0400
0400
0400
0400
0400
0400
0400
0400
0400
0400
0400
0400
0400
0400
0400
0400
0400
0400
0400
0400
0400
0400
0400
0400
0400
FFE0
0040
0180
0200
0400
0800
0800
0800
0420
03C0
ENDCHAR
STARTCHAR 012F
ENCODING 303
SWIDTH 225 0
DWIDTH 10 0
BBX 6 41 1 -9
BITMAP
18
18
00
00
00
00
00
00
00
00
08
08
08
08
08
08
08
08
08
08
08
08
08
08
08
08
08
08
08
08
08
08
10
20
40
80
80
80
80
84
78
ENDCHAR
STARTCHAR 0130
ENCODING 304
SWIDTH 360 0
DWIDTH 16 0
BBX 11 39 3 0
BITMAP
0400
0C00
0000
0000
0000
0000
0000
0000
FFE0
0400
0400
0400
0400
0400
0400
0400
0400
0400
0400
0400
0400
0400
0400
0400
0400
0400
0400
0400
0400
0400
0400
0400
0400
0400
0400
0400
0400
0400
FFE0
ENDCHAR
STARTCHAR 0131
ENCODING 305
SWIDTH 225 0
DWIDTH 10 0
BBX 1 22 5 0
BITMAP
80
80
80
80
80
80
80
80
80
80
80
80
80
80
80
80
80
80
80
80
80
80
ENDCHAR
STARTCHAR 0132
ENCODING 306
SWIDTH 630 0
DWIDTH 28 0
BBX 20 32 4 -1
BITMAP
803FF0
800010
800010
800010
800010
800010
800010
800010
800010
800010
800010
800010
800010
800010
800010
800010
800010
800010
000010
000010
000010
000010
000010
000010
000020
800020
400020
400040
2000C0
180180
0F0E00
00D000
ENDCHAR
STARTCHAR 0133
ENCODING 307
SWIDTH 450 0
DWIDTH 20 0
BBX 12 41 4 -9
BITMAP
C030
C030
0000
0000
0000
0000
0000
0000
0000
0000
4010
4010
4010
4010
4010
4010
4010
4010
4010
4010
4010
4010
4010
4010
4010
4010
4010
4010
4010
4010
4010
4010
0010
0010
0010
0010
0010
0010
0010
0010
01F0
ENDCHAR
STARTCHAR 0134
ENCODING 308
SWIDTH 450 0
DWIDTH 20 0
BBX 15 42 1 -1
BITMAP
00C0
01A0
0310
0608
0C04
1802
0000
0000
0000
0000
1FFE
0002
0002
0002
0002
0002
0002
0002
0002
0002
0002
0002
0002
0002
0002
0002
0002
0002
0002
0002
0002
0002
0002
0002
0002
0002
8002
4004
4004
3008
1E70
0180
ENDCHAR
STARTCHAR 0135
ENCODING 309
SWIDTH 225 0
DWIDTH 10 0
BBX 12 42 -1 -9
BITMAP
0600
0900
1080
2040
4020
8010
0000
0000
0000
0000
0000
0200
0200
0200
0200
0200
0200
0200
0200
0200
0200
0200
0200
0200
0200
0200
0200
0200
0200
0200
0200
0200
0200
0200
0200
0200
0200
0200
0200
0200
0200
3C00
ENDCHAR
STARTCHAR 0136
ENCODING 310
SWIDTH 562 0
DWIDTH 25 0
BBX 19 40 5 -9
BITMAP
800020
800040
800080
800100
800200
800400
800800
801800
803000
806000
804000
808000
810000
830000
850000
888000
904000
A04000
E02000
C01000
801000
800800
800400
800400
800200
800100
800180
800080
800040
800060
800020
000000
000000
000000
00C000
00C000
004000
004000
008000
008000
ENDCHAR
STARTCHAR 0137
ENCODING 311
SWIDTH 472 0
DWIDTH 21 0
BBX 16 42 5 -9
BITMAP
8000
8000
8000
8000
8000
8000
8000
8000
8000
8000
8000
800C
8018
8030
8060
80C0
8180
8300
8600
8C00
9C00
B400
E200
C100
8080
8040
8060
8020
8010
8008
8004
8002
8003
0000
0000
0000
0300
0300
0100
0100
0200
0200
ENDCHAR
STARTCHAR 0138
ENCODING 312
SWIDTH 472 0
DWIDTH 21 0
BBX 16 22 5 0
BITMAP
8006
8008
8010
8020
8040
8080
8100
8200
8400
8800
9400
A200
C100
8180
80C0
8040
8020
8010
8008
8004
8006
8003
ENDCHAR
STARTCHAR 0139
ENCODING 313
SWIDTH 472 0
DWIDTH 21 0
BBX 16 41 4 0
BITMAP
0800
1800
1000
2000
4000
4000
8000
0000
0000
0000
4000
4000
4000
4000
4000
4000
4000
4000
4000
4000
4000
4000
4000
4000
4000
4000
4000
4000
4000
4000
4000
4000
4000
4000
4000
4000
4000
4000
4000
4000
7FFF
ENDCHAR
STARTCHAR 013A
ENCODING 314
SWIDTH 247 0
DWIDTH 11 0
BBX 5 42 4 0
BITMAP
08
18
10
20
40
C0
80
00
00
40
40
40
40
40
40
40
40
40
40
40
40
40
40
40
40
40
40
40
40
40
40
40
40
40
40
40
40
40
40
40
40
78
ENDCHAR
STARTCHAR 013B
ENCODING 315
SWIDTH 472 0
DWIDTH 21 0
BBX 15 40 5 -9
BITMAP
8000
8000
8000
8000
8000
8000
8000
8000
8000
8000
8000
8000
8000
8000
8000
8000
8000
8000
8000
8000
8000
8000
8000
8000
8000
8000
8000
8000
8000
8000
FFFE
0000
0000
0000
0180
0180
0080
0080
0100
0100
ENDCHAR
STARTCHAR 013C
ENCODING 316
SWIDTH 247 0
DWIDTH 11 0
BBX 4 42 5 -9
BITMAP
80
80
80
80
80
80
80
80
80
80
80
80
80
80
80
80
80
80
80
80
80
80
80
80
80
80
80
80
80
80
80
80
F0
00
00
00
60
60
20
20
40
40
ENDCHAR
STARTCHAR 013D
ENCODING 317
SWIDTH 472 0
DWIDTH 21 0
BBX 15 33 5 0
BITMAP
0200
0200
8200
8200
8200
8400
8400
8400
8000
8000
8000
8000
8000
8000
8000
8000
8000
8000
8000
8000
8000
8000
8000
8000
8000
8000
8000
8000
8000
8000
8000
8000
FFFE
ENDCHAR
STARTCHAR 013E
ENCODING 318
SWIDTH 247 0
DWIDTH 11 0
BBX 7 33 5 0
BITMAP
86
84
84
84
84
84
84
84
80
80
80
80
80
80
80
80
80
80
80
80
80
80
80
80
80
80
80
80
80
80
80
80
F0
ENDCHAR
STARTCHAR 013F
ENCODING 319
SWIDTH 472 0
DWIDTH 21 0
BBX 15 31 5 0
BITMAP
8000
8000
8000
8000
8000
8000
8000
8000
8000
8000
8000
8000
8000
8000
8000
8000
8000
8030
8030
8000
8000
8000
8000
8000
8000
8000
8000
8000
8000
8000
FFFE
ENDCHAR
STARTCHAR 0140
ENCODING 320
SWIDTH 270 0
DWIDTH 12 0
BBX 7 33 5 0
BITMAP
80
80
80
80
80
80
80
80
80
80
80
80
80
80
80
80
80
80
80
80
86
86
80
80
80
80
80
80
80
80
80
80
F0
ENDCHAR
STARTCHAR 0141
ENCODING 321
SWIDTH 472 0
DWIDTH 21 0
BBX 19 31 1 0
BITMAP
080000
080000
080000
080000
080000
080000
080000
080000
080000
080000
080000
080000
080000
080000
081C00
08E000
0F0000
780000
880000
080000
080000
080000
080000
080000
080000
080000
080000
080000
080000
080000
0FFFE0
ENDCHAR
STARTCHAR 0142
ENCODING 322
SWIDTH 247 0
DWIDTH 11 0
BBX 8 33 2 0
BITMAP
10
10
10
10
10
10
10
10
10
10
10
10
10
10
10
13
1C
F0
10
10
10
10
10
10
10
10
10
10
10
10
10
10
1F
ENDCHAR
STARTCHAR 0143
ENCODING 323
SWIDTH 675 0
DWIDTH 30 0
BBX 21 41 5 0
BITMAP
000400
000C00
000800
001000
002000
002000
004000
000000
000000
000000
C00008
C00008
A00008
A00008
900008
880008
880008
840008
860008
820008
810008
810008
808008
804008
804008
802008
803008
801008
800808
800808
800408
800208
800208
800108
800188
800088
800048
800048
800028
800018
800018
ENDCHAR
STARTCHAR 0144
ENCODING 324
SWIDTH 540 0
DWIDTH 24 0
BBX 15 33 5 0
BITMAP
0030
0020
0040
0080
0080
0100
0200
0000
0000
0000
0FE0
9018
A004
C004
8002
8002
8002
8002
8002
8002
8002
8002
8002
8002
8002
8002
8002
8002
8002
8002
8002
8002
8002
ENDCHAR
STARTCHAR 0145
ENCODING 325
SWIDTH 675 0
DWIDTH 30 0
BBX 21 40 5 -9
BITMAP
C00008
C00008
A00008
A00008
900008
880008
880008
840008
860008
820008
810008
810008
808008
804008
804008
802008
803008
801008
800808
800808
800408
800208
800208
800108
800188
800088
800048
800048
800028
800018
800018
000000
000000
000000
006000
006000
002000
002000
002000
004000
ENDCHAR
STARTCHAR 0146
ENCODING 326
SWIDTH 540 0
DWIDTH 24 0
BBX 15 32 5 -9
BITMAP
0FE0
9018
A004
C004
8002
8002
8002
8002
8002
8002
8002
8002
8002
8002
8002
8002
8002
8002
8002
8002
8002
8002
8002
0000
0000
0000
0180
0180
0100
0100
0100
0200
ENDCHAR
STARTCHAR 0147
ENCODING 327
SWIDTH 675 0
DWIDTH 30 0
BBX 21 41 5 0
BITMAP
080100
040200
020400
010C00
009800
007000
000000
000000
000000
000000
C00008
C00008
A00008
A00008
900008
880008
880008
840008
860008
820008
810008
810008
808008
804008
804008
802008
803008
801008
800808
800808
800408
800208
800208
800108
800188
800088
800048
800048
800028
800018
800018
ENDCHAR
STARTCHAR 0148
ENCODING 328
SWIDTH 540 0
DWIDTH 24 0
BBX 15 33 5 0
BITMAP
2004
1008
0810
0420
0640
0380
0000
0000
0000
0000
0FE0
9018
A004
C004
8002
8002
8002
8002
8002
8002
8002
8002
8002
8002
8002
8002
8002
8002
8002
8002
8002
8002
8002
ENDCHAR
STARTCHAR 0149
ENCODING 329
SWIDTH 742 0
DWIDTH 33 0
BBX 27 33 3 0
BITMAP
30000000
30000000
10000000
10000000
20000000
20000000
40000000
80000000
80000000
00000000
0000FC00
00130300
00140080
001800C0
00100040
00100040
00100040
00100020
00100020
00100020
00100020
00100020
00100020
00100020
00100020
00100020
00100020
00100020
00100020
00100020
00100020
00100020
00100020
ENDCHAR
STARTCHAR 014A
ENCODING 330
SWIDTH 675 0
DWIDTH 30 0
BBX 21 40 5 -9
BITMAP
C00008
C00008
A00008
A00008
900008
880008
880008
840008
860008
820008
810008
810008
808008
804008
804008
802008
803008
801008
800808
800808
800408
800208
800208
800108
800188
800088
800048
800048
800028
800018
800018
000008
000008
000008
000008
000008
000008
000008
000008
0000F8
ENDCHAR
STARTCHAR 014B
ENCODING 331
SWIDTH 540 0
DWIDTH 24 0
BBX 15 32 5 -9
BITMAP
0FE0
9018
A004
C004
8002
8002
8002
8002
8002
8002
8002
8002
8002
8002
8002
8002
8002
8002
8002
8002
8002
8002
8002
0002
0002
0002
0002
0002
0002
0002
0002
001E
ENDCHAR
STARTCHAR 014C
ENCODING 332
SWIDTH 675 0
DWIDTH 30 0
BBX 24 39 3 -1
BITMAP
03FFC0
000000
000000
000000
000000
000000
000C00
01E380
060060
080010
100008
300004
200004
600002
400002
400002
400001
800001
800001
800001
800001
800001
800001
800001
800001
800001
800001
800001
400001
400002
400002
600002
200004
300004
100008
0C0010
060060
01E380
000400
ENDCHAR
STARTCHAR 014D
ENCODING 333
SWIDTH 540 0
DWIDTH 24 0
BBX 18 31 3 -1
BITMAP
1FFE00
000000
000000
000000
000000
000000
000000
03F000
0C0C00
300200
200100
400080
400080
800040
800040
800040
800040
800040
800040
800040
800040
800040
800040
800040
800040
400080
400080
200100
100200
0E1C00
012000
ENDCHAR
STARTCHAR 014E
ENCODING 334
SWIDTH 675 0
DWIDTH 30 0
BBX 24 41 3 -1
BITMAP
020040
010080
008180
00C100
003C00
000000
000000
000000
000C00
01E380
060060
080010
100008
300004
200004
600002
400002
400002
400001
800001
800001
800001
800001
800001
800001
800001
800001
800001
800001
800001
400001
400002
400002
600002
200004
300004
100008
0C0010
060060
01E380
000400
ENDCHAR
STARTCHAR 014F
ENCODING 335
SWIDTH 540 0
DWIDTH 24 0
BBX 18 33 3 -1
BITMAP
100200
080400
040800
061800
01E000
000000
000000
000000
000000
03F000
0C0C00
300200
200100
400080
400080
800040
800040
800040
800040
800040
800040
800040
800040
800040
800040
800040
800040
400080
400080
200100
100200
0E1C00
012000
ENDCHAR
STARTCHAR 0150
ENCODING 336
SWIDTH 675 0
DWIDTH 30 0
BBX 24 42 3 -1
BITMAP
000818
001810
001020
002040
0040C0
004080
008100
000000
000000
000C00
01E380
060060
080010
100008
300004
200004
600002
400002
400002
400001
800001
800001
800001
800001
800001
800001
800001
800001
800001
800001
800001
400001
400002
400002
600002
200004
300004
100008
0C0010
060060
01E380
000400
ENDCHAR
STARTCHAR 0151
ENCODING 337
SWIDTH 540 0
DWIDTH 24 0
BBX 18 34 3 -1
BITMAP
004080
00C080
008100
010200
020400
020400
040800
000000
000000
000000
03F000
0C0C00
300200
200100
400080
400080
800040
800040
800040
800040
800040
800040
800040
800040
800040
800040
800040
800040
400080
400080
200100
100200
0E1C00
012000
ENDCHAR
STARTCHAR 0152
ENCODING 338
SWIDTH 945 0
DWIDTH 42 0
BBX 37 33 3 -1
BITMAP
0005000000
00F0FFFFF8
0300080000
0C00080000
1800080000
1000080000
2000080000
2000080000
4000080000
4000080000
4000080000
8000080000
8000080000
8000080000
8000080000
8000080000
80000FFFF0
8000080000
8000080000
8000080000
8000080000
8000080000
4000080000
4000080000
4000080000
2000080000
2000080000
1000080000
1800080000
0C00080000
0300080000
00F0FFFFF8
0005000000
ENDCHAR
STARTCHAR 0153
ENCODING 339
SWIDTH 922 0
DWIDTH 41 0
BBX 36 24 3 -1
BITMAP
03F001FC00
0C0C060200
3002080180
2001100080
4000900040
4000A00020
8000600020
8000600020
8000400020
8000400010
8000400010
80007FFFF0
8000400000
8000400000
8000400000
8000400000
8000600000
8000A00020
4000A00020
4000900040
20010800C0
1002040180
0E1C038E00
0120007000
ENDCHAR
STARTCHAR 0154
ENCODING 340
SWIDTH 630 0
DWIDTH 28 0
BBX 20 41 5 0
BITMAP
001800
001000
002000
004000
00C000
008000
010000
000000
000000
000000
FFFE00
800180
8000C0
800040
800020
800020
800020
800020
800020
800020
800020
800020
800020
800040
800080
800300
FFFC00
801000
800800
800800
800400
800600
800200
800100
800100
800080
800080
800040
800020
800020
800010
ENDCHAR
STARTCHAR 0155
ENCODING 341
SWIDTH 337 0
DWIDTH 15 0
BBX 9 33 5 0
BITMAP
0080
0100
0200
0200
0400
0800
1000
0000
0000
0000
0000
9F80
A000
C000
8000
8000
8000
8000
8000
8000
8000
8000
8000
8000
8000
8000
8000
8000
8000
8000
8000
8000
8000
ENDCHAR
STARTCHAR 0156
ENCODING 342
SWIDTH 630 0
DWIDTH 28 0
BBX 20 40 5 -9
BITMAP
FFFE00
800180
8000C0
800040
800020
800020
800020
800020
800020
800020
800020
800020
800020
800040
800080
800300
FFFC00
801000
800800
800800
800400
800600
800200
800100
800100
800080
800080
800040
800020
800020
800010
000000
000000
000000
00C000
00C000
008000
008000
008000
010000
ENDCHAR
STARTCHAR 0157
ENCODING 343
SWIDTH 337 0
DWIDTH 15 0
BBX 10 31 4 -9
BITMAP
4FC0
5000
6000
4000
4000
4000
4000
4000
4000
4000
4000
4000
4000
4000
4000
4000
4000
4000
4000
4000
4000
4000
0000
0000
0000
C000
C000
4000
4000
8000
8000
ENDCHAR
STARTCHAR 0158
ENCODING 344
SWIDTH 630 0
DWIDTH 28 0
BBX 20 41 5 0
BITMAP
300600
180C00
0C1800
063000
036000
01C000
000000
000000
000000
000000
FFFE00
800180
8000C0
800040
800020
800020
800020
800020
800020
800020
800020
800020
800020
800040
800080
800300
FFFC00
801000
800800
800800
800400
800600
800200
800100
800100
800080
800080
800040
800020
800020
800010
ENDCHAR
STARTCHAR 0159
ENCODING 345
SWIDTH 337 0
DWIDTH 15 0
BBX 12 33 4 0
BITMAP
8010
4020
2040
1080
0900
0600
0000
0000
0000
0000
0000
4FC0
5000
6000
4000
4000
4000
4000
4000
4000
4000
4000
4000
4000
4000
4000
4000
4000
4000
4000
4000
4000
4000
ENDCHAR
STARTCHAR 015A
ENCODING 346
SWIDTH 540 0
DWIDTH 24 0
BBX 20 42 2 -1
BITMAP
000400
000800
001800
001000
002000
004000
000000
000000
000000
002000
079E00
180180
200040
600020
400000
400000
400000
400000
400000
400000
400000
200000
300000
0C0000
03C000
003C00
000300
0000C0
000040
000020
000020
000010
000010
000010
000010
000020
800020
400020
200040
180180
079E00
002000
ENDCHAR
STARTCHAR 015B
ENCODING 347
SWIDTH 450 0
DWIDTH 20 0
BBX 16 34 2 -1
BITMAP
0010
0020
0060
0040
0080
0100
0000
0000
0000
0000
07E0
101C
2006
4002
4000
4000
4000
4000
6000
3000
1C00
03E0
0018
0006
0002
0001
0001
0001
0001
8001
4002
3004
0E38
00C0
ENDCHAR
STARTCHAR 015C
ENCODING 348
SWIDTH 540 0
DWIDTH 24 0
BBX 20 42 2 -1
BITMAP
006000
009000
010800
020400
040200
080100
000000
000000
000000
002000
079E00
180180
200040
600020
400000
400000
400000
400000
400000
400000
400000
200000
300000
0C0000
03C000
003C00
000300
0000C0
000040
000020
000020
000010
000010
000010
000010
000020
800020
400020
200040
180180
079E00
002000
ENDCHAR
STARTCHAR 015D
ENCODING 349
SWIDTH 450 0
DWIDTH 20 0
BBX 16 34 2 -1
BITMAP
0180
0240
0420
0810
1008
2004
0000
0000
0000
0000
07E0
101C
2006
4002
4000
4000
4000
4000
6000
3000
1C00
03E0
0018
0006
0002
0001
0001
0001
0001
8001
4002
3004
0E38
00C0
ENDCHAR
STARTCHAR 015E
ENCODING 350
SWIDTH 540 0
DWIDTH 24 0
BBX 20 41 2 -9
BITMAP
002000
079E00
180180
200040
600020
400000
400000
400000
400000
400000
400000
400000
200000
300000
0C0000
03C000
003C00
000300
0000C0
000040
000020
000020
000010
000010
000010
000010
000020
800020
400020
200040
180180
079E00
007000
004000
004000
007800
000400
000400
000400
010400
00F800
ENDCHAR
STARTCHAR 015F
ENCODING 351
SWIDTH 450 0
DWIDTH 20 0
BBX 16 32 2 -9
BITMAP
07E0
101C
2006
4002
4000
4000
4000
4000
6000
3000
1C00
03E0
0018
0006
0002
0001
0001
0001
0001
8001
4002
3004
0E38
00C0
0080
0100
01E0
0010
0008
0008
0410
03E0
ENDCHAR
STARTCHAR 0160
ENCODING 352
SWIDTH 540 0
DWIDTH 24 0
BBX 20 42 2 -1
BITMAP
080100
040200
020400
010800
009000
006000
000000
000000
000000
002000
079E00
180180
200040
600020
400000
400000
400000
400000
400000
400000
400000
200000
300000
0C0000
03C000
003C00
000300
0000C0
000040
000020
000020
000010
000010
000010
000010
000020
800020
400020
200040
180180
079E00
002000
ENDCHAR
STARTCHAR 0161
ENCODING 353
SWIDTH 450 0
DWIDTH 20 0
BBX 16 34 2 -1
BITMAP
2004
1008
0810
0420
0240
0180
0000
0000
0000
0000
07E0
101C
2006
4002
4000
4000
4000
4000
6000
3000
1C00
03E0
0018
0006
0002
0001
0001
0001
0001
8001
4002
3004
0E38
00C0
ENDCHAR
STARTCHAR 0162
ENCODING 354
SWIDTH 540 0
DWIDTH 24 0
BBX 23 40 1 -9
BITMAP
FFFFFE
001000
001000
001000
001000
001000
001000
001000
001000
001000
001000
001000
001000
001000
001000
001000
001000
001000
001000
001000
001000
001000
001000
001000
001000
001000
001000
001000
001000
001000
001000
000000
000000
000000
003000
003000
001000
001000
001000
002000
ENDCHAR
STARTCHAR 0163
ENCODING 355
SWIDTH 292 0
DWIDTH 13 0
BBX 10 37 2 -8
BITMAP
1000
1000
1000
1000
1000
1000
FF80
1000
1000
1000
1000
1000
1000
1000
1000
1000
1000
1000
1000
1000
1000
1000
1000
1000
1000
1000
1000
0FC0
0000
0000
0000
0600
0600
0200
0200
0200
0400
ENDCHAR
STARTCHAR 0164
ENCODING 356
SWIDTH 540 0
DWIDTH 24 0
BBX 23 41 1 0
BITMAP
0600C0
030180
018300
00C600
006C00
003800
000000
000000
000000
000000
FFFFFE
001000
001000
001000
001000
001000
001000
001000
001000
001000
001000
001000
001000
001000
001000
001000
001000
001000
001000
001000
001000
001000
001000
001000
001000
001000
001000
001000
001000
001000
001000
ENDCHAR
STARTCHAR 0165
ENCODING 357
SWIDTH 292 0
DWIDTH 13 0
BBX 11 33 2 0
BITMAP
0020
0020
0040
0040
0040
1040
1040
1040
1000
1000
1000
FF80
1000
1000
1000
1000
1000
1000
1000
1000
1000
1000
1000
1000
1000
1000
1000
1000
1000
1000
1000
1000
0FC0
ENDCHAR
STARTCHAR 0166
ENCODING 358
SWIDTH 540 0
DWIDTH 24 0
BBX 23 31 1 0
BITMAP
FFFFFE
001000
001000
001000
001000
001000
001000
001000
001000
001000
001000
001000
001000
001000
1FFFF0
001000
001000
001000
001000
001000
001000
001000
001000
001000
001000
001000
001000
001000
001000
001000
001000
ENDCHAR
STARTCHAR 0167
ENCODING 359
SWIDTH 315 0
DWIDTH 14 0
BBX 10 29 2 0
BITMAP
0800
0800
0800
0800
0800
0800
1800
EFC0
0800
0800
0800
0800
0800
0800
0800
0800
7F80
0800
0800
0800
0800
0800
0800
0800
0800
0800
0800
0800
0FC0
ENDCHAR
STARTCHAR 0168
ENCODING 360
SWIDTH 630 0
DWIDTH 28 0
BBX 21 40 4 -1
BITMAP
07C000
082080
001F00
000000
000000
000000
000000
000000
800008
800008
800008
800008
800008
800008
800008
800008
800008
800008
800008
800008
800008
800008
800008
800008
800008
800008
800008
800008
800008
800010
400010
400010
400010
400010
400030
200020
300040
1800C0
070700
00A800
ENDCHAR
STARTCHAR 0169
ENCODING 361
SWIDTH 540 0
DWIDTH 24 0
BBX 16 31 4 -1
BITMAP
1E00
2182
007C
0000
0000
0000
0000
0000
0000
8001
8001
8001
8001
8001
8001
8001
8001
8001
8001
8001
8001
8001
8001
8001
8001
8001
4001
4003
2005
3005
0E79
ENDCHAR
STARTCHAR 016A
ENCODING 362
SWIDTH 630 0
DWIDTH 28 0
BBX 21 39 4 -1
BITMAP
07FF00
000000
000000
000000
000000
000000
000000
800008
800008
800008
800008
800008
800008
800008
800008
800008
800008
800008
800008
800008
800008
800008
800008
800008
800008
800008
800008
800008
800010
400010
400010
400010
400010
400030
200020
300040
1800C0
070700
00A800
ENDCHAR
STARTCHAR 016B
ENCODING 363
SWIDTH 540 0
DWIDTH 24 0
BBX 16 30 4 -1
BITMAP
3FFC
0000
0000
0000
0000
0000
0000
0000
8001
8001
8001
8001
8001
8001
8001
8001
8001
8001
8001
8001
8001
8001
8001
8001
8001
4001
4003
2005
3005
0E79
ENDCHAR
STARTCHAR 016C
ENCODING 364
SWIDTH 630 0
DWIDTH 28 0
BBX 21 41 4 -1
BITMAP
040100
040200
020200
010400
00F800
000000
000000
000000
000000
800008
800008
800008
800008
800008
800008
800008
800008
800008
800008
800008
800008
800008
800008
800008
800008
800008
800008
800008
800008
800008
800010
400010
400010
400010
400010
400030
200020
300040
1800C0
070700
00A800
ENDCHAR
STARTCHAR 016D
ENCODING 365
SWIDTH 540 0
DWIDTH 24 0
BBX 16 32 4 -1
BITMAP
1004
1008
0808
0410
03E0
0000
0000
0000
0000
0000
8001
8001
8001
8001
8001
8001
8001
8001
8001
8001
8001
8001
8001
8001
8001
8001
8001
4001
4003
2005
3005
0E79
ENDCHAR
STARTCHAR 016E
ENCODING 366
SWIDTH 630 0
DWIDTH 28 0
BBX 21 43 4 -1
BITMAP
00F800
010400
020400
020400
020400
010400
018C00
007000
000000
000000
000000
800008
800008
800008
800008
800008
800008
800008
800008
800008
800008
800008
800008
800008
800008
800008
800008
800008
800008
800008
800008
800008
800010
400010
400010
400010
400010
400030
200020
300040
1800C0
070700
00A800
ENDCHAR
STARTCHAR 016F
ENCODING 367
SWIDTH 540 0
DWIDTH 24 0
BBX 16 34 4 -1
BITMAP
03E0
0410
0810
0810
0810
0810
0420
03C0
0000
0000
0000
0000
8001
8001
8001
8001
8001
8001
8001
8001
8001
8001
8001
8001
8001
8001
8001
8001
8001
4001
4003
2005
3005
0E79
ENDCHAR
STARTCHAR 0170
ENCODING 368
SWIDTH 630 0
DWIDTH 28 0
BBX 21 42 4 -1
BITMAP
001020
002040
004080
008180
008100
010200
020400
000000
000000
000000
800008
800008
800008
800008
800008
800008
800008
800008
800008
800008
800008
800008
800008
800008
800008
800008
800008
800008
800008
800008
800008
800010
400010
400010
400010
400010
400030
200020
300040
1800C0
070700
00A800
ENDCHAR
STARTCHAR 0171
ENCODING 369
SWIDTH 540 0
DWIDTH 24 0
BBX 17 33 4 -1
BITMAP
008180
008100
010200
020400
040C00
040800
081000
000000
000000
000000
000000
800100
800100
800100
800100
800100
800100
800100
800100
800100
800100
800100
800100
800100
800100
800100
800100
800100
400100
400300
200500
300500
0E7900
ENDCHAR
STARTCHAR 0172
ENCODING 370
SWIDTH 630 0
DWIDTH 28 0
BBX 21 40 4 -9
BITMAP
800008
800008
800008
800008
800008
800008
800008
800008
800008
800008
800008
800008
800008
800008
800008
800008
800008
800008
800008
800008
800010
800010
400010
400010
400010
400010
400030
200020
300040
1800C0
070700
00BC00
000800
001000
002000
004000
004000
004000
002100
001E00
ENDCHAR
STARTCHAR 0173
ENCODING 371
SWIDTH 540 0
DWIDTH 24 0
BBX 17 31 4 -9
BITMAP
800100
800100
800100
800100
800100
800100
800100
800100
800100
800100
800100
800100
800100
800100
800100
800100
800100
400100
400300
200500
300500
0E7900
000200
000400
000800
001000
001000
001000
001000
001080
000F00
ENDCHAR
STARTCHAR 0174
ENCODING 372
SWIDTH 855 0
DWIDTH 38 0
BBX 36 41 1 0
BITMAP
0000600000
0000900000
0001880000
0003040000
0006020000
000C010000
0000000000
0000000000
0000000000
0000000000
C000600010
4000600010
4000500010
4000500020
2000900020
2000880020
2000880020
2000880040
1001080040
1001040040
1001040040
1002040080
0802020080
0802020080
0802020080
0C04020100
0404010100
0404010100
0408010200
0208008200
0208008200
0208008200
0210008400
0110004400
0110004400
0120004400
0120002800
00A0002800
00A0002800
00C0002800
00C0001000
ENDCHAR
STARTCHAR 0175
ENCODING 373
SWIDTH 720 0
DWIDTH 32 0
BBX 28 33 2 0
BITMAP
00060000
00090000
00108000
00204000
00402000
00801000
00000000
00000000
00000000
00000000
00000000
80060010
80060010
80050010
40090020
40090020
40090020
20108020
20108040
20108040
10204040
10204080
10204080
10202080
08402100
08402100
08401100
04801100
04801200
04801200
03000A00
03000C00
03000C00
ENDCHAR
STARTCHAR 0176
ENCODING 374
SWIDTH 540 0
DWIDTH 24 0
BBX 22 41 1 0
BITMAP
003000
004800
008400
010200
020100
040080
000000
000000
000000
000000
800004
400008
600008
200010
100010
100020
080040
0C0040
040080
020080
020100
010200
018200
008400
004400
004800
003000
003000
001000
001000
001000
001000
001000
001000
001000
001000
001000
001000
001000
001000
001000
ENDCHAR
STARTCHAR 0177
ENCODING 375
SWIDTH 450 0
DWIDTH 20 0
BBX 18 42 1 -9
BITMAP
00C000
012000
021000
040800
080400
100200
000000
000000
000000
000000
000000
800040
400080
400080
200080
200100
200100
100200
100200
100200
080400
080400
040400
040800
040800
021000
021000
021000
012000
012000
012000
00C000
00C000
008000
008000
008000
010000
010000
010000
020000
020000
3C0000
ENDCHAR
STARTCHAR 0178
ENCODING 376
SWIDTH 540 0
DWIDTH 24 0
BBX 22 38 1 1
BITMAP
030300
000000
000000
000000
000000
000000
000000
800004
400008
600008
200010
100010
100020
080040
0C0040
040080
020080
020100
010200
018200
008400
004400
004800
003000
003000
001000
001000
001000
001000
001000
001000
001000
001000
001000
001000
001000
001000
001000
ENDCHAR
STARTCHAR 0179
ENCODING 377
SWIDTH 540 0
DWIDTH 24 0
BBX 21 41 2 0
BITMAP
000600
000400
000800
001000
001000
002000
004000
000000
000000
000000
7FFFF0
000010
000020
000020
000040
000080
000080
000100
000200
000200
000400
000800
000800
001000
002000
002000
004000
008000
018000
010000
020000
060000
040000
080000
180000
100000
200000
600000
400000
800000
FFFFF8
ENDCHAR
STARTCHAR 017A
ENCODING 378
SWIDTH 405 0
DWIDTH 18 0
BBX 17 33 1 0
BITMAP
001000
003000
002000
004000
008000
008000
010000
000000
000000
000000
000000
7FFF00
000200
000200
000400
000800
001800
001000
002000
004000
004000
008000
010000
020000
020000
040000
080000
180000
100000
200000
400000
400000
FFFF80
ENDCHAR
STARTCHAR 017B
ENCODING 379
SWIDTH 540 0
DWIDTH 24 0
BBX 21 39 2 0
BITMAP
002000
003000
000000
000000
000000
000000
000000
000000
7FFFF0
000010
000020
000020
000040
000080
000080
000100
000200
000200
000400
000800
000800
001000
002000
002000
004000
008000
018000
010000
020000
060000
040000
080000
180000
100000
200000
600000
400000
800000
FFFFF8
ENDCHAR
STARTCHAR 017C
ENCODING 380
SWIDTH 405 0
DWIDTH 18 0
BBX 17 31 1 0
BITMAP
008000
018000
000000
000000
000000
000000
000000
000000
000000
7FFF00
000200
000200
000400
000800
001800
001000
002000
004000
004000
008000
010000
020000
020000
040000
080000
180000
100000
200000
400000
400000
FFFF80
ENDCHAR
STARTCHAR 017D
ENCODING 381
SWIDTH 540 0
DWIDTH 24 0
BBX 21 41 2 0
BITMAP
040180
060300
030200
018400
00C800
007000
000000
000000
000000
000000
7FFFF0
000010
000020
000020
000040
000080
000080
000100
000200
000200
000400
000800
000800
001000
002000
002000
004000
008000
018000
010000
020000
060000
040000
080000
180000
100000
200000
600000
400000
800000
FFFFF8
ENDCHAR
STARTCHAR 017E
ENCODING 382
SWIDTH 405 0
DWIDTH 18 0
BBX 17 33 1 0
BITMAP
200400
100800
081000
042000
026000
01C000
000000
000000
000000
000000
000000
7FFF00
000200
000200
000400
000800
001800
001000
002000
004000
004000
008000
010000
020000
020000
040000
080000
180000
100000
200000
400000
400000
FFFF80
ENDCHAR
STARTCHAR 018F
ENCODING 399
SWIDTH 675 0
DWIDTH 30 0
BBX 24 33 3 -1
BITMAP
001800
01E780
060060
080010
100008
300004
200004
200002
400002
000002
000001
000001
000001
000001
000001
000001
FFFFFF
800001
800001
800001
800001
800001
400001
400002
400002
600002
200004
300004
100008
0C0010
060060
01E380
000400
ENDCHAR
STARTCHAR 0192
ENCODING 402
SWIDTH 472 0
DWIDTH 21 0
BBX 21 37 0 -6
BITMAP
000FF8
001000
001000
001000
001000
001000
001000
001000
001000
002000
002000
002000
002000
002000
002000
002000
3FFFF0
002000
002000
004000
004000
004000
004000
004000
004000
004000
004000
004000
004000
008000
008000
008000
008000
008000
008000
008000
FF0000
ENDCHAR
STARTCHAR 01A0
ENCODING 416
SWIDTH 675 0
DWIDTH 30 0
BBX 24 37 3 -1
BITMAP
000001
000001
000001
000001
000801
01E7FF
060060
080010
100008
300004
200004
600002
400002
400002
400001
800001
800001
800001
800001
800001
800001
800001
800001
800001
800001
800001
400001
400002
400002
600002
200004
300004
100008
0C0010
060060
01E380
000400
ENDCHAR
STARTCHAR 01A1
ENCODING 417
SWIDTH 540 0
DWIDTH 24 0
BBX 18 28 3 -1
BITMAP
000040
000040
000040
000040
03F040
0C0F80
300200
200100
400080
400080
800040
800040
800040
800040
800040
800040
800040
800040
800040
800040
800040
800040
400080
400080
200100
100200
0E1C00
012000
ENDCHAR
STARTCHAR 01AF
ENCODING 431
SWIDTH 630 0
DWIDTH 28 0
BBX 24 37 4 -1
BITMAP
000001
000001
000001
000001
000001
80000F
800008
800008
800008
800008
800008
800008
800008
800008
800008
800008
800008
800008
800008
800008
800008
800008
800008
800008
800008
800008
800010
400010
400010
400010
400010
400030
200020
300040
1800C0
070700
00A800
ENDCHAR
STARTCHAR 01B0
ENCODING 432
SWIDTH 540 0
DWIDTH 24 0
BBX 20 27 4 -1
BITMAP
000010
000010
000010
000010
000020
8001C0
800100
800100
800100
800100
800100
800100
800100
800100
800100
800100
800100
800100
800100
800100
800100
800100
400100
400300
200500
300500
0E7900
ENDCHAR
STARTCHAR 01FA
ENCODING 506
SWIDTH 585 0
DWIDTH 26 0
BBX 23 48 2 0
BITMAP
000600
000400
000800
001000
000000
000000
007C00
008200
010200
010200
010200
008200
008400
007800
000000
000000
000000
003000
002800
002800
004800
004400
004400
008400
008200
008200
010200
010100
030100
020080
020080
040080
040040
040040
080040
080020
080020
1FFFE0
100010
300010
200010
200008
400008
400004
400004
800004
800002
800002
ENDCHAR
STARTCHAR 01FB
ENCODING 507
SWIDTH 517 0
DWIDTH 23 0
BBX 19 41 3 -1
BITMAP
003000
006000
004000
008000
000000
000000
03E000
043000
081000
081000
081000
081000
042000
03C000
000000
000000
000000
07E000
181800
200400
400200
400200
000200
000200
000200
000200
000200
000200
1FFE00
200200
400200
800200
800200
800200
800200
800200
800200
800600
600A00
38F1E0
040000
ENDCHAR
STARTCHAR 01FC
ENCODING 508
SWIDTH 855 0
DWIDTH 38 0
BBX 35 41 0 0
BITMAP
0000000200
0000000400
0000000800
0000001800
0000001000
0000002000
0000004000
0000000000
0000000000
0000000000
00007FFFE0
0000A00000
0000A00000
0001200000
0001200000
0002200000
0002200000
0004200000
0008200000
0008200000
0010200000
0010200000
0020200000
0020200000
0040200000
00403FFFE0
0080200000
0180200000
0100200000
0200200000
03FFE00000
0400200000
0400200000
0800200000
0800200000
1000200000
1000200000
2000200000
6000200000
4000200000
80003FFFE0
ENDCHAR
STARTCHAR 01FD
ENCODING 509
SWIDTH 855 0
DWIDTH 38 0
BBX 34 34 2 -1
BITMAP
0000080000
0000100000
0000300000
0000200000
0000400000
0000800000
0000800000
0000000000
0000000000
0000000000
07F007F000
080C180800
1002200600
2002400200
4001400100
0001800080
0001800080
0001800080
0001000080
0001000040
0001000040
0FFFFFFFC0
3001000000
6001000000
4001000000
4001000000
C001800000
8001800080
4001800080
4002400100
4002200300
200C100600
1C700E3800
030001C000
ENDCHAR
STARTCHAR 01FE
ENCODING 510
SWIDTH 675 0
DWIDTH 30 0
BBX 24 42 3 -1
BITMAP
000100
000200
000600
000400
000800
001000
001000
000000
000000
000801
01E782
060064
080014
100008
300014
200034
600022
400042
4000C2
400081
800101
800201
800201
800401
800801
800801
801001
802001
806001
804001
808001
410001
410002
420002
240002
240004
180004
100008
3C0010
260060
41C380
C02400
ENDCHAR
STARTCHAR 01FF
ENCODING 511
SWIDTH 540 0
DWIDTH 24 0
BBX 20 34 2 -1
BITMAP
000400
000C00
000800
001000
002000
006000
004000
000000
000000
000010
01F810
060620
0801C0
100080
200140
200340
400220
400420
400820
401020
402020
402020
404020
408020
410020
420020
420020
240020
280040
100040
300080
2C0100
430E00
809000
ENDCHAR
STARTCHAR 0218
ENCODING 536
SWIDTH 540 0
DWIDTH 24 0
BBX 20 41 2 -9
BITMAP
002000
079E00
180180
200040
600020
400000
400000
400000
400000
400000
400000
400000
200000
300000
0C0000
03C000
003C00
000300
0000C0
000040
000020
000020
000010
000010
000010
000010
000020
800020
400020
200040
180180
079E00
002000
000000
000000
006000
006000
002000
002000
004000
004000
ENDCHAR
STARTCHAR 0219
ENCODING 537
SWIDTH 450 0
DWIDTH 20 0
BBX 16 32 2 -9
BITMAP
07E0
101C
2006
4002
4000
4000
4000
4000
6000
3000
1C00
03E0
0018
0006
0002
0001
0001
0001
0001
8001
4002
3004
0E38
00C0
0000
0000
0080
00C0
0080
0080
0080
0100
ENDCHAR
STARTCHAR 021A
ENCODING 538
SWIDTH 540 0
DWIDTH 24 0
BBX 23 40 1 -9
BITMAP
FFFFFE
001000
001000
001000
001000
001000
001000
001000
001000
001000
001000
001000
001000
001000
001000
001000
001000
001000
001000
001000
001000
001000
001000
001000
001000
001000
001000
001000
001000
001000
001000
000000
000000
000000
003000
003000
001000
001000
001000
002000
ENDCHAR
STARTCHAR 021B
ENCODING 539
SWIDTH 292 0
DWIDTH 13 0
BBX 10 37 2 -8
BITMAP
1000
1000
1000
1000
1000
1000
FF80
1000
1000
1000
1000
1000
1000
1000
1000
1000
1000
1000
1000
1000
1000
1000
1000
1000
1000
1000
1000
0FC0
0000
0000
0000
0600
0600
0200
0200
0200
0400
ENDCHAR
STARTCHAR 0237
ENCODING 567
SWIDTH 225 0
DWIDTH 10 0
BBX 5 31 1 -9
BITMAP
08
08
08
08
08
08
08
08
08
08
08
08
08
08
08
08
08
08
08
08
08
08
08
08
08
08
08
08
08
08
F0
ENDCHAR
STARTCHAR 0259
ENCODING 601
SWIDTH 517 0
DWIDTH 23 0
BBX 18 24 3 -1
BITMAP
07F000
180C00
200200
400100
400080
800080
000080
000040
000040
000040
000040
000040
FFFFC0
800040
800040
800040
800080
800080
400080
600100
200300
180600
061800
01A000
ENDCHAR
STARTCHAR 02BB
ENCODING 699
SWIDTH 585 0
DWIDTH 26 0
BBX 3 6 12 27
BITMAP
20
40
40
80
C0
C0
ENDCHAR
STARTCHAR 02BC
ENCODING 700
SWIDTH 585 0
DWIDTH 26 0
BBX 1 7 11 25
BITMAP
80
80
80
80
80
80
80
ENDCHAR
STARTCHAR 02C6
ENCODING 710
SWIDTH 585 0
DWIDTH 26 0
BBX 12 6 7 27
BITMAP
0600
0D00
1880
3040
6020
C010
ENDCHAR
STARTCHAR 02C7
ENCODING 711
SWIDTH 585 0
DWIDTH 26 0
BBX 12 6 7 27
BITMAP
8010
4020
2040
1080
0980
0700
ENDCHAR
STARTCHAR 02D8
ENCODING 728
SWIDTH 585 0
DWIDTH 26 0
BBX 11 5 8 27
BITMAP
8020
8040
4040
2080
1F00
ENDCHAR
STARTCHAR 02D9
ENCODING 729
SWIDTH 585 0
DWIDTH 26 0
BBX 2 2 12 29
BITMAP
40
C0
ENDCHAR
STARTCHAR 02DA
ENCODING 730
SWIDTH 585 0
DWIDTH 26 0
BBX 8 8 9 26
BITMAP
3E
41
81
81
81
41
42
3C
ENDCHAR
STARTCHAR 02DB
ENCODING 731
SWIDTH 585 0
DWIDTH 26 0
BBX 7 10 7 -9
BITMAP
04
0C
10
20
40
80
80
80
C2
3C
ENDCHAR
STARTCHAR 02DC
ENCODING 732
SWIDTH 585 0
DWIDTH 26 0
BBX 13 3 7 28
BITMAP
7C00
8208
01F0
ENDCHAR
STARTCHAR 02DD
ENCODING 733
SWIDTH 585 0
DWIDTH 26 0
BBX 13 7 9 26
BITMAP
0C08
0810
1020
2040
2040
4080
8100
ENDCHAR
STARTCHAR 0300
ENCODING 768
SWIDTH 0 0
DWIDTH 0 0
BBX 5 7 -4 26
BITMAP
80
40
60
20
10
08
08
ENDCHAR
STARTCHAR 0301
ENCODING 769
SWIDTH 0 0
DWIDTH 0 0
BBX 5 7 -1 26
BITMAP
08
10
30
20
40
80
80
ENDCHAR
STARTCHAR 0302
ENCODING 770
SWIDTH 0 0
DWIDTH 0 0
BBX 12 6 -6 27
BITMAP
0600
0900
1080
2040
4020
8010
ENDCHAR
STARTCHAR 0303
ENCODING 771
SWIDTH 0 0
DWIDTH 0 0
BBX 14 3 -7 28
BITMAP
3C00
C30C
00F0
ENDCHAR
STARTCHAR 0304
ENCODING 772
SWIDTH 0 0
DWIDTH 0 0
BBX 12 1 -6 29
BITMAP
FFF0
ENDCHAR
STARTCHAR 0306
ENCODING 774
SWIDTH 0 0
DWIDTH 0 0
BBX 12 5 -6 27
BITMAP
8010
4020
2040
30C0
0F00
ENDCHAR
STARTCHAR 0307
ENCODING 775
SWIDTH 0 0
DWIDTH 0 0
BBX 2 2 -1 29
BITMAP
C0
C0
ENDCHAR
STARTCHAR 0308
ENCODING 776
SWIDTH 0 0
DWIDTH 0 0
BBX 10 2 -5 29
BITMAP
C040
C0C0
ENDCHAR
STARTCHAR 0309
ENCODING 777
SWIDTH 0 0
DWIDTH 0 0
BBX 7 7 -3 26
BITMAP
FE
02
04
08
08
10
10
ENDCHAR
STARTCHAR 030A
ENCODING 778
SWIDTH 0 0
DWIDTH 0 0
BBX 8 8 -4 26
BITMAP
3E
42
81
81
81
81
42
3C
ENDCHAR
STARTCHAR 030B
ENCODING 779
SWIDTH 0 0
DWIDTH 0 0
BBX 12 7 -4 26
BITMAP
0810
1810
1020
2040
4080
4080
8100
ENDCHAR
STARTCHAR 030C
ENCODING 780
SWIDTH 0 0
DWIDTH 0 0
BBX 12 6 -6 27
BITMAP
8010
4020
2040
1080
0900
0600
ENDCHAR
STARTCHAR 0312
ENCODING 786
SWIDTH 0 0
DWIDTH 0 0
BBX 2 6 -1 27
BITMAP
40
40
80
80
C0
C0
ENDCHAR
STARTCHAR 0315
ENCODING 789
SWIDTH 0 0
DWIDTH 0 0
BBX 2 8 0 25
BITMAP
40
40
40
80
80
80
80
80
ENDCHAR
STARTCHAR 031B
ENCODING 795
SWIDTH 0 0
DWIDTH 0 0
BBX 4 6 -3 22
BITMAP
10
10
10
10
10
F0
ENDCHAR
STARTCHAR 0323
ENCODING 803
SWIDTH 0 0
DWIDTH 0 0
BBX 2 2 -1 -6
BITMAP
C0
C0
ENDCHAR
STARTCHAR 0326
ENCODING 806
SWIDTH 0 0
DWIDTH 0 0
BBX 2 6 -1 -9
BITMAP
C0
C0
40
40
80
80
ENDCHAR
STARTCHAR 0327
ENCODING 807
SWIDTH 0 0
DWIDTH 0 0
BBX 7 9 -3 -9
BITMAP
20
20
20
3C
02
02
02
86
78
ENDCHAR
STARTCHAR 0328
ENCODING 808
SWIDTH 0 0
DWIDTH 0 0
BBX 7 10 -6 -9
BITMAP
04
08
10
20
40
80
80
80
82
7C
ENDCHAR
STARTCHAR 037E
ENCODING 894
SWIDTH 247 0
DWIDTH 11 0
BBX 4 29 3 -7
BITMAP
30
70
20
00
00
00
00
00
00
00
00
00
00
00
00
00
00
00
00
00
30
30
10
10
20
20
40
80
80
ENDCHAR
STARTCHAR 0384
ENCODING 900
SWIDTH 585 0
DWIDTH 26 0
BBX 4 7 13 26
BITMAP
30
20
20
40
40
80
80
ENDCHAR
STARTCHAR 0385
ENCODING 901
SWIDTH 585 0
DWIDTH 26 0
BBX 10 7 8 26
BITMAP
0200
0200
4440
C4C0
0800
0800
1000
ENDCHAR
STARTCHAR 0386
ENCODING 902
SWIDTH 585 0
DWIDTH 26 0
BBX 23 33 2 0
BITMAP
040000
080000
083000
102800
102800
204800
204400
004400
008400
008200
008200
010200
010100
030100
020080
020080
040080
040040
040040
080040
080020
080020
1FFFE0
100010
300010
200010
200008
400008
400004
400004
800004
800002
800002
ENDCHAR
STARTCHAR 0387
ENCODING 903
SWIDTH 247 0
DWIDTH 11 0
BBX 2 3 5 19
BITMAP
C0
C0
80
ENDCHAR
STARTCHAR 0388
ENCODING 904
SWIDTH 562 0
DWIDTH 25 0
BBX 24 33 -1 0
BITMAP
100000
200000
21FFFF
410000
410000
810000
810000
010000
010000
010000
010000
010000
010000
010000
010000
010000
010000
01FFFE
010000
010000
010000
010000
010000
010000
010000
010000
010000
010000
010000
010000
010000
010000
01FFFF
ENDCHAR
STARTCHAR 0389
ENCODING 905
SWIDTH 697 0
DWIDTH 31 0
BBX 28 33 -1 0
BITMAP
10000000
20000000
21000010
41000010
41000010
81000010
81000010
01000010
01000010
01000010
01000010
01000010
01000010
01000010
01000010
01000010
01000010
01FFFFF0
01000010
01000010
01000010
01000010
01000010
01000010
01000010
01000010
01000010
01000010
01000010
01000010
01000010
01000010
01000010
ENDCHAR
STARTCHAR 038A
ENCODING 906
SWIDTH 405 0
DWIDTH 18 0
BBX 17 33 -1 0
BITMAP
100000
200000
23FF80
401000
401000
801000
801000
001000
001000
001000
001000
001000
001000
001000
001000
001000
001000
001000
001000
001000
001000
001000
001000
001000
001000
001000
001000
001000
001000
001000
001000
001000
03FF80
ENDCHAR
STARTCHAR 038C
ENCODING 908
SWIDTH 675 0
DWIDTH 30 0
BBX 28 34 -1 -1
BITMAP
10000000
2000C000
201E3800
40600600
40800100
81000080
83000040
02000040
06000020
04000020
04000020
04000010
08000010
08000010
08000010
08000010
08000010
08000010
08000010
08000010
08000010
08000010
08000010
04000010
04000020
04000020
06000020
02000040
03000040
01000080
00C00100
00600600
001E3800
00004000
ENDCHAR
STARTCHAR 038E
ENCODING 910
SWIDTH 607 0
DWIDTH 27 0
BBX 28 33 -1 0
BITMAP
10000000
20000000
22000010
43000020
41000040
80800040
80800080
00400080
00600100
00200200
00100200
00100400
00080400
000C0800
00041000
00021000
00022000
00012000
0001C000
00008000
00008000
00008000
00008000
00008000
00008000
00008000
00008000
00008000
00008000
00008000
00008000
00008000
00008000
ENDCHAR
STARTCHAR 038F
ENCODING 911
SWIDTH 675 0
DWIDTH 30 0
BBX 29 33 -1 0
BITMAP
10000000
20018000
201E3C00
40600300
40C00180
818000C0
81000040
02000020
02000020
04000010
04000010
04000010
04000010
08000008
08000008
08000008
08000008
08000008
08000008
08000018
04000010
04000010
04000010
04000010
02000020
02000020
01000040
00800080
00400100
00200200
00180C00
00080800
07F80FF0
ENDCHAR
STARTCHAR 0390
ENCODING 912
SWIDTH 247 0
DWIDTH 11 0
BBX 10 33 1 0
BITMAP
0200
0400
8480
C8C0
0800
1000
1000
0000
0000
0000
0000
0800
0800
0800
0800
0800
0800
0800
0800
0800
0800
0800
0800
0800
0800
0800
0800
0800
0800
0800
0800
0800
0FC0
ENDCHAR
STARTCHAR 0391
ENCODING 913
SWIDTH 585 0
DWIDTH 26 0
BBX 23 31 2 0
BITMAP
003000
002800
002800
004800
004400
004400
008400
008200
008200
010200
010100
030100
020080
020080
040080
040040
040040
080040
080020
080020
1FFFE0
100010
300010
200010
200008
400008
400004
400004
800004
800002
800002
ENDCHAR
STARTCHAR 0392
ENCODING 914
SWIDTH 607 0
DWIDTH 27 0
BBX 19 31 5 0
BITMAP
FFFC00
800300
800180
800080
800040
800040
800040
800040
800040
800040
800040
800080
800180
800300
FFFC00
800300
800080
800040
800020
800020
800020
800020
800020
800020
800020
800020
800020
800040
8000C0
800180
FFFE00
ENDCHAR
STARTCHAR 0393
ENCODING 915
SWIDTH 495 0
DWIDTH 22 0
BBX 16 31 5 0
BITMAP
FFFF
8000
8000
8000
8000
8000
8000
8000
8000
8000
8000
8000
8000
8000
8000
8000
8000
8000
8000
8000
8000
8000
8000
8000
8000
8000
8000
8000
8000
8000
8000
ENDCHAR
STARTCHAR 0394
ENCODING 916
SWIDTH 585 0
DWIDTH 26 0
BBX 23 31 2 0
BITMAP
003000
002800
002800
004800
004400
004400
008400
008200
008200
010200
010100
020100
020080
020080
040080
040040
040040
080040
080020
080020
100020
100010
300010
200018
200008
400008
400004
400004
800004
800002
FFFFFE
ENDCHAR
STARTCHAR 0395
ENCODING 917
SWIDTH 540 0
DWIDTH 24 0
BBX 17 31 5 0
BITMAP
FFFF80
800000
800000
800000
800000
800000
800000
800000
800000
800000
800000
800000
800000
800000
800000
FFFF00
800000
800000
800000
800000
800000
800000
800000
800000
800000
800000
800000
800000
800000
800000
FFFF80
ENDCHAR
STARTCHAR 0396
ENCODING 918
SWIDTH 540 0
DWIDTH 24 0
BBX 21 31 2 0
BITMAP
7FFFF0
000010
000020
000020
000040
000080
000080
000100
000200
000200
000400
000800
000800
001000
002000
002000
004000
008000
018000
010000
020000
060000
040000
080000
180000
100000
200000
600000
400000
800000
FFFFF8
ENDCHAR
STARTCHAR 0397
ENCODING 919
SWIDTH 675 0
DWIDTH 30 0
BBX 21 31 5 0
BITMAP
800008
800008
800008
800008
800008
800008
800008
800008
800008
800008
800008
800008
800008
800008
800008
FFFFF8
800008
800008
800008
800008
800008
800008
800008
800008
800008
800008
800008
800008
800008
800008
800008
ENDCHAR
STARTCHAR 0398
ENCODING 920
SWIDTH 675 0
DWIDTH 30 0
BBX 24 33 3 -1
BITMAP
000C00
01E380
060060
080010
100008
300004
200004
600002
400002
400002
400001
800001
800001
800001
800001
800001
87FFE1
800001
800001
800001
800001
800001
400001
400002
400002
600002
200004
300004
100008
0C0010
060060
01E380
000400
ENDCHAR
STARTCHAR 0399
ENCODING 921
SWIDTH 360 0
DWIDTH 16 0
BBX 11 31 3 0
BITMAP
FFE0
0400
0400
0400
0400
0400
0400
0400
0400
0400
0400
0400
0400
0400
0400
0400
0400
0400
0400
0400
0400
0400
0400
0400
0400
0400
0400
0400
0400
0400
FFE0
ENDCHAR
STARTCHAR 039A
ENCODING 922
SWIDTH 562 0
DWIDTH 25 0
BBX 19 31 5 0
BITMAP
800020
800040
800080
800100
800200
800400
800800
801800
803000
806000
804000
808000
810000
830000
850000
888000
904000
A04000
E02000
C01000
801000
800800
800400
800400
800200
800100
800180
800080
800040
800060
800020
ENDCHAR
STARTCHAR 039B
ENCODING 923
SWIDTH 585 0
DWIDTH 26 0
BBX 23 31 2 0
BITMAP
003000
003000
002800
004800
004800
008400
008400
008400
010200
010200
010100
020100
020100
020080
040080
040080
040040
080040
080040
180020
100020
100020
200010
200010
200010
400008
400008
400004
800004
800004
800002
ENDCHAR
STARTCHAR 039C
ENCODING 924
SWIDTH 787 0
DWIDTH 35 0
BBX 26 31 5 0
BITMAP
C00000C0
C0000140
A0000140
A0000240
90000440
88000440
88000840
84000840
84001040
82002040
81002040
81004040
8080C040
80C08040
80410040
80210040
80220040
80160040
801C0040
80080040
80000040
80000040
80000040
80000040
80000040
80000040
80000040
80000040
80000040
80000040
80000040
ENDCHAR
STARTCHAR 039D
ENCODING 925
SWIDTH 675 0
DWIDTH 30 0
BBX 21 31 5 0
BITMAP
C00008
C00008
A00008
A00008
900008
880008
880008
840008
860008
820008
810008
810008
808008
804008
804008
802008
803008
801008
800808
800808
800408
800208
800208
800108
800188
800088
800048
800048
800028
800018
800018
ENDCHAR
STARTCHAR 039E
ENCODING 926
SWIDTH 540 0
DWIDTH 24 0
BBX 18 31 3 0
BITMAP
FFFFC0
000000
000000
000000
000000
000000
000000
000000
000000
000000
000000
000000
000000
000000
000000
3FFF80
000000
000000
000000
000000
000000
000000
000000
000000
000000
000000
000000
000000
000000
000000
FFFFC0
ENDCHAR
STARTCHAR 039F
ENCODING 927
SWIDTH 675 0
DWIDTH 30 0
BBX 24 33 3 -1
BITMAP
000C00
01E380
060060
080010
100008
300004
200004
600002
400002
400002
400001
800001
800001
800001
800001
800001
800001
800001
800001
800001
800001
800001
400001
400002
400002
600002
200004
300004
100008
0C0010
060060
01E380
000400
ENDCHAR
STARTCHAR 03A0
ENCODING 928
SWIDTH 675 0
DWIDTH 30 0
BBX 20 31 5 0
BITMAP
FFFFF0
800010
800010
800010
800010
800010
800010
800010
800010
800010
800010
800010
800010
800010
800010
800010
800010
800010
800010
800010
800010
800010
800010
800010
800010
800010
800010
800010
800010
800010
800010
ENDCHAR
STARTCHAR 03A1
ENCODING 929
SWIDTH 585 0
DWIDTH 26 0
BBX 19 31 5 0
BITMAP
FFFE00
800180
8000C0
800040
800020
800020
800020
800020
800020
800020
800020
800020
800020
800040
800080
800300
FFFC00
800000
800000
800000
800000
800000
800000
800000
800000
800000
800000
800000
800000
800000
800000
ENDCHAR
STARTCHAR 03A3
ENCODING 931
SWIDTH 562 0
DWIDTH 25 0
BBX 20 31 2 0
BITMAP
FFFFF0
400000
200000
100000
180000
080000
040000
020000
010000
008000
00C000
004000
002000
001000
000800
000800
001800
001000
002000
004000
008000
010000
030000
020000
040000
080000
100000
200000
600000
400000
FFFFF0
ENDCHAR
STARTCHAR 03A4
ENCODING 932
SWIDTH 540 0
DWIDTH 24 0
BBX 23 31 1 0
BITMAP
FFFFFE
001000
001000
001000
001000
001000
001000
001000
001000
001000
001000
001000
001000
001000
001000
001000
001000
001000
001000
001000
001000
001000
001000
001000
001000
001000
001000
001000
001000
001000
001000
ENDCHAR
STARTCHAR 03A5
ENCODING 933
SWIDTH 540 0
DWIDTH 24 0
BBX 22 31 1 0
BITMAP
800004
400008
600008
200010
100010
100020
080040
0C0040
040080
020080
020100
010200
018200
008400
004400
004800
003000
003000
001000
001000
001000
001000
001000
001000
001000
001000
001000
001000
001000
001000
001000
ENDCHAR
STARTCHAR 03A6
ENCODING 934
SWIDTH 810 0
DWIDTH 36 0
BBX 31 33 3 -1
BITMAP
00010000
00010000
003FF800
01C10700
060100C0
08010060
10010030
20010018
20010008
40010004
40010004
80010004
80010004
80010002
80010002
80010002
80010002
80010002
80010002
80010002
80010004
40010004
40010004
40010008
20010008
30010010
18010020
0C010040
03010180
00FFFE00
00010000
00010000
00010000
ENDCHAR
STARTCHAR 03A7
ENCODING 935
SWIDTH 540 0
DWIDTH 24 0
BBX 21 31 2 0
BITMAP
800008
400010
400020
200020
100040
100080
080080
040100
060200
020200
010400
018800
008800
005000
006000
002000
005000
009800
008800
010400
020600
020200
040100
080180
080080
100040
200060
200020
400010
800018
800008
ENDCHAR
STARTCHAR 03A8
ENCODING 936
SWIDTH 742 0
DWIDTH 33 0
BBX 26 31 4 0
BITMAP
80080040
80080040
80080040
80080040
80080040
80080040
80080040
80080040
80080040
80080040
80080040
80080040
80080040
80080080
80080080
80080080
40080100
60080100
30080200
18080C00
07087000
007F8000
00080000
00080000
00080000
00080000
00080000
00080000
00080000
00080000
00080000
ENDCHAR
STARTCHAR 03A9
ENCODING 937
SWIDTH 675 0
DWIDTH 30 0
BBX 25 32 3 0
BITMAP
00180000
01E3C000
06003000
0C001800
18000C00
10000400
20000200
20000200
40000100
40000100
40000100
40000100
80000080
80000080
80000080
80000080
80000080
80000080
80000180
40000100
40000100
40000100
40000100
20000200
20000200
10000400
08000800
04001000
02002000
0180C000
00808000
7F80FF00
ENDCHAR
STARTCHAR 03AA
ENCODING 938
SWIDTH 360 0
DWIDTH 16 0
BBX 11 39 3 0
BITMAP
0040
C0C0
4040
0000
0000
0000
0000
0000
FFE0
0400
0400
0400
0400
0400
0400
0400
0400
0400
0400
0400
0400
0400
0400
0400
0400
0400
0400
0400
0400
0400
0400
0400
0400
0400
0400
0400
0400
0400
FFE0
ENDCHAR
STARTCHAR 03AB
ENCODING 939
SWIDTH 540 0
DWIDTH 24 0
BBX 22 38 1 1
BITMAP
030300
000000
000000
000000
000000
000000
000000
800004
400008
600008
200010
100010
100020
080040
0C0040
040080
020080
020100
010200
018200
008400
004400
004800
003000
003000
001000
001000
001000
001000
001000
001000
001000
001000
001000
001000
001000
001000
001000
ENDCHAR
STARTCHAR 03AC
ENCODING 940
SWIDTH 630 0
DWIDTH 28 0
BBX 23 34 3 -1
BITMAP
001000
001000
002000
002000
004000
004000
008000
000000
000000
000000
07E000
181808
300408
200208
400210
400110
800110
8000A0
8000A0
8000A0
8000C0
800040
800040
8000C0
8000A0
800120
800120
800120
400210
400210
200410
100810
0C700E
020000
ENDCHAR
STARTCHAR 03AD
ENCODING 941
SWIDTH 517 0
DWIDTH 23 0
BBX 17 34 4 -1
BITMAP
002000
002000
004000
004000
008000
008000
000000
000000
000000
000000
07F000
380E00
600300
400100
400000
800000
400000
400000
400000
200000
180000
07F800
380000
400000
800000
800000
800000
800000
800000
800080
C00100
600200
1C3C00
024000
ENDCHAR
STARTCHAR 03AE
ENCODING 942
SWIDTH 562 0
DWIDTH 25 0
BBX 19 42 2 -9
BITMAP
000400
000400
000800
000800
001000
001000
002000
000000
000000
000000
00FC00
F30300
140080
180040
180040
100020
100020
100020
100020
100020
100020
100020
100020
100020
100020
100020
100020
100020
100020
100020
100020
100020
100020
000020
000020
000020
000020
000020
000020
000020
000020
000020
ENDCHAR
STARTCHAR 03AF
ENCODING 943
SWIDTH 247 0
DWIDTH 11 0
BBX 6 33 5 0
BITMAP
30
20
20
40
40
80
80
00
00
00
00
80
80
80
80
80
80
80
80
80
80
80
80
80
80
80
80
80
80
80
80
80
FC
ENDCHAR
STARTCHAR 03B0
ENCODING 944
SWIDTH 540 0
DWIDTH 24 0
BBX 16 34 4 -1
BITMAP
0040
0040
0888
189C
0100
0100
0000
0000
0000
0000
0000
8001
8001
8001
8001
8001
8001
8001
8001
8001
8001
8001
8001
8001
8001
8001
8001
4001
4002
4002
2006
300C
0E78
0080
ENDCHAR
STARTCHAR 03B1
ENCODING 945
SWIDTH 630 0
DWIDTH 28 0
BBX 23 24 3 -1
BITMAP
07E000
181808
300408
200208
400210
400110
800110
8000A0
8000A0
8000A0
8000C0
800040
800040
8000C0
8000A0
800120
800120
800120
400210
400210
200410
100810
0C700E
020000
ENDCHAR
STARTCHAR 03B2
ENCODING 946
SWIDTH 562 0
DWIDTH 25 0
BBX 17 42 5 -9
BITMAP
0FF000
300800
600400
400200
800200
800100
800100
800100
800100
800100
800200
800200
800400
800800
807000
87B800
800400
800200
800100
800080
800080
800080
800080
800080
800080
800080
800080
800080
800080
800100
C00200
B00400
8E3800
80C000
800000
800000
800000
800000
800000
800000
800000
800000
ENDCHAR
STARTCHAR 03B3
ENCODING 947
SWIDTH 450 0
DWIDTH 20 0
BBX 18 31 1 -9
BITMAP
E00040
200040
200040
100080
100080
100100
080100
080100
080200
040200
040200
020400
020400
020800
010800
010800
011000
009000
009000
00A000
006000
004000
004000
004000
004000
004000
004000
004000
004000
004000
004000
ENDCHAR
STARTCHAR 03B4
ENCODING 948
SWIDTH 540 0
DWIDTH 24 0
BBX 18 34 3 -1
BITMAP
3FFF80
200000
100000
0C0000
060000
030000
008000
004000
002000
001000
000800
03F400
0C0600
100200
200100
400080
400080
800080
800040
800040
800040
800040
800040
800040
800040
800040
800040
800040
400080
400080
200100
180200
0E1C00
012000
ENDCHAR
STARTCHAR 03B5
ENCODING 949
SWIDTH 517 0
DWIDTH 23 0
BBX 17 24 4 -1
BITMAP
07F000
380E00
600300
400100
400000
800000
400000
400000
400000
200000
180000
07F800
380000
400000
800000
800000
800000
800000
800000
800080
C00100
600200
1C3C00
024000
ENDCHAR
STARTCHAR 03B6
ENCODING 950
SWIDTH 427 0
DWIDTH 19 0
BBX 15 40 3 -7
BITMAP
FFFE
0002
0004
0008
0010
0020
0040
0040
0080
0100
0200
0400
0C00
0800
1000
2000
6000
4000
4000
8000
8000
8000
8000
8000
8000
8000
8000
4000
6000
3000
0C00
0380
0070
000C
0004
0008
0008
0008
0008
0010
ENDCHAR
STARTCHAR 03B7
ENCODING 951
SWIDTH 562 0
DWIDTH 25 0
BBX 19 32 2 -9
BITMAP
00FC00
F30300
140080
180040
180040
100020
100020
100020
100020
100020
100020
100020
100020
100020
100020
100020
100020
100020
100020
100020
100020
100020
100020
000020
000020
000020
000020
000020
000020
000020
000020
000020
ENDCHAR
STARTCHAR 03B8
ENCODING 952
SWIDTH 540 0
DWIDTH 24 0
BBX 18 34 3 -1
BITMAP
07F800
080400
100200
200100
200100
400080
400080
400080
400040
800040
800040
800040
800040
800040
800040
800040
FFFFC0
800040
800040
800040
800040
800040
800040
800040
400040
400080
400080
400080
200080
200100
100200
080600
061800
012000
ENDCHAR
STARTCHAR 03B9
ENCODING 953
SWIDTH 247 0
DWIDTH 11 0
BBX 6 22 5 0
BITMAP
80
80
80
80
80
80
80
80
80
80
80
80
80
80
80
80
80
80
80
80
80
FC
ENDCHAR
STARTCHAR 03BA
ENCODING 954
SWIDTH 472 0
DWIDTH 21 0
BBX 16 22 5 0
BITMAP
800E
8018
8010
8020
8040
8080
8100
8200
8400
8800
9400
A200
C100
8180
80C0
8040
8020
8010
8008
8004
8002
8001
ENDCHAR
STARTCHAR 03BB
ENCODING 955
SWIDTH 450 0
DWIDTH 20 0
BBX 19 33 1 0
BITMAP
3C0000
040000
040000
020000
020000
020000
010000
010000
008000
008000
008000
00C000
014000
014000
012000
022000
022000
041000
041000
041000
080800
080800
080800
100400
100400
100400
200200
200200
400200
400100
400100
800080
8000E0
ENDCHAR
STARTCHAR 03BC
ENCODING 956
SWIDTH 562 0
DWIDTH 25 0
BBX 19 31 5 -9
BITMAP
800200
800200
800200
800200
800200
800200
800200
800200
800200
800200
800200
800200
800200
800200
800200
800200
800200
800200
800200
C00600
A00A00
9C71E0
818000
800000
800000
800000
800000
800000
800000
800000
800000
ENDCHAR
STARTCHAR 03BD
ENCODING 957
SWIDTH 450 0
DWIDTH 20 0
BBX 18 22 1 0
BITMAP
E00040
200040
200040
100080
100080
100080
080100
080100
080200
040200
040200
040400
020400
020400
010800
010800
011000
009000
009000
00A000
006000
006000
ENDCHAR
STARTCHAR 03BE
ENCODING 958
SWIDTH 450 0
DWIDTH 20 0
BBX 15 40 3 -7
BITMAP
7FFE
0600
0800
1000
2000
2000
2000
2000
2000
2000
2000
2000
1000
0800
0780
0770
1800
2000
4000
4000
8000
8000
8000
8000
8000
8000
8000
4000
2000
1000
0C00
0380
0078
0006
0004
0004
0004
0004
0008
0008
ENDCHAR
STARTCHAR 03BF
ENCODING 959
SWIDTH 540 0
DWIDTH 24 0
BBX 18 24 3 -1
BITMAP
03F000
0C0C00
300200
200100
400080
400080
800040
800040
800040
800040
800040
800040
800040
800040
800040
800040
800040
800040
400080
400080
200100
100200
0E1C00
012000
ENDCHAR
STARTCHAR 03C0
ENCODING 960
SWIDTH 585 0
DWIDTH 26 0
BBX 22 22 2 0
BITMAP
FFFFFC
100040
100040
100040
100040
100040
100040
100040
100040
100040
100040
100040
100040
100040
100040
100040
100040
100040
100040
100040
100040
100078
ENDCHAR
STARTCHAR 03C1
ENCODING 961
SWIDTH 517 0
DWIDTH 23 0
BBX 18 32 3 -9
BITMAP
03F000
0C0C00
100200
200100
200080
400080
400080
400040
800040
800040
800040
800040
800040
800040
800040
800040
800040
800080
C00080
C00100
A00300
900600
8E1800
81A000
800000
800000
800000
800000
800000
800000
800000
800000
ENDCHAR
STARTCHAR 03C2
ENCODING 962
SWIDTH 472 0
DWIDTH 21 0
BBX 16 30 3 -7
BITMAP
03F0
0C0C
3002
2001
4001
4000
8000
8000
8000
8000
8000
8000
8000
8000
8000
8000
4000
6000
3000
1800
0600
01C0
003C
0002
0002
0002
0004
0004
0004
0004
ENDCHAR
STARTCHAR 03C3
ENCODING 963
SWIDTH 540 0
DWIDTH 24 0
BBX 20 23 3 -1
BITMAP
07FFF0
180600
200100
600180
400080
800080
800040
800040
800040
800040
800040
800040
800040
800040
800040
800040
800040
400080
400080
200100
180600
0E1C00
012000
ENDCHAR
STARTCHAR 03C4
ENCODING 964
SWIDTH 472 0
DWIDTH 21 0
BBX 17 22 2 0
BITMAP
FFFF80
008000
008000
008000
008000
008000
008000
008000
008000
008000
008000
008000
008000
008000
008000
008000
008000
008000
008000
008000
008000
00FC00
ENDCHAR
STARTCHAR 03C5
ENCODING 965
SWIDTH 540 0
DWIDTH 24 0
BBX 16 23 4 -1
BITMAP
8001
8001
8001
8001
8001
8001
8001
8001
8001
8001
8001
8001
8001
8001
8001
8001
4001
4002
4002
2006
300C
0E78
0080
ENDCHAR
STARTCHAR 03C6
ENCODING 966
SWIDTH 675 0
DWIDTH 30 0
BBX 24 32 3 -9
BITMAP
0C01F0
10020C
200404
600802
400802
401001
801001
801001
801001
801001
801001
801001
801001
801001
801001
801001
801002
401002
401002
201004
301008
081030
0791C0
005600
001000
001000
001000
001000
001000
001000
001000
001000
ENDCHAR
STARTCHAR 03C7
ENCODING 967
SWIDTH 450 0
DWIDTH 20 0
BBX 19 31 1 -9
BITMAP
E00080
200080
100100
100100
080200
080200
040400
040400
020800
021000
021000
012000
012000
00C000
00C000
00C000
014000
012000
022000
021000
041000
040800
080800
080800
100400
100400
200200
200200
400100
400100
8000E0
ENDCHAR
STARTCHAR 03C8
ENCODING 968
SWIDTH 675 0
DWIDTH 30 0
BBX 23 41 4 -9
BITMAP
001000
001000
001000
001000
001000
001000
001000
001000
001000
001000
801002
801002
801002
801002
801002
801002
801002
801002
801002
801002
801002
801002
801002
801002
801004
801004
401004
401004
201008
201018
181030
0793C0
007400
001000
001000
001000
001000
001000
001000
001000
001000
ENDCHAR
STARTCHAR 03C9
ENCODING 969
SWIDTH 697 0
DWIDTH 31 0
BBX 25 24 3 -1
BITMAP
04001000
18000C00
30000600
20000200
40000100
40000100
40000100
80080080
80080080
80080080
80080080
80080080
80080080
80080080
80080080
80080080
80080080
80180080
80140100
40140100
40140100
20220200
19C1CC00
06003000
ENDCHAR
STARTCHAR 03CA
ENCODING 970
SWIDTH 247 0
DWIDTH 11 0
BBX 11 31 0 0
BITMAP
4040
E060
0000
0000
0000
0000
0000
0000
0000
0400
0400
0400
0400
0400
0400
0400
0400
0400
0400
0400
0400
0400
0400
0400
0400
0400
0400
0400
0400
0400
07E0
ENDCHAR
STARTCHAR 03CB
ENCODING 971
SWIDTH 540 0
DWIDTH 24 0
BBX 16 32 4 -1
BITMAP
0808
1818
0000
0000
0000
0000
0000
0000
0000
8001
8001
8001
8001
8001
8001
8001
8001
8001
8001
8001
8001
8001
8001
8001
8001
4001
4002
4002
2006
300C
0E78
0080
ENDCHAR
STARTCHAR 03CC
ENCODING 972
SWIDTH 540 0
DWIDTH 24 0
BBX 18 34 3 -1
BITMAP
001000
001000
002000
002000
004000
004000
008000
000000
000000
000000
03F000
0C0C00
300200
200100
400080
400080
800040
800040
800040
800040
800040
800040
800040
800040
800040
800040
800040
800040
400080
400080
200100
100200
0E1C00
012000
ENDCHAR
STARTCHAR 03CD
ENCODING 973
SWIDTH 540 0
DWIDTH 24 0
BBX 16 34 4 -1
BITMAP
0020
0020
0040
0040
0080
0080
0000
0000
0000
0000
0000
8001
8001
8001
8001
8001
8001
8001
8001
8001
8001
8001
8001
8001
8001
8001
8001
4001
4002
4002
2006
300C
0E78
0080
ENDCHAR
STARTCHAR 03CE
ENCODING 974
SWIDTH 697 0
DWIDTH 31 0
BBX 25 34 3 -1
BITMAP
00030000
00020000
00020000
00040000
00040000
00080000
00080000
00000000
00000000
00000000
04001000
18000C00
30000600
20000200
40000100
40000100
40000100
80080080
80080080
80080080
80080080
80080080
80080080
80080080
80080080
80080080
80080080
80180080
80140100
40140100
40140100
20220200
19C1CC00
06003000
ENDCHAR
STARTCHAR 0400
ENCODING 1024
SWIDTH 540 0
DWIDTH 24 0
BBX 17 41 5 0
BITMAP
080000
040000
020000
010000
010000
008000
004000
000000
000000
000000
FFFF80
800000
800000
800000
800000
800000
800000
800000
800000
800000
800000
800000
800000
800000
800000
FFFF00
800000
800000
800000
800000
800000
800000
800000
800000
800000
800000
800000
800000
800000
800000
FFFF80
ENDCHAR
STARTCHAR 0401
ENCODING 1025
SWIDTH 540 0
DWIDTH 24 0
BBX 17 39 5 0
BITMAP
000800
181800
080800
000000
000000
000000
000000
000000
FFFF80
800000
800000
800000
800000
800000
800000
800000
800000
800000
800000
800000
800000
800000
800000
FFFF00
800000
800000
800000
800000
800000
800000
800000
800000
800000
800000
800000
800000
800000
800000
FFFF80
ENDCHAR
STARTCHAR 0402
ENCODING 1026
SWIDTH 765 0
DWIDTH 34 0
BBX 30 38 1 -7
BITMAP
FFFFFE00
00100000
00100000
00100000
00100000
00100000
00100000
00100000
00100000
00100000
00100000
00100000
00107E00
001F81C0
00100030
00100010
00100008
0010000C
00100004
00100004
00100004
00100004
00100004
00100004
00100004
00100004
00100004
00100004
00100004
00100004
00100004
00000004
00000004
00000004
00000004
00000008
00000018
000003F0
ENDCHAR
STARTCHAR 0403
ENCODING 1027
SWIDTH 495 0
DWIDTH 22 0
BBX 16 41 5 0
BITMAP
0010
0020
0040
00C0
0080
0100
0200
0000
0000
0000
FFFF
8000
8000
8000
8000
8000
8000
8000
8000
8000
8000
8000
8000
8000
8000
8000
8000
8000
8000
8000
8000
8000
8000
8000
8000
8000
8000
8000
8000
8000
8000
ENDCHAR
STARTCHAR 0404
ENCODING 1028
SWIDTH 607 0
DWIDTH 27 0
BBX 21 33 3 -1
BITMAP
001000
01E700
0600C0
080020
100010
300018
200008
400000
400000
400000
400000
800000
800000
800000
800000
800000
FFFF80
800000
800000
800000
800000
800000
400000
400000
400000
400000
200008
200008
100010
080020
0600C0
01C700
003000
ENDCHAR
STARTCHAR 0405
ENCODING 1029
SWIDTH 540 0
DWIDTH 24 0
BBX 20 33 2 -1
BITMAP
002000
079E00
180180
200040
600020
400000
400000
400000
400000
400000
400000
400000
200000
300000
0C0000
03C000
003C00
000300
0000C0
000040
000020
000020
000010
000010
000010
000010
000020
800020
400020
200040
180180
079E00
002000
ENDCHAR
STARTCHAR 0406
ENCODING 1030
SWIDTH 360 0
DWIDTH 16 0
BBX 11 31 3 0
BITMAP
FFE0
0400
0400
0400
0400
0400
0400
0400
0400
0400
0400
0400
0400
0400
0400
0400
0400
0400
0400
0400
0400
0400
0400
0400
0400
0400
0400
0400
0400
0400
FFE0
ENDCHAR
STARTCHAR 0407
ENCODING 1031
SWIDTH 360 0
DWIDTH 16 0
BBX 11 39 3 0
BITMAP
0040
C0C0
4040
0000
0000
0000
0000
0000
FFE0
0400
0400
0400
0400
0400
0400
0400
0400
0400
0400
0400
0400
0400
0400
0400
0400
0400
0400
0400
0400
0400
0400
0400
0400
0400
0400
0400
0400
0400
FFE0
ENDCHAR
STARTCHAR 0408
ENCODING 1032
SWIDTH 450 0
DWIDTH 20 0
BBX 15 32 1 -1
BITMAP
1FFE
0002
0002
0002
0002
0002
0002
0002
0002
0002
0002
0002
0002
0002
0002
0002
0002
0002
0002
0002
0002
0002
0002
0002
0002
0002
8002
4004
4004
3008
1E70
0180
ENDCHAR
STARTCHAR 0409
ENCODING 1033
SWIDTH 967 0
DWIDTH 43 0
BBX 41 31 0 0
BITMAP
00FFFE000000
008002000000
008002000000
008002000000
008002000000
008002000000
008002000000
008002000000
008002000000
008002000000
008002000000
008002000000
008002000000
008003FFE000
008002001800
008002000600
008002000200
008002000100
010002000100
010002000100
010002000080
010002000080
010002000080
020002000080
020002000080
020002000100
040002000100
040002000300
0C0002000200
080002000C00
F00003FFF000
ENDCHAR
STARTCHAR 040A
ENCODING 1034
SWIDTH 1012 0
DWIDTH 45 0
BBX 38 31 5 0
BITMAP
8000100000
8000100000
8000100000
8000100000
8000100000
8000100000
8000100000
8000100000
8000100000
8000100000
8000100000
8000100000
8000100000
8000100000
FFFFFFFF80
8000100060
8000100010
8000100008
800010000C
8000100004
8000100004
8000100004
8000100004
8000100004
8000100004
8000100004
8000100004
8000100008
8000100010
8000100020
80001FFFC0
ENDCHAR
STARTCHAR 040B
ENCODING 1035
SWIDTH 765 0
DWIDTH 34 0
BBX 31 31 1 0
BITMAP
FFFFFE00
00100000
00100000
00100000
00100000
00100000
00100000
00100000
00100000
00100000
00100000
00100000
00107E00
001F81C0
00100030
00100018
00100008
00100004
00100004
00100004
00100002
00100002
00100002
00100002
00100002
00100002
00100002
00100002
00100002
00100002
00100002
ENDCHAR
STARTCHAR 040C
ENCODING 1036
SWIDTH 607 0
DWIDTH 27 0
BBX 20 41 5 0
BITMAP
001800
001000
002000
004000
004000
008000
010000
000000
000000
000000
8000F0
800080
800100
800100
800200
800600
800400
800800
800800
801000
803000
802000
804000
804000
808000
FF8000
80C000
804000
802000
802000
801000
801800
800800
800400
800400
800200
800300
800100
800080
800080
800070
ENDCHAR
STARTCHAR 040D
ENCODING 1037
SWIDTH 675 0
DWIDTH 30 0
BBX 21 41 5 0
BITMAP
020000
010000
008000
00C000
004000
002000
001000
000000
000000
000000
800008
800018
800028
800028
800048
8000C8
800088
800108
800308
800208
800408
800C08
800808
801008
803008
802008
804008
804008
808008
810008
810008
820008
840008
840008
880008
900008
900008
A00008
C00008
C00008
800008
ENDCHAR
STARTCHAR 040E
ENCODING 1038
SWIDTH 562 0
DWIDTH 25 0
BBX 22 40 2 0
BITMAP
020080
020100
010100
008200
007C00
000000
000000
000000
000000
800004
80000C
400008
400008
200010
200010
100030
100020
180020
080040
0C0040
0400C0
060080
020080
030100
010100
018300
008200
00C200
004400
004400
002C00
002800
001800
001000
001000
001000
002000
002000
004000
07C000
ENDCHAR
STARTCHAR 040F
ENCODING 1039
SWIDTH 675 0
DWIDTH 30 0
BBX 20 38 5 -7
BITMAP
800010
800010
800010
800010
800010
800010
800010
800010
800010
800010
800010
800010
800010
800010
800010
800010
800010
800010
800010
800010
800010
800010
800010
800010
800010
800010
800010
800010
800010
800010
FFFFF0
002000
002000
002000
002000
002000
002000
002000
ENDCHAR
STARTCHAR 0410
ENCODING 1040
SWIDTH 585 0
DWIDTH 26 0
BBX 23 31 2 0
BITMAP
003000
002800
002800
004800
004400
004400
008400
008200
008200
010200
010100
030100
020080
020080
040080
040040
040040
080040
080020
080020
1FFFE0
100010
300010
200010
200008
400008
400004
400004
800004
800002
800002
ENDCHAR
STARTCHAR 0411
ENCODING 1041
SWIDTH 585 0
DWIDTH 26 0
BBX 19 31 5 0
BITMAP
FFFF00
800000
800000
800000
800000
800000
800000
800000
800000
800000
800000
800000
800000
FFF800
800700
800180
8000C0
800040
800040
800020
800020
800020
800020
800020
800020
800020
800040
800040
800080
800300
FFFC00
ENDCHAR
STARTCHAR 0412
ENCODING 1042
SWIDTH 607 0
DWIDTH 27 0
BBX 19 31 5 0
BITMAP
FFFC00
800300
800180
800080
800040
800040
800040
800040
800040
800040
800040
800080
800180
800300
FFFC00
800300
800080
800040
800020
800020
800020
800020
800020
800020
800020
800020
800020
800040
8000C0
800180
FFFE00
ENDCHAR
STARTCHAR 0413
ENCODING 1043
SWIDTH 495 0
DWIDTH 22 0
BBX 16 31 5 0
BITMAP
FFFF
8000
8000
8000
8000
8000
8000
8000
8000
8000
8000
8000
8000
8000
8000
8000
8000
8000
8000
8000
8000
8000
8000
8000
8000
8000
8000
8000
8000
8000
8000
ENDCHAR
STARTCHAR 0414
ENCODING 1044
SWIDTH 652 0
DWIDTH 29 0
BBX 27 38 0 -7
BITMAP
00FFFF00
00800100
00800100
00800100
00800100
00800100
00800100
00800100
00800100
00800100
00800100
00800100
00800100
00800100
00800100
00800100
00800100
01000100
01000100
01000100
01000100
01000100
01000100
02000100
02000100
02000100
04000100
04000100
04000100
08000100
FFFFFFE0
80000020
80000020
80000020
80000020
80000020
80000020
80000020
ENDCHAR
STARTCHAR 0415
ENCODING 1045
SWIDTH 540 0
DWIDTH 24 0
BBX 17 31 5 0
BITMAP
FFFF80
800000
800000
800000
800000
800000
800000
800000
800000
800000
800000
800000
800000
800000
800000
FFFF00
800000
800000
800000
800000
800000
800000
800000
800000
800000
800000
800000
800000
800000
800000
FFFF80
ENDCHAR
STARTCHAR 0416
ENCODING 1046
SWIDTH 900 0
DWIDTH 40 0
BBX 36 31 2 0
BITMAP
F0002000F0
1800200080
0800200100
0C00200100
0400200200
0200200200
0200200400
0100200C00
0100200800
0080201800
0080201000
0040202000
0040202000
0020204000
0020204000
001FFF8000
0020204000
0060202000
0040202000
0080201000
0080201000
0100200800
0100200800
0200200400
0200200600
0400200200
0400200100
0800200100
1800200080
1000200080
E000200070
ENDCHAR
STARTCHAR 0417
ENCODING 1047
SWIDTH 562 0
DWIDTH 25 0
BBX 20 33 3 -1
BITMAP
004000
079E00
180100
200080
400040
400060
000020
000020
000020
000020
000020
000060
000040
000080
000100
000E00
07FC00
000300
0000C0
000060
000020
000020
000010
000010
000010
000030
000020
800020
800040
4000C0
300180
0F0E00
007000
ENDCHAR
STARTCHAR 0418
ENCODING 1048
SWIDTH 675 0
DWIDTH 30 0
BBX 21 31 5 0
BITMAP
800008
800018
800028
800028
800048
8000C8
800088
800108
800308
800208
800408
800C08
800808
801008
803008
802008
804008
804008
808008
810008
810008
820008
840008
840008
880008
900008
900008
A00008
C00008
C00008
800008
ENDCHAR
STARTCHAR 0419
ENCODING 1049
SWIDTH 675 0
DWIDTH 30 0
BBX 21 40 5 0
BITMAP
040100
040200
020200
010400
00F800
000000
000000
000000
000000
800008
800018
800028
800028
800048
8000C8
800088
800108
800308
800208
800408
800C08
800808
801008
803008
802008
804008
804008
808008
810008
810008
820008
840008
840008
880008
900008
900008
A00008
C00008
C00008
800008
ENDCHAR
STARTCHAR 041A
ENCODING 1050
SWIDTH 607 0
DWIDTH 27 0
BBX 20 31 5 0
BITMAP
8000F0
800080
800100
800100
800200
800600
800400
800800
800800
801000
803000
802000
804000
804000
808000
FF8000
80C000
804000
802000
802000
801000
801800
800800
800400
800400
800200
800300
800100
800080
800080
800070
ENDCHAR
STARTCHAR 041B
ENCODING 1051
SWIDTH 630 0
DWIDTH 28 0
BBX 24 31 0 0
BITMAP
00FFFF
008001
008001
008001
008001
008001
008001
008001
008001
008001
008001
008001
008001
008001
008001
008001
008001
008001
010001
010001
010001
010001
010001
020001
020001
020001
040001
040001
0C0001
080001
F00001
ENDCHAR
STARTCHAR 041C
ENCODING 1052
SWIDTH 787 0
DWIDTH 35 0
BBX 26 31 5 0
BITMAP
C00000C0
C0000140
A0000140
A0000240
90000440
88000440
88000840
84000840
84001040
82002040
81002040
81004040
8080C040
80C08040
80410040
80210040
80220040
80160040
801C0040
80080040
80000040
80000040
80000040
80000040
80000040
80000040
80000040
80000040
80000040
80000040
80000040
ENDCHAR
STARTCHAR 041D
ENCODING 1053
SWIDTH 675 0
DWIDTH 30 0
BBX 21 31 5 0
BITMAP
800008
800008
800008
800008
800008
800008
800008
800008
800008
800008
800008
800008
800008
800008
800008
FFFFF8
800008
800008
800008
800008
800008
800008
800008
800008
800008
800008
800008
800008
800008
800008
800008
ENDCHAR
STARTCHAR 041E
ENCODING 1054
SWIDTH 675 0
DWIDTH 30 0
BBX 24 33 3 -1
BITMAP
000C00
01E380
060060
080010
100008
300004
200004
600002
400002
400002
400001
800001
800001
800001
800001
800001
800001
800001
800001
800001
800001
800001
400001
400002
400002
600002
200004
300004
100008
0C0010
060060
01E380
000400
ENDCHAR
STARTCHAR 041F
ENCODING 1055
SWIDTH 675 0
DWIDTH 30 0
BBX 20 31 5 0
BITMAP
FFFFF0
800010
800010
800010
800010
800010
800010
800010
800010
800010
800010
800010
800010
800010
800010
800010
800010
800010
800010
800010
800010
800010
800010
800010
800010
800010
800010
800010
800010
800010
800010
ENDCHAR
STARTCHAR 0420
ENCODING 1056
SWIDTH 585 0
DWIDTH 26 0
BBX 19 31 5 0
BITMAP
FFFE00
800180
8000C0
800040
800020
800020
800020
800020
800020
800020
800020
800020
800020
800040
800080
800300
FFFC00
800000
800000
800000
800000
800000
800000
800000
800000
800000
800000
800000
800000
800000
800000
ENDCHAR
STARTCHAR 0421
ENCODING 1057
SWIDTH 607 0
DWIDTH 27 0
BBX 21 33 3 -1
BITMAP
001000
01E700
0600C0
080020
100010
300018
200008
400000
400000
400000
400000
800000
800000
800000
800000
800000
800000
800000
800000
800000
800000
800000
400000
400000
400000
400000
200008
200008
100010
080020
0600C0
01C700
003000
ENDCHAR
STARTCHAR 0422
ENCODING 1058
SWIDTH 540 0
DWIDTH 24 0
BBX 23 31 1 0
BITMAP
FFFFFE
001000
001000
001000
001000
001000
001000
001000
001000
001000
001000
001000
001000
001000
001000
001000
001000
001000
001000
001000
001000
001000
001000
001000
001000
001000
001000
001000
001000
001000
001000
ENDCHAR
STARTCHAR 0423
ENCODING 1059
SWIDTH 562 0
DWIDTH 25 0
BBX 22 31 2 0
BITMAP
800004
80000C
400008
400008
200010
200010
100030
100020
180020
080040
0C0040
0400C0
060080
020080
030100
010100
018300
008200
00C200
004400
004400
002C00
002800
001800
001000
001000
001000
002000
002000
004000
07C000
ENDCHAR
STARTCHAR 0424
ENCODING 1060
SWIDTH 810 0
DWIDTH 36 0
BBX 30 33 3 -1
BITMAP
00010000
00010000
00010000
00010000
00FFFE00
07010180
0C0100C0
10010020
20010010
60010008
40010008
80010004
80010004
80010004
80010004
80010004
80010004
80010004
80010004
80010004
80010004
80010004
40010008
40010008
20010010
10010020
0C010040
06010180
01FFFE00
00010000
00010000
00010000
00010000
ENDCHAR
STARTCHAR 0425
ENCODING 1061
SWIDTH 540 0
DWIDTH 24 0
BBX 21 31 2 0
BITMAP
800008
400010
400020
200020
100040
100080
080080
040100
060200
020200
010400
018800
008800
005000
006000
002000
005000
009800
008800
010400
020600
020200
040100
080180
080080
100040
200060
200020
400010
800018
800008
ENDCHAR
STARTCHAR 0426
ENCODING 1062
SWIDTH 697 0
DWIDTH 31 0
BBX 24 38 5 -7
BITMAP
800010
800010
800010
800010
800010
800010
800010
800010
800010
800010
800010
800010
800010
800010
800010
800010
800010
800010
800010
800010
800010
800010
800010
800010
800010
800010
800010
800010
800010
800010
FFFFFF
000001
000001
000001
000001
000001
000001
000001
ENDCHAR
STARTCHAR 0427
ENCODING 1063
SWIDTH 607 0
DWIDTH 27 0
BBX 20 31 3 0
BITMAP
800010
800010
800010
800010
800010
800010
800010
800010
800010
800010
800010
800010
C00010
400010
400010
200010
180010
0F01F0
00FA10
000010
000010
000010
000010
000010
000010
000010
000010
000010
000010
000010
000010
ENDCHAR
STARTCHAR 0428
ENCODING 1064
SWIDTH 900 0
DWIDTH 40 0
BBX 30 31 5 0
BITMAP
80010004
80010004
80010004
80010004
80010004
80010004
80010004
80010004
80010004
80010004
80010004
80010004
80010004
80010004
80010004
80010004
80010004
80010004
80010004
80010004
80010004
80010004
80010004
80010004
80010004
80010004
80010004
80010004
80010004
80010004
FFFFFFFC
ENDCHAR
STARTCHAR 0429
ENCODING 1065
SWIDTH 922 0
DWIDTH 41 0
BBX 34 38 5 -7
BITMAP
8001000400
8001000400
8001000400
8001000400
8001000400
8001000400
8001000400
8001000400
8001000400
8001000400
8001000400
8001000400
8001000400
8001000400
8001000400
8001000400
8001000400
8001000400
8001000400
8001000400
8001000400
8001000400
8001000400
8001000400
8001000400
8001000400
8001000400
8001000400
8001000400
8001000400
FFFFFFFFC0
0000000040
0000000040
0000000040
0000000040
0000000040
0000000040
0000000040
ENDCHAR
STARTCHAR 042A
ENCODING 1066
SWIDTH 720 0
DWIDTH 32 0
BBX 29 31 1 0
BITMAP
FFC00000
00400000
00400000
00400000
00400000
00400000
00400000
00400000
00400000
00400000
00400000
00400000
00400000
007FFE00
00400180
00400040
00400020
00400010
00400010
00400010
00400010
00400008
00400008
00400018
00400010
00400010
00400010
00400020
00400060
004000C0
007FFF00
ENDCHAR
STARTCHAR 042B
ENCODING 1067
SWIDTH 810 0
DWIDTH 36 0
BBX 27 31 5 0
BITMAP
80000020
80000020
80000020
80000020
80000020
80000020
80000020
80000020
80000020
80000020
80000020
80000020
80000020
FFF80020
80070020
80018020
8000C020
80004020
80004020
80002020
80002020
80002020
80002020
80002020
80002020
80002020
80004020
80004020
80008020
80030020
FFFC0020
ENDCHAR
STARTCHAR 042C
ENCODING 1068
SWIDTH 607 0
DWIDTH 27 0
BBX 19 31 5 0
BITMAP
800000
800000
800000
800000
800000
800000
800000
800000
800000
800000
800000
800000
800000
FFFC00
800300
800080
800040
800020
800020
800020
800020
800020
800020
800020
800020
800020
800020
800040
8000C0
800180
FFFE00
ENDCHAR
STARTCHAR 042D
ENCODING 1069
SWIDTH 607 0
DWIDTH 27 0
BBX 21 33 3 -1
BITMAP
00E000
071E00
180300
200080
400040
400020
800020
000010
000010
000010
000010
000008
000008
000008
000008
000008
07FFF8
000008
000008
000008
000008
000008
000010
000010
000010
800010
800020
C00020
400040
200080
180300
071C00
006000
ENDCHAR
STARTCHAR 042E
ENCODING 1070
SWIDTH 900 0
DWIDTH 40 0
BBX 32 33 5 -1
BITMAP
00000C00
8001E380
80060060
800C0010
80180008
80100004
80200004
80200002
80400002
80400002
80400001
80400001
80400001
80400001
80C00001
80C00001
FFC00001
80C00001
80400001
80400001
80400001
80400001
80400001
80400002
80400002
80200002
80200004
80100004
80180008
800C0010
80060060
8001E380
00000C00
ENDCHAR
STARTCHAR 042F
ENCODING 1071
SWIDTH 630 0
DWIDTH 28 0
BBX 21 31 2 0
BITMAP
03FFF8
0C0008
180008
100008
200008
200008
200008
200008
200008
200008
200008
200008
200008
100008
080008
060008
01FFF8
004008
008008
008008
010008
010008
020008
020008
040008
040008
080008
080008
100008
300008
E00008
ENDCHAR
STARTCHAR 0430
ENCODING 1072
SWIDTH 517 0
DWIDTH 23 0
BBX 19 24 3 -1
BITMAP
07E000
181800
200400
400200
400200
000200
000200
000200
000200
000200
000200
1FFE00
200200
400200
800200
800200
800200
800200
800200
800200
800600
600A00
38F1E0
040000
ENDCHAR
STARTCHAR 0431
ENCODING 1073
SWIDTH 540 0
DWIDTH 24 0
BBX 18 34 3 -1
BITMAP
003F80
03C000
0C0000
180000
300000
200000
600000
400000
400000
400000
C00000
87FC00
980200
B00100
A00080
C00080
C00040
800040
800040
800040
800040
800040
800040
800040
800040
800040
800040
400040
400080
600080
200100
180200
061C00
016000
ENDCHAR
STARTCHAR 0432
ENCODING 1074
SWIDTH 540 0
DWIDTH 24 0
BBX 16 22 5 0
BITMAP
FFF8
8004
8004
8002
8002
8002
8002
8004
8004
8008
FFF0
801C
8002
8002
8001
8001
8001
8001
8002
8002
8004
FFF8
ENDCHAR
STARTCHAR 0433
ENCODING 1075
SWIDTH 427 0
DWIDTH 19 0
BBX 12 22 5 0
BITMAP
FFF0
8000
8000
8000
8000
8000
8000
8000
8000
8000
8000
8000
8000
8000
8000
8000
8000
8000
8000
8000
8000
8000
ENDCHAR
STARTCHAR 0434
ENCODING 1076
SWIDTH 540 0
DWIDTH 24 0
BBX 22 28 0 -6
BITMAP
03FFE0
020020
020020
020020
020020
020020
020020
020020
020020
020020
020020
020020
020020
040020
040020
040020
040020
080020
080020
100020
100020
FFFFFC
800004
800004
800004
800004
800004
800004
ENDCHAR
STARTCHAR 0435
ENCODING 1077
SWIDTH 517 0
DWIDTH 23 0
BBX 18 24 3 -1
BITMAP
03F000
0C0C00
100200
200100
400100
400080
800080
800040
800040
800040
800040
FFFFC0
800000
800000
800000
800000
800000
800040
400080
400080
200100
180200
0E1C00
012000
ENDCHAR
STARTCHAR 0436
ENCODING 1078
SWIDTH 720 0
DWIDTH 32 0
BBX 29 22 2 0
BITMAP
70020070
10020080
08020080
08020100
04020100
02020200
02020200
01020400
01020400
00820800
00FFF000
01020800
01020400
02020400
02020200
04020200
04020100
08020100
08020080
10020080
10020040
E0020078
ENDCHAR
STARTCHAR 0437
ENCODING 1079
SWIDTH 472 0
DWIDTH 21 0
BBX 16 24 2 -1
BITMAP
07F0
180C
2002
4002
4001
0001
0001
0001
0002
0006
0008
07F0
001C
0002
0001
0001
0001
0001
0001
C001
4002
3006
0E38
00C0
ENDCHAR
STARTCHAR 0438
ENCODING 1080
SWIDTH 562 0
DWIDTH 25 0
BBX 16 22 5 0
BITMAP
8003
8003
8005
8009
8009
8011
8021
8021
8041
8081
8181
8101
8201
8401
8401
8801
9001
9001
A001
C001
C001
8001
ENDCHAR
STARTCHAR 0439
ENCODING 1081
SWIDTH 562 0
DWIDTH 25 0
BBX 16 32 5 0
BITMAP
2008
1008
1010
0820
07C0
0000
0000
0000
0000
0000
8003
8003
8005
8009
8009
8011
8021
8021
8041
8081
8181
8101
8201
8401
8401
8801
9001
9001
A001
C001
C001
8001
ENDCHAR
STARTCHAR 043A
ENCODING 1082
SWIDTH 517 0
DWIDTH 23 0
BBX 16 22 5 0
BITMAP
800E
8008
8010
8020
8020
8040
8080
8080
8100
8200
FE00
8100
8100
8080
80C0
8040
8020
8020
8010
8008
8008
8007
ENDCHAR
STARTCHAR 043B
ENCODING 1083
SWIDTH 517 0
DWIDTH 23 0
BBX 19 22 0 0
BITMAP
03FFE0
020020
020020
020020
020020
020020
020020
020020
020020
020020
020020
020020
020020
020020
020020
040020
040020
040020
080020
080020
100020
F00020
ENDCHAR
STARTCHAR 043C
ENCODING 1084
SWIDTH 675 0
DWIDTH 30 0
BBX 21 22 5 0
BITMAP
C00018
C00028
A00048
900048
900088
880188
880108
840208
820208
820408
810808
818808
809008
805008
806008
800008
800008
800008
800008
800008
800008
800008
ENDCHAR
STARTCHAR 043D
ENCODING 1085
SWIDTH 562 0
DWIDTH 25 0
BBX 16 22 5 0
BITMAP
8001
8001
8001
8001
8001
8001
8001
8001
8001
8001
FFFF
8001
8001
8001
8001
8001
8001
8001
8001
8001
8001
8001
ENDCHAR
STARTCHAR 043E
ENCODING 1086
SWIDTH 540 0
DWIDTH 24 0
BBX 18 24 3 -1
BITMAP
03F000
0C0C00
300200
200100
400080
400080
800040
800040
800040
800040
800040
800040
800040
800040
800040
800040
800040
800040
400080
400080
200100
100200
0E1C00
012000
ENDCHAR
STARTCHAR 043F
ENCODING 1087
SWIDTH 562 0
DWIDTH 25 0
BBX 15 22 5 0
BITMAP
FFFE
8002
8002
8002
8002
8002
8002
8002
8002
8002
8002
8002
8002
8002
8002
8002
8002
8002
8002
8002
8002
8002
ENDCHAR
STARTCHAR 0440
ENCODING 1088
SWIDTH 562 0
DWIDTH 25 0
BBX 17 32 5 -9
BITMAP
07E000
981800
A00600
C00200
800100
800100
800080
800080
800080
800080
800080
800080
800080
800080
800080
800080
800080
800080
800100
800100
C00200
B00400
8E3800
804000
800000
800000
800000
800000
800000
800000
800000
800000
ENDCHAR
STARTCHAR 0441
ENCODING 1089
SWIDTH 472 0
DWIDTH 21 0
BBX 17 24 3 -1
BITMAP
03F000
0C0C00
300200
200100
400100
400000
800000
800000
800000
800000
800000
800000
800000
800000
800000
800000
800000
800000
400000
400080
200100
100200
0E1C00
012000
ENDCHAR
STARTCHAR 0442
ENCODING 1090
SWIDTH 472 0
DWIDTH 21 0
BBX 17 22 2 0
BITMAP
FFFF80
008000
008000
008000
008000
008000
008000
008000
008000
008000
008000
008000
008000
008000
008000
008000
008000
008000
008000
008000
008000
008000
ENDCHAR
STARTCHAR 0443
ENCODING 1091
SWIDTH 450 0
DWIDTH 20 0
BBX 18 31 1 -9
BITMAP
800040
400080
400080
200080
200100
200100
100200
100200
100200
080400
080400
040400
040800
040800
021000
021000
021000
012000
012000
012000
00C000
00C000
008000
008000
008000
010000
010000
010000
020000
020000
3C0000
ENDCHAR
STARTCHAR 0444
ENCODING 1092
SWIDTH 720 0
DWIDTH 32 0
BBX 26 41 3 -9
BITMAP
00040000
00040000
00040000
00040000
00040000
00040000
00040000
00040000
00040000
0FC47C00
10258300
20160100
400C0080
400C0080
80040040
80040040
80040040
80040040
80040040
80040040
80040040
80040040
80040040
80040040
80040040
80040040
80040040
40040040
400C0080
20160080
20350100
18C4C600
04041800
00040000
00040000
00040000
00040000
00040000
00040000
00040000
00040000
ENDCHAR
STARTCHAR 0445
ENCODING 1093
SWIDTH 450 0
DWIDTH 20 0
BBX 17 22 2 0
BITMAP
C00180
400100
200200
100400
100C00
080800
041000
022000
022000
014000
008000
014000
014000
022000
041000
080800
080800
100400
200200
400300
400100
800080
ENDCHAR
STARTCHAR 0446
ENCODING 1094
SWIDTH 562 0
DWIDTH 25 0
BBX 19 28 5 -6
BITMAP
800200
800200
800200
800200
800200
800200
800200
800200
800200
800200
800200
800200
800200
800200
800200
800200
800200
800200
800200
800200
800200
FFFFE0
000020
000020
000020
000020
000020
000020
ENDCHAR
STARTCHAR 0447
ENCODING 1095
SWIDTH 517 0
DWIDTH 23 0
BBX 15 22 3 0
BITMAP
8002
8002
8002
8002
8002
8002
8002
8002
8002
8002
4006
200A
1FE2
0002
0002
0002
0002
0002
0002
0002
0002
0002
ENDCHAR
STARTCHAR 0448
ENCODING 1096
SWIDTH 765 0
DWIDTH 34 0
BBX 25 22 5 0
BITMAP
80080080
80080080
80080080
80080080
80080080
80080080
80080080
80080080
80080080
80080080
80080080
80080080
80080080
80080080
80080080
80080080
80080080
80080080
80080080
80080080
80080080
FFFFFF80
ENDCHAR
STARTCHAR 0449
ENCODING 1097
SWIDTH 787 0
DWIDTH 35 0
BBX 28 28 5 -6
BITMAP
80080080
80080080
80080080
80080080
80080080
80080080
80080080
80080080
80080080
80080080
80080080
80080080
80080080
80080080
80080080
80080080
80080080
80080080
80080080
80080080
80080080
FFFFFFF0
00000010
00000010
00000010
00000010
00000010
00000010
ENDCHAR
STARTCHAR 044A
ENCODING 1098
SWIDTH 585 0
DWIDTH 26 0
BBX 22 22 2 0
BITMAP
FE0000
020000
020000
020000
020000
020000
020000
020000
020000
03FFC0
020030
020010
020008
020008
020008
020004
020008
020008
020008
020010
020020
03FFC0
ENDCHAR
STARTCHAR 044B
ENCODING 1099
SWIDTH 652 0
DWIDTH 29 0
BBX 20 22 5 0
BITMAP
800010
800010
800010
800010
800010
800010
800010
800010
800010
FFE010
803010
800810
800410
800410
800410
800410
800410
800410
800410
800810
803010
FFE010
ENDCHAR
STARTCHAR 044C
ENCODING 1100
SWIDTH 495 0
DWIDTH 22 0
BBX 15 22 5 0
BITMAP
8000
8000
8000
8000
8000
8000
8000
8000
8000
FFE0
8018
8004
8004
8002
8002
8002
8002
8002
8004
8004
8018
FFE0
ENDCHAR
STARTCHAR 044D
ENCODING 1101
SWIDTH 495 0
DWIDTH 22 0
BBX 17 24 2 -1
BITMAP
07E000
181800
200600
400200
400100
000100
000080
000080
000080
000080
000080
07FF80
000080
000080
000080
000080
000080
000080
000100
C00100
400200
300400
0C3800
024000
ENDCHAR
STARTCHAR 044E
ENCODING 1102
SWIDTH 720 0
DWIDTH 32 0
BBX 25 24 5 -1
BITMAP
0007E000
80181800
80200400
80400200
80800300
80800100
81000100
81000080
81000080
81000080
81000080
FF000080
81000080
81000080
81000080
81000080
81000100
80800100
80800100
80C00200
80400600
80300C00
801C3000
00024000
ENDCHAR
STARTCHAR 044F
ENCODING 1103
SWIDTH 517 0
DWIDTH 23 0
BBX 16 22 2 0
BITMAP
0FFF
1001
2001
4001
4001
4001
4001
4001
4001
2001
1001
0E01
01FF
0201
0201
0401
0401
0801
0801
1001
1001
E001
ENDCHAR
STARTCHAR 0450
ENCODING 1104
SWIDTH 517 0
DWIDTH 23 0
BBX 18 34 3 -1
BITMAP
040000
020000
030000
010000
008000
004000
004000
000000
000000
000000
03F000
0C0C00
100200
200100
400100
400080
800080
800040
800040
800040
800040
FFFFC0
800000
800000
800000
800000
800000
800040
400080
400080
200100
180200
0E1C00
012000
ENDCHAR
STARTCHAR 0451
ENCODING 1105
SWIDTH 517 0
DWIDTH 23 0
BBX 18 32 3 -1
BITMAP
080C00
0C0C00
000000
000000
000000
000000
000000
000000
03F000
0C0C00
100200
200100
400100
400080
800080
800040
800040
800040
800040
FFFFC0
800000
800000
800000
800000
800000
800040
400080
400080
200100
180200
0E1C00
012000
ENDCHAR
STARTCHAR 0452
ENCODING 1106
SWIDTH 540 0
DWIDTH 24 0
BBX 19 42 2 -9
BITMAP
100000
100000
100000
100000
FFE000
100000
100000
100000
100000
100000
10FC00
130300
140080
1800C0
100040
100040
100040
100020
100020
100020
100020
100020
100020
100020
100020
100020
100020
100020
100020
100020
100020
100020
100020
000020
000020
000020
000020
000020
000020
000020
000020
0003C0
ENDCHAR
STARTCHAR 0453
ENCODING 1107
SWIDTH 427 0
DWIDTH 19 0
BBX 12 33 5 0
BITMAP
0040
00C0
0080
0100
0200
0200
0400
0000
0000
0000
0000
FFF0
8000
8000
8000
8000
8000
8000
8000
8000
8000
8000
8000
8000
8000
8000
8000
8000
8000
8000
8000
8000
8000
ENDCHAR
STARTCHAR 0454
ENCODING 1108
SWIDTH 495 0
DWIDTH 22 0
BBX 17 24 3 -1
BITMAP
03F000
0C0C00
300200
200100
400100
400000
800000
800000
800000
800000
800000
FFF800
800000
800000
800000
800000
800000
800000
400000
400080
200100
100200
0E1C00
012000
ENDCHAR
STARTCHAR 0455
ENCODING 1109
SWIDTH 450 0
DWIDTH 20 0
BBX 16 24 2 -1
BITMAP
07E0
101C
2006
4002
4000
4000
4000
4000
6000
3000
1C00
03E0
0018
0006
0002
0001
0001
0001
0001
8001
4002
3004
0E38
00C0
ENDCHAR
STARTCHAR 0456
ENCODING 1110
SWIDTH 225 0
DWIDTH 10 0
BBX 2 32 4 0
BITMAP
C0
C0
00
00
00
00
00
00
00
00
40
40
40
40
40
40
40
40
40
40
40
40
40
40
40
40
40
40
40
40
40
40
ENDCHAR
STARTCHAR 0457
ENCODING 1111
SWIDTH 225 0
DWIDTH 10 0
BBX 10 31 0 0
BITMAP
4040
C0C0
0000
0000
0000
0000
0000
0000
0000
0400
0400
0400
0400
0400
0400
0400
0400
0400
0400
0400
0400
0400
0400
0400
0400
0400
0400
0400
0400
0400
0400
ENDCHAR
STARTCHAR 0458
ENCODING 1112
SWIDTH 225 0
DWIDTH 10 0
BBX 5 41 1 -9
BITMAP
18
18
00
00
00
00
00
00
00
00
08
08
08
08
08
08
08
08
08
08
08
08
08
08
08
08
08
08
08
08
08
08
08
08
08
08
08
08
08
08
F0
ENDCHAR
STARTCHAR 0459
ENCODING 1113
SWIDTH 765 0
DWIDTH 34 0
BBX 31 22 0 0
BITMAP
03FFC000
02004000
02004000
02004000
02004000
02004000
02004000
02004000
02004000
02007FF0
02004008
02004004
02004002
02004002
02004002
04004002
04004002
04004002
08004002
08004004
10004008
F0007FF0
ENDCHAR
STARTCHAR 045A
ENCODING 1114
SWIDTH 787 0
DWIDTH 35 0
BBX 28 22 5 0
BITMAP
80020000
80020000
80020000
80020000
80020000
80020000
80020000
80020000
80020000
FFFFFC00
800201C0
80020020
80020030
80020010
80020010
80020010
80020010
80020010
80020010
80020020
80020040
8003FF80
ENDCHAR
STARTCHAR 045B
ENCODING 1115
SWIDTH 540 0
DWIDTH 24 0
BBX 19 33 2 0
BITMAP
100000
100000
100000
100000
FFE000
100000
100000
100000
100000
100000
10FC00
130300
140080
1800C0
100040
100040
100040
100020
100020
100020
100020
100020
100020
100020
100020
100020
100020
100020
100020
100020
100020
100020
100020
ENDCHAR
STARTCHAR 045C
ENCODING 1116
SWIDTH 517 0
DWIDTH 23 0
BBX 16 33 5 0
BITMAP
0020
0040
00C0
0080
0100
0200
0200
0000
0000
0000
0000
800E
8008
8010
8020
8020
8040
8080
8080
8100
8200
FE00
8100
8100
8080
80C0
8040
8020
8020
8010
8008
8008
8007
ENDCHAR
STARTCHAR 045D
ENCODING 1117
SWIDTH 562 0
DWIDTH 25 0
BBX 16 33 5 0
BITMAP
0800
0C00
0400
0200
0100
0100
0080
0000
0000
0000
0000
8003
8003
8005
8009
8009
8011
8021
8021
8041
8081
8181
8101
8201
8401
8401
8801
9001
9001
A001
C001
C001
8001
ENDCHAR
STARTCHAR 045E
ENCODING 1118
SWIDTH 450 0
DWIDTH 20 0
BBX 18 41 1 -9
BITMAP
080200
080400
040400
060800
01F000
000000
000000
000000
000000
000000
800040
400080
400080
200080
200100
200100
100200
100200
100200
080400
080400
040400
040800
040800
021000
021000
021000
012000
012000
012000
00C000
00C000
008000
008000
008000
010000
010000
010000
020000
020000
3C0000
ENDCHAR
STARTCHAR 045F
ENCODING 1119
SWIDTH 562 0
DWIDTH 25 0
BBX 16 28 5 -6
BITMAP
8001
8001
8001
8001
8001
8001
8001
8001
8001
8001
8001
8001
8001
8001
8001
8001
8001
8001
8001
8001
8001
FFFF
0100
0100
0100
0100
0100
0100
ENDCHAR
STARTCHAR 0472
ENCODING 1138
SWIDTH 675 0
DWIDTH 30 0
BBX 24 33 3 -1
BITMAP
000C00
01E380
060060
080010
100008
300004
200004
600002
400002
400002
400001
800001
800001
800001
800001
800001
FFFFFF
800001
800001
800001
800001
800001
400001
400002
400002
600002
200004
300004
100008
0C0010
060060
01E380
000400
ENDCHAR
STARTCHAR 0473
ENCODING 1139
SWIDTH 540 0
DWIDTH 24 0
BBX 18 24 3 -1
BITMAP
03F000
0C0C00
300200
200100
400080
400080
800040
800040
800040
800040
800040
FFFFC0
800040
800040
800040
800040
800040
800040
400080
400080
200100
100200
0E1C00
012000
ENDCHAR
STARTCHAR 0490
ENCODING 1168
SWIDTH 495 0
DWIDTH 22 0
BBX 16 38 5 0
BITMAP
0001
0001
0001
0001
0001
0001
0001
FFFF
8000
8000
8000
8000
8000
8000
8000
8000
8000
8000
8000
8000
8000
8000
8000
8000
8000
8000
8000
8000
8000
8000
8000
8000
8000
8000
8000
8000
8000
8000
ENDCHAR
STARTCHAR 0491
ENCODING 1169
SWIDTH 427 0
DWIDTH 19 0
BBX 13 29 5 0
BITMAP
0008
0008
0008
0008
0008
0008
0008
FFF0
8000
8000
8000
8000
8000
8000
8000
8000
8000
8000
8000
8000
8000
8000
8000
8000
8000
8000
8000
8000
8000
ENDCHAR
STARTCHAR 0492
ENCODING 1170
SWIDTH 517 0
DWIDTH 23 0
BBX 20 31 1 0
BITMAP
07FFF0
040000
040000
040000
040000
040000
040000
040000
040000
040000
040000
040000
040000
040000
FFFE00
040000
040000
040000
040000
040000
040000
040000
040000
040000
040000
040000
040000
040000
040000
040000
040000
ENDCHAR
STARTCHAR 0493
ENCODING 1171
SWIDTH 450 0
DWIDTH 20 0
BBX 17 22 1 0
BITMAP
0FFF80
080000
080000
080000
080000
080000
080000
080000
080000
080000
FFF800
080000
080000
080000
080000
080000
080000
080000
080000
080000
080000
080000
ENDCHAR
STARTCHAR 0494
ENCODING 1172
SWIDTH 607 0
DWIDTH 27 0
BBX 19 38 5 -7
BITMAP
FFFE00
800000
800000
800000
800000
800000
800000
800000
800000
800000
800000
800000
800000
800000
9FF800
E00600
800180
800080
800040
800040
800020
800020
800020
800020
800020
800020
800020
800020
800020
800020
800020
000020
000020
000020
000040
000040
000080
001F00
ENDCHAR
STARTCHAR 0495
ENCODING 1173
SWIDTH 517 0
DWIDTH 23 0
BBX 15 31 5 -9
BITMAP
FFF0
8000
8000
8000
8000
8000
8000
8000
8000
8000
8FF0
B00C
C004
8002
8002
8002
8002
8002
8002
8002
8002
8002
0002
0002
0002
0002
0002
0002
0002
0004
0078
ENDCHAR
STARTCHAR 0496
ENCODING 1174
SWIDTH 900 0
DWIDTH 40 0
BBX 37 38 2 -7
BITMAP
F0002000F0
1800200080
0800200100
0C00200100
0400200200
0200200200
0200200400
0100200C00
0100200800
0080201800
0080201000
0040202000
0040202000
0020204000
0020204000
001FFF8000
0020204000
0060202000
0040202000
0080201000
0080201000
0100200800
0100200800
0200200400
0200200600
0400200200
0400200100
0800200100
1800200080
1000200080
E000200078
0000000008
0000000008
0000000008
0000000008
0000000008
0000000008
0000000008
ENDCHAR
STARTCHAR 0497
ENCODING 1175
SWIDTH 742 0
DWIDTH 33 0
BBX 29 28 2 -6
BITMAP
70020070
10020080
08020080
08020100
04020100
02020200
02020200
01020400
01020400
00820800
00FFF000
01020800
01020400
02020400
02020200
04020200
04020100
08020100
08020080
10020080
10020040
E0020078
00000008
00000008
00000008
00000008
00000008
00000008
ENDCHAR
STARTCHAR 0498
ENCODING 1176
SWIDTH 562 0
DWIDTH 25 0
BBX 20 39 3 -7
BITMAP
004000
079E00
180100
200080
400040
400060
000020
000020
000020
000020
000020
000060
000040
000080
000100
000E00
07FC00
000300
0000C0
000060
000020
000020
000010
000010
000010
000030
000020
800020
800040
4000C0
300180
0F0E00
005000
004000
004000
004000
004000
004000
004000
ENDCHAR
STARTCHAR 0499
ENCODING 1177
SWIDTH 472 0
DWIDTH 21 0
BBX 16 29 2 -6
BITMAP
07F0
180C
2002
4002
4001
0001
0001
0001
0002
0006
0008
07F0
001C
0002
0001
0001
0001
0001
0001
C001
4002
3006
1E38
00C0
0080
0080
0080
0080
0080
ENDCHAR
STARTCHAR 049A
ENCODING 1178
SWIDTH 607 0
DWIDTH 27 0
BBX 21 38 5 -7
BITMAP
8000F0
800080
800100
800100
800200
800600
800400
800800
800800
801000
803000
802000
804000
804000
808000
FF8000
80C000
804000
802000
802000
801000
801800
800800
800400
800400
800200
800300
800100
800080
800080
800078
000008
000008
000008
000008
000008
000008
000008
ENDCHAR
STARTCHAR 049B
ENCODING 1179
SWIDTH 517 0
DWIDTH 23 0
BBX 17 28 5 -6
BITMAP
800E00
800800
801000
802000
802000
804000
808000
808000
810000
820000
FE0000
810000
810000
808000
80C000
804000
802000
802000
801000
800800
800800
800780
000080
000080
000080
000080
000080
000080
ENDCHAR
STARTCHAR 049C
ENCODING 1180
SWIDTH 607 0
DWIDTH 27 0
BBX 21 31 5 0
BITMAP
800070
800080
800080
800100
800300
800200
800400
880400
880800
880800
881000
882000
882000
884000
884000
FF8000
884000
886000
882000
881000
881000
880800
880C00
800400
800200
800200
800100
800080
800080
800040
800078
ENDCHAR
STARTCHAR 049D
ENCODING 1181
SWIDTH 540 0
DWIDTH 24 0
BBX 17 22 5 0
BITMAP
800700
800C00
800800
801000
903000
902000
904000
90C000
908000
910000
FF0000
918000
908000
904000
904000
902000
801000
801000
800800
800C00
800400
800380
ENDCHAR
STARTCHAR 04A0
ENCODING 1184
SWIDTH 720 0
DWIDTH 32 0
BBX 30 31 1 0
BITMAP
FFC00038
00400040
00400080
00400080
00400100
00400100
00400200
00400600
00400400
00400800
00400800
00401000
00403000
00402000
00404000
007FC000
00402000
00402000
00401000
00401800
00400800
00400400
00400400
00400200
00400300
00400100
00400080
00400080
00400040
00400060
0040003C
ENDCHAR
STARTCHAR 04A1
ENCODING 1185
SWIDTH 585 0
DWIDTH 26 0
BBX 23 22 2 0
BITMAP
FE001C
020020
020040
020040
020080
020100
020100
020200
020400
020400
03F800
020400
020200
020200
020100
020080
020080
020040
020060
020020
020010
02001E
ENDCHAR
STARTCHAR 04A2
ENCODING 1186
SWIDTH 720 0
DWIDTH 32 0
BBX 25 38 5 -7
BITMAP
80000800
80000800
80000800
80000800
80000800
80000800
80000800
80000800
80000800
80000800
80000800
80000800
80000800
80000800
80000800
FFFFF800
80000800
80000800
80000800
80000800
80000800
80000800
80000800
80000800
80000800
80000800
80000800
80000800
80000800
80000800
80000F80
00000080
00000080
00000080
00000080
00000080
00000080
00000080
ENDCHAR
STARTCHAR 04A3
ENCODING 1187
SWIDTH 585 0
DWIDTH 26 0
BBX 19 28 5 -6
BITMAP
800100
800100
800100
800100
800100
800100
800100
800100
800100
800100
FFFF00
800100
800100
800100
800100
800100
800100
800100
800100
800100
800100
8001E0
000020
000020
000020
000020
000020
000020
ENDCHAR
STARTCHAR 04A4
ENCODING 1188
SWIDTH 922 0
DWIDTH 41 0
BBX 35 31 5 0
BITMAP
80001FFFE0
8000100000
8000100000
8000100000
8000100000
8000100000
8000100000
8000100000
8000100000
8000100000
8000100000
8000100000
8000100000
8000100000
8000100000
FFFFF00000
8000100000
8000100000
8000100000
8000100000
8000100000
8000100000
8000100000
8000100000
8000100000
8000100000
8000100000
8000100000
8000100000
8000100000
8000100000
ENDCHAR
STARTCHAR 04A5
ENCODING 1189
SWIDTH 742 0
DWIDTH 33 0
BBX 26 22 5 0
BITMAP
8003FFC0
80020000
80020000
80020000
80020000
80020000
80020000
80020000
80020000
FFFE0000
80020000
80020000
80020000
80020000
80020000
80020000
80020000
80020000
80020000
80020000
80020000
80020000
ENDCHAR
STARTCHAR 04AA
ENCODING 1194
SWIDTH 607 0
DWIDTH 27 0
BBX 21 39 3 -7
BITMAP
001000
01E700
0600C0
080020
100010
300018
200008
400000
400000
400000
400000
800000
800000
800000
800000
800000
800000
800000
800000
800000
800000
800000
400000
400000
400000
400000
200008
200008
100010
080020
0600C0
01C700
001000
001000
001000
001000
001000
001000
001000
ENDCHAR
STARTCHAR 04AB
ENCODING 1195
SWIDTH 472 0
DWIDTH 21 0
BBX 17 29 3 -6
BITMAP
03F000
0C0C00
300200
200100
400100
400000
800000
800000
800000
800000
800000
800000
800000
800000
800000
800000
800000
800000
400000
400080
200100
100200
0E1C00
01E000
008000
008000
008000
008000
008000
ENDCHAR
STARTCHAR 04AE
ENCODING 1198
SWIDTH 540 0
DWIDTH 24 0
BBX 22 31 1 0
BITMAP
800004
400008
600008
200010
100010
100020
080040
0C0040
040080
020080
020100
010200
018200
008400
004400
004800
003000
003000
001000
001000
001000
001000
001000
001000
001000
001000
001000
001000
001000
001000
001000
ENDCHAR
STARTCHAR 04AF
ENCODING 1199
SWIDTH 450 0
DWIDTH 20 0
BBX 18 30 1 -9
BITMAP
800040
400080
400080
200100
200100
200100
100200
100200
100200
080400
080400
040800
040800
040800
021000
021000
021000
012000
012000
014000
00C000
00C000
008000
008000
008000
008000
008000
008000
008000
008000
ENDCHAR
STARTCHAR 04B0
ENCODING 1200
SWIDTH 540 0
DWIDTH 24 0
BBX 22 31 1 0
BITMAP
800004
400008
600008
200010
100010
100020
080040
0C0040
040080
020080
020100
010200
018200
008400
004400
004800
003000
003000
1FFFF0
001000
001000
001000
001000
001000
001000
001000
001000
001000
001000
001000
001000
ENDCHAR
STARTCHAR 04B1
ENCODING 1201
SWIDTH 450 0
DWIDTH 20 0
BBX 18 30 1 -9
BITMAP
800040
400080
400080
200100
200100
200100
100200
100200
100200
080400
080400
040800
040800
040800
021000
021000
021000
012000
012000
014000
00C000
00C000
1FFE00
008000
008000
008000
008000
008000
008000
008000
ENDCHAR
STARTCHAR 04B2
ENCODING 1202
SWIDTH 585 0
DWIDTH 26 0
BBX 24 38 2 -7
BITMAP
800008
400010
400020
200020
100040
100080
080080
040100
060200
020200
010400
018800
008800
005000
006000
002000
005000
009800
008800
010400
020600
020200
040100
080180
080080
100040
200060
200020
400010
800018
80000F
000001
000001
000001
000001
000001
000001
000001
ENDCHAR
STARTCHAR 04B3
ENCODING 1203
SWIDTH 472 0
DWIDTH 21 0
BBX 20 28 2 -6
BITMAP
C00180
400100
200200
100400
100C00
080800
041000
022000
022000
014000
008000
014000
014000
022000
041000
080800
080800
100400
200200
400300
400100
8000F0
000010
000010
000010
000010
000010
000010
ENDCHAR
STARTCHAR 04B6
ENCODING 1206
SWIDTH 630 0
DWIDTH 28 0
BBX 24 38 3 -7
BITMAP
800010
800010
800010
800010
800010
800010
800010
800010
800010
800010
800010
800010
C00010
400010
400010
200010
180010
0F01F0
00FA10
000010
000010
000010
000010
000010
000010
000010
000010
000010
000010
000010
00001F
000001
000001
000001
000001
000001
000001
000001
ENDCHAR
STARTCHAR 04B7
ENCODING 1207
SWIDTH 517 0
DWIDTH 23 0
BBX 19 28 3 -6
BITMAP
800200
800200
800200
800200
800200
800200
800200
800200
800200
800200
400600
200A00
1FE200
000200
000200
000200
000200
000200
000200
000200
000200
0001E0
000020
000020
000020
000020
000020
000020
ENDCHAR
STARTCHAR 04B8
ENCODING 1208
SWIDTH 607 0
DWIDTH 27 0
BBX 20 31 3 0
BITMAP
800010
800010
800010
800010
800010
800010
800010
800010
800010
800010
802010
802010
C02010
402010
402010
202010
182010
0E21F0
01FA10
002010
002010
002010
002010
002010
002010
002010
000010
000010
000010
000010
000010
ENDCHAR
STARTCHAR 04B9
ENCODING 1209
SWIDTH 517 0
DWIDTH 23 0
BBX 15 22 3 0
BITMAP
8002
8002
8002
8002
8002
8102
8102
8102
8102
8102
4106
210A
1FF2
0102
0102
0102
0102
0102
0002
0002
0002
0002
ENDCHAR
STARTCHAR 04BA
ENCODING 1210
SWIDTH 607 0
DWIDTH 27 0
BBX 20 31 5 0
BITMAP
800000
800000
800000
800000
800000
800000
800000
800000
800000
800000
800000
800000
83F000
FC0E00
800180
8000C0
800040
800020
800020
800020
800020
800010
800010
800010
800010
800010
800010
800010
800010
800010
800010
ENDCHAR
STARTCHAR 04BB
ENCODING 1211
SWIDTH 540 0
DWIDTH 24 0
BBX 15 33 5 0
BITMAP
8000
8000
8000
8000
8000
8000
8000
8000
8000
8000
8FE0
9018
A004
C004
8002
8002
8002
8002
8002
8002
8002
8002
8002
8002
8002
8002
8002
8002
8002
8002
8002
8002
8002
ENDCHAR
STARTCHAR 04C0
ENCODING 1216
SWIDTH 360 0
DWIDTH 16 0
BBX 11 31 3 0
BITMAP
FFE0
0400
0400
0400
0400
0400
0400
0400
0400
0400
0400
0400
0400
0400
0400
0400
0400
0400
0400
0400
0400
0400
0400
0400
0400
0400
0400
0400
0400
0400
FFE0
ENDCHAR
STARTCHAR 04C1
ENCODING 1217
SWIDTH 900 0
DWIDTH 40 0
BBX 36 40 2 0
BITMAP
0004010000
0004020000
0002020000
0003040000
0000F80000
0000000000
0000000000
0000000000
0000000000
F0002000F0
1800200080
0800200100
0C00200100
0400200200
0200200200
0200200400
0100200C00
0100200800
0080201800
0080201000
0040202000
0040202000
0020204000
0020204000
001FFF8000
0020204000
0060202000
0040202000
0080201000
0080201000
0100200800
0100200800
0200200400
0200200600
0400200200
0400200100
0800200100
1800200080
1000200080
E000200070
ENDCHAR
STARTCHAR 04C2
ENCODING 1218
SWIDTH 720 0
DWIDTH 32 0
BBX 29 32 2 0
BITMAP
00401000
00402000
00202000
00104000
000F8000
00000000
00000000
00000000
00000000
00000000
70020070
10020080
08020080
08020100
04020100
02020200
02020200
01020400
01020400
00820800
00FFF000
01020800
01020400
02020400
02020200
04020200
04020100
08020100
08020080
10020080
10020040
E0020078
ENDCHAR
STARTCHAR 04CF
ENCODING 1231
SWIDTH 225 0
DWIDTH 10 0
BBX 1 33 5 0
BITMAP
80
80
80
80
80
80
80
80
80
80
80
80
80
80
80
80
80
80
80
80
80
80
80
80
80
80
80
80
80
80
80
80
80
ENDCHAR
STARTCHAR 04D0
ENCODING 1232
SWIDTH 585 0
DWIDTH 26 0
BBX 23 40 2 0
BITMAP
020080
020100
010100
008200
007C00
000000
000000
000000
000000
003000
002800
002800
004800
004400
004400
008400
008200
008200
010200
010100
030100
020080
020080
040080
040040
040040
080040
080020
080020
1FFFE0
100010
300010
200010
200008
400008
400004
400004
800004
800002
800002
ENDCHAR
STARTCHAR 04D1
ENCODING 1233
SWIDTH 517 0
DWIDTH 23 0
BBX 19 33 3 -1
BITMAP
100400
100800
080800
0C1000
03C000
000000
000000
000000
000000
07E000
181800
200400
400200
400200
000200
000200
000200
000200
000200
000200
1FFE00
200200
400200
800200
800200
800200
800200
800200
800200
800600
600A00
38F1E0
040000
ENDCHAR
STARTCHAR 04D2
ENCODING 1234
SWIDTH 585 0
DWIDTH 26 0
BBX 23 39 2 0
BITMAP
000100
030300
010100
000000
000000
000000
000000
000000
003000
002800
002800
004800
004400
004400
008400
008200
008200
010200
010100
030100
020080
020080
040080
040040
040040
080040
080020
080020
1FFFE0
100010
300010
200010
200008
400008
400004
400004
800004
800002
800002
ENDCHAR
STARTCHAR 04D3
ENCODING 1235
SWIDTH 517 0
DWIDTH 23 0
BBX 19 32 3 -1
BITMAP
081800
181800
000000
000000
000000
000000
000000
000000
07E000
181800
200400
400200
400200
000200
000200
000200
000200
000200
000200
1FFE00
200200
400200
800200
800200
800200
800200
800200
800200
800600
600A00
38F1E0
040000
ENDCHAR
STARTCHAR 04D4
ENCODING 1236
SWIDTH 855 0
DWIDTH 38 0
BBX 35 31 0 0
BITMAP
00007FFFE0
0000A00000
0000A00000
0001200000
0001200000
0002200000
0002200000
0004200000
0008200000
0008200000
0010200000
0010200000
0020200000
0020200000
0040200000
00403FFFE0
0080200000
0180200000
0100200000
0200200000
03FFE00000
0400200000
0400200000
0800200000
0800200000
1000200000
1000200000
2000200000
6000200000
4000200000
80003FFFE0
ENDCHAR
STARTCHAR 04D5
ENCODING 1237
SWIDTH 855 0
DWIDTH 38 0
BBX 34 24 2 -1
BITMAP
07F007F000
080C180800
1002200600
2002400200
4001400100
0001800080
0001800080
0001800080
0001000080
0001000040
0001000040
0FFFFFFFC0
3001000000
6001000000
4001000000
4001000000
C001800000
8001800080
4001800080
4002400100
4002200300
200C100600
1C700E3800
030001C000
ENDCHAR
STARTCHAR 04D6
ENCODING 1238
SWIDTH 540 0
DWIDTH 24 0
BBX 17 40 5 0
BITMAP
100400
100800
080800
041000
03E000
000000
000000
000000
000000
FFFF80
800000
800000
800000
800000
800000
800000
800000
800000
800000
800000
800000
800000
800000
800000
FFFF00
800000
800000
800000
800000
800000
800000
800000
800000
800000
800000
800000
800000
800000
800000
FFFF80
ENDCHAR
STARTCHAR 04D7
ENCODING 1239
SWIDTH 517 0
DWIDTH 23 0
BBX 18 33 3 -1
BITMAP
100600
080400
080800
041800
03E000
000000
000000
000000
000000
03F000
0C0C00
100200
200100
400100
400080
800080
800040
800040
800040
800040
FFFFC0
800000
800000
800000
800000
800000
800040
400080
400080
200100
180200
0E1C00
012000
ENDCHAR
STARTCHAR 04D8
ENCODING 1240
SWIDTH 675 0
DWIDTH 30 0
BBX 24 33 3 -1
BITMAP
001800
01E780
060060
080010
100008
300004
200004
200002
400002
000002
000001
000001
000001
000001
000001
000001
FFFFFF
800001
800001
800001
800001
800001
400001
400002
400002
600002
200004
300004
100008
0C0010
060060
01E380
000400
ENDCHAR
STARTCHAR 04D9
ENCODING 1241
SWIDTH 517 0
DWIDTH 23 0
BBX 18 24 3 -1
BITMAP
07F000
180C00
200200
400100
400080
800080
000080
000040
000040
000040
000040
000040
FFFFC0
800040
800040
800040
800080
800080
400080
600100
200300
180600
061800
01A000
ENDCHAR
STARTCHAR 04DC
ENCODING 1244
SWIDTH 900 0
DWIDTH 40 0
BBX 36 38 2 1
BITMAP
0006060000
0000000000
0000000000
0000000000
0000000000
0000000000
0000000000
F0002000F0
1800200080
0800200100
0C00200100
0400200200
0200200200
0200200400
0100200C00
0100200800
0080201800
0080201000
0040202000
0040202000
0020204000
0020204000
001FFF8000
0020204000
0060202000
0040202000
0080201000
0080201000
0100200800
0100200800
0200200400
0200200600
0400200200
0400200100
0800200100
1800200080
1000200080
E000200070
ENDCHAR
STARTCHAR 04DD
ENCODING 1245
SWIDTH 720 0
DWIDTH 32 0
BBX 29 31 2 0
BITMAP
00202000
00606000
00000000
00000000
00000000
00000000
00000000
00000000
00000000
70020070
10020080
08020080
08020100
04020100
02020200
02020200
01020400
01020400
00820800
00FFF000
01020800
01020400
02020400
02020200
04020200
04020100
08020100
08020080
10020080
10020040
E0020078
ENDCHAR
STARTCHAR 04DE
ENCODING 1246
SWIDTH 562 0
DWIDTH 25 0
BBX 20 39 3 0
BITMAP
060600
040000
000000
000000
000000
000000
004000
079E00
180100
200080
400040
400060
000020
000020
000020
000020
000020
000060
000040
000080
000100
000E00
07FC00
000300
0000C0
000060
000020
000020
000010
000010
000010
000030
000020
800020
800040
4000C0
300180
0F0E00
007000
ENDCHAR
STARTCHAR 04DF
ENCODING 1247
SWIDTH 472 0
DWIDTH 21 0
BBX 16 32 2 -1
BITMAP
0808
0C0C
0000
0000
0000
0000
0000
0000
07F0
180C
2002
4002
4001
0001
0001
0001
0002
0006
0008
07F0
001C
0002
0001
0001
0001
0001
0001
C001
4002
3006
0E38
00C0
ENDCHAR
STARTCHAR 04E2
ENCODING 1250
SWIDTH 675 0
DWIDTH 30 0
BBX 21 38 5 0
BITMAP
07FF00
000000
000000
000000
000000
000000
000000
800008
800018
800028
800028
800048
8000C8
800088
800108
800308
800208
800408
800C08
800808
801008
803008
802008
804008
804008
808008
810008
810008
820008
840008
840008
880008
900008
900008
A00008
C00008
C00008
800008
ENDCHAR
STARTCHAR 04E3
ENCODING 1251
SWIDTH 562 0
DWIDTH 25 0
BBX 16 30 5 0
BITMAP
3FF8
0000
0000
0000
0000
0000
0000
0000
8003
8003
8005
8009
8009
8011
8021
8021
8041
8081
8181
8101
8201
8401
8401
8801
9001
9001
A001
C001
C001
8001
ENDCHAR
STARTCHAR 04E4
ENCODING 1252
SWIDTH 675 0
DWIDTH 30 0
BBX 21 39 5 0
BITMAP
000200
060600
020200
000000
000000
000000
000000
000000
800008
800018
800028
800028
800048
8000C8
800088
800108
800308
800208
800408
800C08
800808
801008
803008
802008
804008
804008
808008
810008
810008
820008
840008
840008
880008
900008
900008
A00008
C00008
C00008
800008
ENDCHAR
STARTCHAR 04E5
ENCODING 1253
SWIDTH 562 0
DWIDTH 25 0
BBX 16 31 5 0
BITMAP
1010
1818
0000
0000
0000
0000
0000
0000
0000
8003
8003
8005
8009
8009
8011
8021
8021
8041
8081
8181
8101
8201
8401
8401
8801
9001
9001
A001
C001
C001
8001
ENDCHAR
STARTCHAR 04E6
ENCODING 1254
SWIDTH 675 0
DWIDTH 30 0
BBX 24 39 3 0
BITMAP
018180
010000
000000
000000
000000
000000
000C00
01E380
060060
080010
100008
300004
200004
600002
400002
400002
400001
800001
800001
800001
800001
800001
800001
800001
800001
800001
800001
800001
400001
400002
400002
600002
200004
300004
100008
0C0010
060060
01E380
000400
ENDCHAR
STARTCHAR 04E7
ENCODING 1255
SWIDTH 540 0
DWIDTH 24 0
BBX 18 32 3 -1
BITMAP
0C0400
0C0C00
000000
000000
000000
000000
000000
000000
03F000
0C0C00
300200
200100
400080
400080
800040
800040
800040
800040
800040
800040
800040
800040
800040
800040
800040
800040
400080
400080
200100
100200
0E1C00
012000
ENDCHAR
STARTCHAR 04E8
ENCODING 1256
SWIDTH 675 0
DWIDTH 30 0
BBX 24 33 3 -1
BITMAP
000C00
01E380
060060
080010
100008
300004
200004
600002
400002
400002
400001
800001
800001
800001
800001
800001
FFFFFF
800001
800001
800001
800001
800001
400001
400002
400002
600002
200004
300004
100008
0C0010
060060
01E380
000400
ENDCHAR
STARTCHAR 04E9
ENCODING 1257
SWIDTH 540 0
DWIDTH 24 0
BBX 18 24 3 -1
BITMAP
03F000
0C0C00
300200
200100
400080
400080
800040
800040
800040
800040
800040
FFFFC0
800040
800040
800040
800040
800040
800040
400080
400080
200100
100200
0E1C00
012000
ENDCHAR
STARTCHAR 04EE
ENCODING 1262
SWIDTH 562 0
DWIDTH 25 0
BBX 22 38 2 0
BITMAP
03FF80
000000
000000
000000
000000
000000
000000
800004
80000C
400008
400008
200010
200010
100030
100020
180020
080040
0C0040
0400C0
060080
020080
030100
010100
018300
008200
00C200
004400
004400
002C00
002800
001800
001000
001000
001000
002000
002000
004000
07C000
ENDCHAR
STARTCHAR 04EF
ENCODING 1263
SWIDTH 450 0
DWIDTH 20 0
BBX 18 39 1 -9
BITMAP
1FFE00
000000
000000
000000
000000
000000
000000
000000
800040
400080
400080
200080
200100
200100
100200
100200
100200
080400
080400
040400
040800
040800
021000
021000
021000
012000
012000
012000
00C000
00C000
008000
008000
008000
010000
010000
010000
020000
020000
3C0000
ENDCHAR
STARTCHAR 04F0
ENCODING 1264
SWIDTH 562 0
DWIDTH 25 0
BBX 22 39 2 0
BITMAP
000100
030300
010100
000000
000000
000000
000000
000000
800004
80000C
400008
400008
200010
200010
100030
100020
180020
080040
0C0040
0400C0
060080
020080
030100
010100
018300
008200
00C200
004400
004400
002C00
002800
001800
001000
001000
001000
002000
002000
004000
07C000
ENDCHAR
STARTCHAR 04F1
ENCODING 1265
SWIDTH 450 0
DWIDTH 20 0
BBX 18 40 1 -9
BITMAP
040400
0C0C00
000000
000000
000000
000000
000000
000000
000000
800040
400080
400080
200080
200100
200100
100200
100200
100200
080400
080400
040400
040800
040800
021000
021000
021000
012000
012000
012000
00C000
00C000
008000
008000
008000
010000
010000
010000
020000
020000
3C0000
ENDCHAR
STARTCHAR 04F2
ENCODING 1266
SWIDTH 562 0
DWIDTH 25 0
BBX 22 41 2 0
BITMAP
001810
001020
002040
004080
004080
008100
010200
000000
000000
000000
800004
80000C
400008
400008
200010
200010
100030
100020
180020
080040
0C0040
0400C0
060080
020080
030100
010100
018300
008200
00C200
004400
004400
002C00
002800
001800
001000
001000
001000
002000
002000
004000
07C000
ENDCHAR
STARTCHAR 04F3
ENCODING 1267
SWIDTH 450 0
DWIDTH 20 0
BBX 18 42 1 -9
BITMAP
0040C0
004080
008100
010200
020600
020400
040800
000000
000000
000000
000000
800040
400080
400080
200080
200100
200100
100200
100200
100200
080400
080400
040400
040800
040800
021000
021000
021000
012000
012000
012000
00C000
00C000
008000
008000
008000
010000
010000
010000
020000
020000
3C0000
ENDCHAR
STARTCHAR 04F4
ENCODING 1268
SWIDTH 607 0
DWIDTH 27 0
BBX 20 39 3 0
BITMAP
000400
060600
000000
000000
000000
000000
000000
000000
800010
800010
800010
800010
800010
800010
800010
800010
800010
800010
800010
800010
C00010
400010
400010
200010
180010
0F01F0
00FA10
000010
000010
000010
000010
000010
000010
000010
000010
000010
000010
000010
000010
ENDCHAR
STARTCHAR 04F5
ENCODING 1269
SWIDTH 517 0
DWIDTH 23 0
BBX 15 31 3 0
BITMAP
1010
1818
0000
0000
0000
0000
0000
0000
0000
8002
8002
8002
8002
8002
8002
8002
8002
8002
8002
4006
200A
1FE2
0002
0002
0002
0002
0002
0002
0002
0002
0002
ENDCHAR
STARTCHAR 04F8
ENCODING 1272
SWIDTH 810 0
DWIDTH 36 0
BBX 27 39 5 0
BITMAP
00004000
00C0C000
00404000
00000000
00000000
00000000
00000000
00000000
80000020
80000020
80000020
80000020
80000020
80000020
80000020
80000020
80000020
80000020
80000020
80000020
80000020
FFF80020
80070020
80018020
8000C020
80004020
80004020
80002020
80002020
80002020
80002020
80002020
80002020
80002020
80004020
80004020
80008020
80030020
FFFC0020
ENDCHAR
STARTCHAR 04F9
ENCODING 1273
SWIDTH 652 0
DWIDTH 29 0
BBX 20 31 5 0
BITMAP
040600
060600
000000
000000
000000
000000
000000
000000
000000
800010
800010
800010
800010
800010
800010
800010
800010
800010
FFE010
803010
800810
800410
800410
800410
800410
800410
800410
800410
800810
803010
FFE010
ENDCHAR
STARTCHAR 0E3F
ENCODING 3647
SWIDTH 585 0
DWIDTH 26 0
BBX 19 39 5 -4
BITMAP
008000
008000
008000
008000
008000
FFFC00
808200
808100
808080
808080
808080
8080C0
8080C0
808080
808080
808080
808100
808200
FFFC00
808700
808080
808040
808040
808020
808020
808020
808020
808020
808020
808040
808040
808080
808100
FFFE00
008000
008000
008000
008000
008000
ENDCHAR
STARTCHAR 1E80
ENCODING 7808
SWIDTH 855 0
DWIDTH 38 0
BBX 36 41 1 0
BITMAP
0002000000
0001000000
0000800000
0000C00000
0000400000
0000200000
0000100000
0000000000
0000000000
0000000000
C000600010
4000600010
4000500010
4000500020
2000900020
2000880020
2000880020
2000880040
1001080040
1001040040
1001040040
1002040080
0802020080
0802020080
0802020080
0C04020100
0404010100
0404010100
0408010200
0208008200
0208008200
0208008200
0210008400
0110004400
0110004400
0120004400
0120002800
00A0002800
00A0002800
00C0002800
00C0001000
ENDCHAR
STARTCHAR 1E81
ENCODING 7809
SWIDTH 720 0
DWIDTH 32 0
BBX 28 33 2 0
BITMAP
00200000
00100000
00080000
00080000
00040000
00020000
00010000
00000000
00000000
00000000
00000000
80060010
80060010
80050010
40090020
40090020
40090020
20108020
20108040
20108040
10204040
10204080
10204080
10202080
08402100
08402100
08401100
04801100
04801200
04801200
03000A00
03000C00
03000C00
ENDCHAR
STARTCHAR 1E82
ENCODING 7810
SWIDTH 855 0
DWIDTH 38 0
BBX 36 41 1 0
BITMAP
0000040000
00000C0000
0000080000
0000100000
0000200000
0000600000
0000400000
0000000000
0000000000
0000000000
C000600010
4000600010
4000500010
4000500020
2000900020
2000880020
2000880020
2000880040
1001080040
1001040040
1001040040
1002040080
0802020080
0802020080
0802020080
0C04020100
0404010100
0404010100
0408010200
0208008200
0208008200
0208008200
0210008400
0110004400
0110004400
0120004400
0120002800
00A0002800
00A0002800
00C0002800
00C0001000
ENDCHAR
STARTCHAR 1E83
ENCODING 7811
SWIDTH 720 0
DWIDTH 32 0
BBX 28 33 2 0
BITMAP
00004000
00008000
00008000
00010000
00020000
00040000
00040000
00000000
00000000
00000000
00000000
80060010
80060010
80050010
40090020
40090020
40090020
20108020
20108040
20108040
10204040
10204080
10204080
10202080
08402100
08402100
08401100
04801100
04801200
04801200
03000A00
03000C00
03000C00
ENDCHAR
STARTCHAR 1E84
ENCODING 7812
SWIDTH 855 0
DWIDTH 38 0
BBX 36 38 1 1
BITMAP
0006060000
0002020000
0000000000
0000000000
0000000000
0000000000
0000000000
C000600010
4000600010
4000500010
4000500020
2000900020
2000880020
2000880020
2000880040
1001080040
1001040040
1001040040
1002040080
0802020080
0802020080
0802020080
0C04020100
0404010100
0404010100
0408010200
0208008200
0208008200
0208008200
0210008400
0110004400
0110004400
0120004400
0120002800
00A0002800
00A0002800
00C0002800
00C0001000
ENDCHAR
STARTCHAR 1E85
ENCODING 7813
SWIDTH 720 0
DWIDTH 32 0
BBX 28 31 2 0
BITMAP
00202000
00606000
00000000
00000000
00000000
00000000
00000000
00000000
00000000
80060010
80060010
80050010
40090020
40090020
40090020
20108020
20108040
20108040
10204040
10204080
10204080
10202080
08402100
08402100
08401100
04801100
04801200
04801200
03000A00
03000C00
03000C00
ENDCHAR
STARTCHAR 1E9E
ENCODING 7838
SWIDTH 675 0
DWIDTH 30 0
BBX 23 31 5 -1
BITMAP
FFFFF8
800010
800010
800020
800040
8000C0
800080
800100
800200
800200
800400
800800
800800
801E00
8001E0
800010
800008
800004
800004
800004
800002
800002
800002
800002
800002
800004
800004
820004
810008
808010
8079E0
ENDCHAR
STARTCHAR 1EA0
ENCODING 7840
SWIDTH 585 0
DWIDTH 26 0
BBX 23 37 2 -6
BITMAP
003000
002800
002800
004800
004400
004400
008400
008200
008200
010200
010100
030100
020080
020080
040080
040040
040040
080040
080020
080020
1FFFE0
100010
300010
200010
200008
400008
400004
400004
800004
800002
800002
000000
000000
000000
000000
001800
001000
ENDCHAR
STARTCHAR 1EA1
ENCODING 7841
SWIDTH 517 0
DWIDTH 23 0
BBX 19 29 3 -6
BITMAP
07E000
181800
200400
400200
400200
000200
000200
000200
000200
000200
000200
1FFE00
200200
400200
800200
800200
800200
800200
800200
800200
800600
600A00
38F1E0
040000
000000
000000
000000
030000
030000
ENDCHAR
STARTCHAR 1EA2
ENCODING 7842
SWIDTH 585 0
DWIDTH 26 0
BBX 23 41 2 0
BITMAP
00FE00
000200
000400
000400
000800
000800
001000
000000
000000
000000
003000
002800
002800
004800
004400
004400
008400
008200
008200
010200
010100
030100
020080
020080
040080
040040
040040
080040
080020
080020
1FFFE0
100010
300010
200010
200008
400008
400004
400004
800004
800002
800002
ENDCHAR
STARTCHAR 1EA3
ENCODING 7843
SWIDTH 517 0
DWIDTH 23 0
BBX 19 34 3 -1
BITMAP
07F000
001000
002000
002000
004000
008000
008000
000000
000000
000000
07E000
181800
200400
400200
400200
000200
000200
000200
000200
000200
000200
1FFE00
200200
400200
800200
800200
800200
800200
800200
800200
800600
600A00
38F1E0
040000
ENDCHAR
STARTCHAR 1EA4
ENCODING 7844
SWIDTH 585 0
DWIDTH 26 0
BBX 23 46 2 0
BITMAP
000008
000018
000010
000020
000040
0010C0
002880
004400
008200
010100
020080
040000
000000
000000
000000
003000
002800
002800
004800
004400
004400
008400
008200
008200
010200
010100
030100
020080
020080
040080
040040
040040
080040
080020
080020
1FFFE0
100010
300010
200010
200008
400008
400004
400004
800004
800002
800002
ENDCHAR
STARTCHAR 1EA5
ENCODING 7845
SWIDTH 517 0
DWIDTH 23 0
BBX 19 39 3 -1
BITMAP
000040
000080
000180
000100
000200
018400
03C400
066000
0C3000
081800
100C00
200400
000000
000000
000000
07E000
181800
200400
400200
400200
000200
000200
000200
000200
000200
000200
1FFE00
200200
400200
800200
800200
800200
800200
800200
800200
800600
600A00
38F1E0
040000
ENDCHAR
STARTCHAR 1EA6
ENCODING 7846
SWIDTH 585 0
DWIDTH 26 0
BBX 23 46 2 0
BITMAP
600000
200000
100000
080000
080000
041000
022800
004400
008200
010100
020080
040000
000000
000000
000000
003000
002800
002800
004800
004400
004400
008400
008200
008200
010200
010100
030100
020080
020080
040080
040040
040040
080040
080020
080020
1FFFE0
100010
300010
200010
200008
400008
400004
400004
800004
800002
800002
ENDCHAR
STARTCHAR 1EA7
ENCODING 7847
SWIDTH 517 0
DWIDTH 23 0
BBX 21 39 1 -1
BITMAP
800000
400000
200000
200000
100000
086000
04F000
019800
030C00
020600
040300
080100
000000
000000
000000
01F800
060600
080100
100080
100080
000080
000080
000080
000080
000080
000080
07FF80
080080
100080
200080
200080
200080
200080
200080
200080
200180
180280
0E3C78
010000
ENDCHAR
STARTCHAR 1EA8
ENCODING 7848
SWIDTH 585 0
DWIDTH 26 0
BBX 23 46 2 0
BITMAP
0007F0
000010
000030
000020
000040
001040
002880
004400
008200
010100
020080
040000
000000
000000
000000
003000
002800
002800
004800
004400
004400
008400
008200
008200
010200
010100
030100
020080
020080
040080
040040
040040
080040
080020
080020
1FFFE0
100010
300010
200010
200008
400008
400004
400004
800004
800002
800002
ENDCHAR
STARTCHAR 1EA9
ENCODING 7849
SWIDTH 517 0
DWIDTH 23 0
BBX 19 39 3 -1
BITMAP
003F00
000080
000100
000100
000200
018400
03C400
066000
0C3000
081800
100C00
200400
000000
000000
000000
07E000
181800
200400
400200
400200
000200
000200
000200
000200
000200
000200
1FFE00
200200
400200
800200
800200
800200
800200
800200
800200
800600
600A00
38F1E0
040000
ENDCHAR
STARTCHAR 1EAA
ENCODING 7850
SWIDTH 585 0
DWIDTH 26 0
BBX 23 46 2 0
BITMAP
008000
066000
001880
000200
000000
001000
002800
004400
008200
010100
020080
040000
000000
000000
000000
003000
002800
002800
004800
004400
004400
008400
008200
008200
010200
010100
030100
020080
020080
040080
040040
040040
080040
080020
080020
1FFFE0
100010
300010
200010
200008
400008
400004
400004
800004
800002
800002
ENDCHAR
STARTCHAR 1EAB
ENCODING 7851
SWIDTH 517 0
DWIDTH 23 0
BBX 19 39 3 -1
BITMAP
0C0000
330000
00C400
003800
000000
018000
03C000
066000
0C3000
081800
100C00
200400
000000
000000
000000
07E000
181800
200400
400200
400200
000200
000200
000200
000200
000200
000200
1FFE00
200200
400200
800200
800200
800200
800200
800200
800200
800600
600A00
38F1E0
040000
ENDCHAR
STARTCHAR 1EAC
ENCODING 7852
SWIDTH 585 0
DWIDTH 26 0
BBX 23 47 2 -6
BITMAP
003000
006800
00C400
018200
030100
060080
000000
000000
000000
000000
003000
002800
002800
004800
004400
004400
008400
008200
008200
010200
010100
030100
020080
020080
040080
040040
040040
080040
080020
080020
1FFFE0
100010
300010
200010
200008
400008
400004
400004
800004
800002
800002
000000
000000
000000
000000
001800
001000
ENDCHAR
STARTCHAR 1EAD
ENCODING 7853
SWIDTH 517 0
DWIDTH 23 0
BBX 19 39 3 -6
BITMAP
018000
024000
042000
081000
100800
200400
000000
000000
000000
000000
07E000
181800
200400
400200
400200
000200
000200
000200
000200
000200
000200
1FFE00
200200
400200
800200
800200
800200
800200
800200
800200
800600
600A00
38F1E0
040000
000000
000000
000000
030000
030000
ENDCHAR
STARTCHAR 1EAE
ENCODING 7854
SWIDTH 585 0
DWIDTH 26 0
BBX 23 46 2 0
BITMAP
000100
000200
000400
000C00
000800
001000
002000
020080
020100
010300
00C600
001800
000000
000000
000000
003000
002800
002800
004800
004400
004400
008400
008200
008200
010200
010100
030100
020080
020080
040080
040040
040040
080040
080020
080020
1FFFE0
100010
300010
200010
200008
400008
400004
400004
800004
800002
800002
ENDCHAR
STARTCHAR 1EAF
ENCODING 7855
SWIDTH 517 0
DWIDTH 23 0
BBX 19 39 3 -1
BITMAP
001800
001000
002000
004000
00C000
008000
010000
200400
100800
081000
042000
03C000
000000
000000
000000
07E000
181800
200400
400200
400200
000200
000200
000200
000200
000200
000200
1FFE00
200200
400200
800200
800200
800200
800200
800200
800200
800600
600A00
38F1E0
040000
ENDCHAR
STARTCHAR 1EB0
ENCODING 7856
SWIDTH 585 0
DWIDTH 26 0
BBX 23 46 2 0
BITMAP
010000
018000
008000
004000
002000
001000
001000
020080
020100
010300
00C600
001800
000000
000000
000000
003000
002800
002800
004800
004400
004400
008400
008200
008200
010200
010100
030100
020080
020080
040080
040040
040040
080040
080020
080020
1FFFE0
100010
300010
200010
200008
400008
400004
400004
800004
800002
800002
ENDCHAR
STARTCHAR 1EB1
ENCODING 7857
SWIDTH 517 0
DWIDTH 23 0
BBX 19 39 3 -1
BITMAP
080000
080000
040000
020000
010000
010000
008000
200400
100800
081000
042000
03C000
000000
000000
000000
07E000
181800
200400
400200
400200
000200
000200
000200
000200
000200
000200
1FFE00
200200
400200
800200
800200
800200
800200
800200
800200
800600
600A00
38F1E0
040000
ENDCHAR
STARTCHAR 1EB2
ENCODING 7858
SWIDTH 585 0
DWIDTH 26 0
BBX 23 46 2 0
BITMAP
00FE00
000200
000600
000400
000800
000800
001000
020080
020100
010300
00C600
001800
000000
000000
000000
003000
002800
002800
004800
004400
004400
008400
008200
008200
010200
010100
030100
020080
020080
040080
040040
040040
080040
080020
080020
1FFFE0
100010
300010
200010
200008
400008
400004
400004
800004
800002
800002
ENDCHAR
STARTCHAR 1EB3
ENCODING 7859
SWIDTH 517 0
DWIDTH 23 0
BBX 19 39 3 -1
BITMAP
07F000
001000
002000
002000
004000
008000
008000
200400
100800
081000
042000
03C000
000000
000000
000000
07E000
181800
200400
400200
400200
000200
000200
000200
000200
000200
000200
1FFE00
200200
400200
800200
800200
800200
800200
800200
800200
800600
600A00
38F1E0
040000
ENDCHAR
STARTCHAR 1EB4
ENCODING 7860
SWIDTH 585 0
DWIDTH 26 0
BBX 23 45 2 0
BITMAP
03C000
043040
000F80
000000
000000
000000
020080
020100
010300
00C600
001800
000000
000000
000000
003000
002800
002800
004800
004400
004400
008400
008200
008200
010200
010100
030100
020080
020080
040080
040040
040040
080040
080020
080020
1FFFE0
100010
300010
200010
200008
400008
400004
400004
800004
800002
800002
ENDCHAR
STARTCHAR 1EB5
ENCODING 7861
SWIDTH 517 0
DWIDTH 23 0
BBX 19 38 3 -1
BITMAP
1E0000
618600
007800
000000
000000
000000
200400
100800
081000
042000
03C000
000000
000000
000000
07E000
181800
200400
400200
400200
000200
000200
000200
000200
000200
000200
1FFE00
200200
400200
800200
800200
800200
800200
800200
800200
800600
600A00
38F1E0
040000
ENDCHAR
STARTCHAR 1EB6
ENCODING 7862
SWIDTH 585 0
DWIDTH 26 0
BBX 23 46 2 -6
BITMAP
020080
020100
010100
008200
007C00
000000
000000
000000
000000
003000
002800
002800
004800
004400
004400
008400
008200
008200
010200
010100
030100
020080
020080
040080
040040
040040
080040
080020
080020
1FFFE0
100010
300010
200010
200008
400008
400004
400004
800004
800002
800002
000000
000000
000000
000000
001800
001000
ENDCHAR
STARTCHAR 1EB7
ENCODING 7863
SWIDTH 517 0
DWIDTH 23 0
BBX 19 38 3 -6
BITMAP
200400
100800
081800
0C1000
03C000
000000
000000
000000
000000
07E000
181800
200400
400200
400200
000200
000200
000200
000200
000200
000200
1FFE00
200200
400200
800200
800200
800200
800200
800200
800200
800600
600A00
38F1E0
040000
000000
000000
000000
030000
030000
ENDCHAR
STARTCHAR 1EB8
ENCODING 7864
SWIDTH 540 0
DWIDTH 24 0
BBX 17 37 5 -6
BITMAP
FFFF80
800000
800000
800000
800000
800000
800000
800000
800000
800000
800000
800000
800000
800000
800000
FFFF00
800000
800000
800000
800000
800000
800000
800000
800000
800000
800000
800000
800000
800000
800000
FFFF80
000000
000000
000000
000000
018000
018000
ENDCHAR
STARTCHAR 1EB9
ENCODING 7865
SWIDTH 517 0
DWIDTH 23 0
BBX 18 29 3 -6
BITMAP
03F000
0C0C00
100200
200100
400100
400080
800080
800040
800040
800040
800040
FFFFC0
800000
800000
800000
800000
800000
800040
400080
400080
200100
180200
0E1C00
012000
000000
000000
000000
00C000
00C000
ENDCHAR
STARTCHAR 1EBA
ENCODING 7866
SWIDTH 540 0
DWIDTH 24 0
BBX 17 41 5 0
BITMAP
07F000
001000
002000
002000
004000
004000
008000
000000
000000
000000
FFFF80
800000
800000
800000
800000
800000
800000
800000
800000
800000
800000
800000
800000
800000
800000
FFFF00
800000
800000
800000
800000
800000
800000
800000
800000
800000
800000
800000
800000
800000
800000
FFFF80
ENDCHAR
STARTCHAR 1EBB
ENCODING 7867
SWIDTH 517 0
DWIDTH 23 0
BBX 18 34 3 -1
BITMAP
03F800
000800
001000
002000
002000
004000
004000
000000
000000
000000
03F000
0C0C00
100200
200100
400100
400080
800080
800040
800040
800040
800040
FFFFC0
800000
800000
800000
800000
800000
800040
400080
400080
200100
180200
0E1C00
012000
ENDCHAR
STARTCHAR 1EBC
ENCODING 7868
SWIDTH 540 0
DWIDTH 24 0
BBX 17 39 5 0
BITMAP
1F0000
208200
007C00
000000
000000
000000
000000
000000
FFFF80
800000
800000
800000
800000
800000
800000
800000
800000
800000
800000
800000
800000
800000
800000
FFFF00
800000
800000
800000
800000
800000
800000
800000
800000
800000
800000
800000
800000
800000
800000
FFFF80
ENDCHAR
STARTCHAR 1EBD
ENCODING 7869
SWIDTH 517 0
DWIDTH 23 0
BBX 18 32 3 -1
BITMAP
0F0000
30C200
003C00
000000
000000
000000
000000
000000
03F000
0C0C00
100200
200100
400100
400080
800080
800040
800040
800040
800040
FFFFC0
800000
800000
800000
800000
800000
800040
400080
400080
200100
180200
0E1C00
012000
ENDCHAR
STARTCHAR 1EBE
ENCODING 7870
SWIDTH 540 0
DWIDTH 24 0
BBX 18 46 5 0
BITMAP
000040
0000C0
000080
000100
000200
008600
014400
022000
041000
080800
100400
200000
000000
000000
000000
FFFF80
800000
800000
800000
800000
800000
800000
800000
800000
800000
800000
800000
800000
800000
800000
FFFF00
800000
800000
800000
800000
800000
800000
800000
800000
800000
800000
800000
800000
800000
800000
FFFF80
ENDCHAR
STARTCHAR 1EBF
ENCODING 7871
SWIDTH 517 0
DWIDTH 23 0
BBX 19 39 3 -1
BITMAP
000020
000040
000080
000080
000100
00C200
01E400
033000
061000
0C0800
180400
100200
000000
000000
000000
03F000
0C0C00
100200
200100
400100
400080
800080
800040
800040
800040
800040
FFFFC0
800000
800000
800000
800000
800000
800040
400080
400080
200100
180200
0E1C00
012000
ENDCHAR
STARTCHAR 1EC0
ENCODING 7872
SWIDTH 540 0
DWIDTH 24 0
BBX 19 46 3 0
BITMAP
C00000
400000
200000
100000
100000
082000
045000
008800
010400
020200
040100
080000
000000
000000
000000
3FFFE0
200000
200000
200000
200000
200000
200000
200000
200000
200000
200000
200000
200000
200000
200000
3FFFC0
200000
200000
200000
200000
200000
200000
200000
200000
200000
200000
200000
200000
200000
200000
3FFFE0
ENDCHAR
STARTCHAR 1EC1
ENCODING 7873
SWIDTH 517 0
DWIDTH 23 0
BBX 19 39 2 -1
BITMAP
800000
400000
600000
200000
100000
086000
08F000
019800
030800
060400
0C0200
080100
000000
000000
000000
01F800
060600
080100
100080
200080
200040
400040
400020
400020
400020
400020
7FFFE0
400000
400000
400000
400000
400000
400020
200040
200040
100080
0C0100
070E00
009000
ENDCHAR
STARTCHAR 1EC2
ENCODING 7874
SWIDTH 540 0
DWIDTH 24 0
BBX 17 46 5 0
BITMAP
003F80
000080
000180
000100
000200
008200
014400
022000
041000
080800
100400
200000
000000
000000
000000
FFFF80
800000
800000
800000
800000
800000
800000
800000
800000
800000
800000
800000
800000
800000
800000
FFFF00
800000
800000
800000
800000
800000
800000
800000
800000
800000
800000
800000
800000
800000
800000
FFFF80
ENDCHAR
STARTCHAR 1EC3
ENCODING 7875
SWIDTH 517 0
DWIDTH 23 0
BBX 18 39 3 -1
BITMAP
001F80
000040
000080
000180
000100
00C200
01E200
033000
061000
0C0800
180400
100200
000000
000000
000000
03F000
0C0C00
100200
200100
400100
400080
800080
800040
800040
800040
800040
FFFFC0
800000
800000
800000
800000
800000
800040
400080
400080
200100
180200
0E1C00
012000
ENDCHAR
STARTCHAR 1EC4
ENCODING 7876
SWIDTH 540 0
DWIDTH 24 0
BBX 17 46 5 0
BITMAP
040000
330000
00C400
001000
000000
008000
014000
022000
041000
080800
100400
200000
000000
000000
000000
FFFF80
800000
800000
800000
800000
800000
800000
800000
800000
800000
800000
800000
800000
800000
800000
FFFF00
800000
800000
800000
800000
800000
800000
800000
800000
800000
800000
800000
800000
800000
800000
FFFF80
ENDCHAR
STARTCHAR 1EC5
ENCODING 7877
SWIDTH 517 0
DWIDTH 23 0
BBX 18 39 3 -1
BITMAP
040000
198000
006200
001C00
000000
00C000
01E000
033000
061000
0C0800
180400
100200
000000
000000
000000
03F000
0C0C00
100200
200100
400100
400080
800080
800040
800040
800040
800040
FFFFC0
800000
800000
800000
800000
800000
800040
400080
400080
200100
180200
0E1C00
012000
ENDCHAR
STARTCHAR 1EC6
ENCODING 7878
SWIDTH 540 0
DWIDTH 24 0
BBX 17 47 5 -6
BITMAP
018000
034000
062000
0C1000
180800
300400
000000
000000
000000
000000
FFFF80
800000
800000
800000
800000
800000
800000
800000
800000
800000
800000
800000
800000
800000
800000
FFFF00
800000
800000
800000
800000
800000
800000
800000
800000
800000
800000
800000
800000
800000
800000
FFFF80
000000
000000
000000
000000
018000
018000
ENDCHAR
STARTCHAR 1EC7
ENCODING 7879
SWIDTH 517 0
DWIDTH 23 0
BBX 18 39 3 -6
BITMAP
00C000
012000
021000
040800
080400
100200
000000
000000
000000
000000
03F000
0C0C00
100200
200100
400100
400080
800080
800040
800040
800040
800040
FFFFC0
800000
800000
800000
800000
800000
800040
400080
400080
200100
180200
0E1C00
012000
000000
000000
000000
00C000
00C000
ENDCHAR
STARTCHAR 1EC8
ENCODING 7880
SWIDTH 360 0
DWIDTH 16 0
BBX 11 41 3 0
BITMAP
3F80
0080
0100
0100
0200
0400
0400
0000
0000
0000
FFE0
0400
0400
0400
0400
0400
0400
0400
0400
0400
0400
0400
0400
0400
0400
0400
0400
0400
0400
0400
0400
0400
0400
0400
0400
0400
0400
0400
0400
0400
FFE0
ENDCHAR
STARTCHAR 1EC9
ENCODING 7881
SWIDTH 225 0
DWIDTH 10 0
BBX 7 33 2 0
BITMAP
FE
02
04
04
08
10
10
00
00
00
00
10
10
10
10
10
10
10
10
10
10
10
10
10
10
10
10
10
10
10
10
10
10
ENDCHAR
STARTCHAR 1ECA
ENCODING 7882
SWIDTH 360 0
DWIDTH 16 0
BBX 11 37 3 -6
BITMAP
FFE0
0400
0400
0400
0400
0400
0400
0400
0400
0400
0400
0400
0400
0400
0400
0400
0400
0400
0400
0400
0400
0400
0400
0400
0400
0400
0400
0400
0400
0400
FFE0
0000
0000
0000
0000
0C00
0C00
ENDCHAR
STARTCHAR 1ECB
ENCODING 7883
SWIDTH 225 0
DWIDTH 10 0
BBX 2 38 4 -6
BITMAP
C0
C0
00
00
00
00
00
00
00
00
40
40
40
40
40
40
40
40
40
40
40
40
40
40
40
40
40
40
40
40
40
40
00
00
00
00
C0
C0
ENDCHAR
STARTCHAR 1ECC
ENCODING 7884
SWIDTH 675 0
DWIDTH 30 0
BBX 24 38 3 -6
BITMAP
000C00
01E380
060060
080010
100008
300004
200004
600002
400002
400002
400001
800001
800001
800001
800001
800001
800001
800001
800001
800001
800001
800001
400001
400002
400002
600002
200004
300004
100008
0C0010
060060
01E380
000400
000000
000000
000000
001800
001800
ENDCHAR
STARTCHAR 1ECD
ENCODING 7885
SWIDTH 540 0
DWIDTH 24 0
BBX 18 29 3 -6
BITMAP
03F000
0C0C00
300200
200100
400080
400080
800040
800040
800040
800040
800040
800040
800040
800040
800040
800040
800040
800040
400080
400080
200100
100200
0E1C00
012000
000000
000000
000000
00C000
00C000
ENDCHAR
STARTCHAR 1ECE
ENCODING 7886
SWIDTH 675 0
DWIDTH 30 0
BBX 24 42 3 -1
BITMAP
007F00
000100
000200
000200
000400
000800
000800
000000
000000
000C00
01E380
060060
080010
100008
300004
200004
600002
400002
400002
400001
800001
800001
800001
800001
800001
800001
800001
800001
800001
800001
800001
400001
400002
400002
600002
200004
300004
100008
0C0010
060060
01E380
000400
ENDCHAR
STARTCHAR 1ECF
ENCODING 7887
SWIDTH 540 0
DWIDTH 24 0
BBX 18 34 3 -1
BITMAP
03F800
000800
001000
002000
002000
004000
004000
000000
000000
000000
03F000
0C0C00
300200
200100
400080
400080
800040
800040
800040
800040
800040
800040
800040
800040
800040
800040
800040
800040
400080
400080
200100
100200
0E1C00
012000
ENDCHAR
STARTCHAR 1ED0
ENCODING 7888
SWIDTH 675 0
DWIDTH 30 0
BBX 24 47 3 -1
BITMAP
000004
000008
000018
000010
000020
001840
003C40
006600
004300
008180
0100C0
020040
000000
000000
000C00
01E380
060060
080010
100008
300004
200004
600002
400002
400002
400001
800001
800001
800001
800001
800001
800001
800001
800001
800001
800001
800001
400001
400002
400002
600002
200004
300004
100008
0C0010
060060
01E380
000400
ENDCHAR
STARTCHAR 1ED1
ENCODING 7889
SWIDTH 540 0
DWIDTH 24 0
BBX 19 39 3 -1
BITMAP
000020
000040
0000C0
000080
000100
00C200
01E400
033000
061800
0C0C00
180600
100200
000000
000000
000000
03F000
0C0C00
300200
200100
400080
400080
800040
800040
800040
800040
800040
800040
800040
800040
800040
800040
800040
800040
400080
400080
200100
100200
0E1C00
012000
ENDCHAR
STARTCHAR 1ED2
ENCODING 7890
SWIDTH 675 0
DWIDTH 30 0
BBX 24 47 3 -1
BITMAP
200000
100000
080000
0C0000
040000
021800
013C00
006600
004300
008180
0100C0
020040
000000
000000
000C00
01E380
060060
080010
100008
300004
200004
600002
400002
400002
400001
800001
800001
800001
800001
800001
800001
800001
800001
800001
800001
800001
400001
400002
400002
600002
200004
300004
100008
0C0010
060060
01E380
000400
ENDCHAR
STARTCHAR 1ED3
ENCODING 7891
SWIDTH 540 0
DWIDTH 24 0
BBX 19 39 2 -1
BITMAP
800000
400000
200000
200000
100000
086000
04F000
019800
030C00
060600
0C0300
080100
000000
000000
000000
01F800
060600
180100
100080
200040
200040
400020
400020
400020
400020
400020
400020
400020
400020
400020
400020
400020
400020
200040
200040
100080
080100
070E00
009000
ENDCHAR
STARTCHAR 1ED4
ENCODING 7892
SWIDTH 675 0
DWIDTH 30 0
BBX 24 47 3 -1
BITMAP
0003F8
000008
000010
000010
000020
001840
003C40
006600
004300
008180
0100C0
020040
000000
000000
000C00
01E380
060060
080010
100008
300004
200004
600002
400002
400002
400001
800001
800001
800001
800001
800001
800001
800001
800001
800001
800001
800001
400001
400002
400002
600002
200004
300004
100008
0C0010
060060
01E380
000400
ENDCHAR
STARTCHAR 1ED5
ENCODING 7893
SWIDTH 540 0
DWIDTH 24 0
BBX 18 39 3 -1
BITMAP
001F80
000040
000080
000080
000100
00C200
01E200
033000
061800
0C0C00
180600
100200
000000
000000
000000
03F000
0C0C00
300200
200100
400080
400080
800040
800040
800040
800040
800040
800040
800040
800040
800040
800040
800040
800040
400080
400080
200100
100200
0E1C00
012000
ENDCHAR
STARTCHAR 1ED6
ENCODING 7894
SWIDTH 675 0
DWIDTH 30 0
BBX 24 47 3 -1
BITMAP
00C000
033000
000C40
000380
000000
001800
003C00
006600
004300
008180
0100C0
020040
000000
000000
000C00
01E380
060060
080010
100008
300004
200004
600002
400002
400002
400001
800001
800001
800001
800001
800001
800001
800001
800001
800001
800001
800001
400001
400002
400002
600002
200004
300004
100008
0C0010
060060
01E380
000400
ENDCHAR
STARTCHAR 1ED7
ENCODING 7895
SWIDTH 540 0
DWIDTH 24 0
BBX 18 39 3 -1
BITMAP
060000
198000
006200
001C00
000000
00C000
01E000
033000
061800
0C0C00
180600
100200
000000
000000
000000
03F000
0C0C00
300200
200100
400080
400080
800040
800040
800040
800040
800040
800040
800040
800040
800040
800040
800040
800040
400080
400080
200100
100200
0E1C00
012000
ENDCHAR
STARTCHAR 1ED8
ENCODING 7896
SWIDTH 675 0
DWIDTH 30 0
BBX 24 47 3 -6
BITMAP
001800
002400
004200
008100
010080
020040
000000
000000
000000
000C00
01E380
060060
080010
100008
300004
200004
600002
400002
400002
400001
800001
800001
800001
800001
800001
800001
800001
800001
800001
800001
800001
400001
400002
400002
600002
200004
300004
100008
0C0010
060060
01E380
000400
000000
000000
000000
001800
001800
ENDCHAR
STARTCHAR 1ED9
ENCODING 7897
SWIDTH 540 0
DWIDTH 24 0
BBX 18 39 3 -6
BITMAP
00C000
012000
021000
040800
080400
100200
000000
000000
000000
000000
03F000
0C0C00
300200
200100
400080
400080
800040
800040
800040
800040
800040
800040
800040
800040
800040
800040
800040
800040
400080
400080
200100
100200
0E1C00
012000
000000
000000
000000
00C000
00C000
ENDCHAR
STARTCHAR 1EDA
ENCODING 7898
SWIDTH 675 0
DWIDTH 30 0
BBX 24 42 3 -1
BITMAP
000100
000200
000600
000400
000800
001001
001001
000001
000001
000801
01E7FF
060060
080010
100008
300004
200004
600002
400002
400002
400001
800001
800001
800001
800001
800001
800001
800001
800001
800001
800001
800001
400001
400002
400002
600002
200004
300004
100008
0C0010
060060
01E380
000400
ENDCHAR
STARTCHAR 1EDB
ENCODING 7899
SWIDTH 540 0
DWIDTH 24 0
BBX 18 34 3 -1
BITMAP
000800
001000
003000
002000
004000
008000
008040
000040
000040
000040
03F040
0C0F80
300200
200100
400080
400080
800040
800040
800040
800040
800040
800040
800040
800040
800040
800040
800040
800040
400080
400080
200100
100200
0E1C00
012000
ENDCHAR
STARTCHAR 1EDC
ENCODING 7900
SWIDTH 675 0
DWIDTH 30 0
BBX 24 42 3 -1
BITMAP
008000
004000
002000
002000
001000
000801
000001
000001
000001
000801
01E7FF
060060
080010
100008
300004
200004
600002
400002
400002
400001
800001
800001
800001
800001
800001
800001
800001
800001
800001
800001
800001
400001
400002
400002
600002
200004
300004
100008
0C0010
060060
01E380
000400
ENDCHAR
ENDFONT
